<?xml version="1.0" encoding="UTF-8"?>
<svg id="Layer_1" data-name="Layer 1" xmlns="http://www.w3.org/2000/svg" viewBox="0 0 668.76 642.52">
  <defs>
    <style>
      .cls-1 {
        fill: #f7941d;
      }

      .cls-1, .cls-2 {
        stroke-width: 0px;
      }

      .cls-2 {
        fill: #009444;
      }
    </style>
  </defs>
  <g id="Player2">
    <g>
      <path class="cls-1" d="m633.67,426.33c-.96-2.45-3.34-7.48-6.25-6.97-7.83,5.15-21.33,7.05-25.89,15.02-5.36,16.39-33.52,137.15-10.14,65.39,9.28-27.64,2.87-66.05,36.39-75.86,8.65,40.48-11.39,68.07-33.18,100.09-17.52,14.66-45.64,10.77-66.82,6.89-13.84-3.68-27.26-6.2-27.69-20.59-23.27-34.88-80.61-51.27-111.76-17.85-19.94,7.76-112.42-38.61-81.63-58.06,40.4-38.55,111.6-129.78,48.59-175.19-30.53-10.68-71.27,9.47-99.85-3.27-44.58-37.21-6.71-107.01,39.61-120.57,73.32-41.73,57.15-176.83-40.84-119.1-79.71,59.39-19.06,101.63-63.67,120.15-4.25-25.99-16.46-49.76-36.14-67.62-39.45-23.29-48.2,206.84-32.18,234.64,3.67,16.02,13.4,23.47,26.02,33.95,27.4,31.16,67.97,67.5,66.76,108.64,12.02,32.43-25.99,62.34-56.02,53.52-37.47-20.42-82.23-28.27-124.66-26.21-7.71,2.48-24.11.04-25.67,9.06,1.03,23.28.14,46.66.67,69.97.47,10.17-1.01,89.46,5.34,65.81,6.35-23.08-9.88-142.02,11.58-138.57,43.55-2.93,88.96,6.57,127.82,26.4,73.98,10.35,93.77-44.61,54.07-100.56-19.02-32.03-43.51-60.72-72.26-84.44-5.68-4.24-7.52-12.64-9.81-19.29-14.53-41.24-.74-329.05,54.35-184.51,5.97,6.03.76,25.95,8.27,25.58,7.43-7.7,26.56-12.33,26.62-23.42-13.2-40.24,15.19-84.32,51.28-101.66,57.25-29.2,85.07,38.75,52.66,81.05-12.08,18.97-28.98,33.57-50.5,40.86-20.71,24.7-45.29,55.93-38.49,91.9,7.35,89.23,198.35-49.47,120.98,127.62-13.59,23.8-29.73,46.58-49.29,65.88-4,5.67-23.78,15.33-11.68,21.39,23.03,27.28,57.67,49.45,94.42,53.65,14.92-7.96,31.6-22.36,51.6-17.65,33.9,1.92,48.01,36.79,76.44,48.6,26.13,9.53,56.42,10.78,82.13-.61,12.25-16.32,23.44-41.04,38.82-54.92"/>
      <path class="cls-1" d="m633.68,475.47c-15.35,13.88-26.59,38.58-38.82,54.91-70.74,25.94-90.4-8.56-140.75-43.08-45.74-21.45-54.49,22.44-88.85,9.02-29.18-9.12-56.09-27.14-74.98-49.94-12.1-5.94,7.67-15.86,11.68-21.39,34.3-38.82,85.04-96.93,60.05-151.37-31.76-37.68-123.66,27.1-131.74-42.12-6.79-35.94,17.77-67.22,38.49-91.89,33.35-11.52,59.39-42.43,63.97-77.53,8.34-69.62-80.02-58.06-104.24-11.59-13.72,19.59-21.45,45.59-13.18,68.87,4.82,3.37-30.79,30.45-30.51,21.17-48.39-199.73-83.92,122-53.43,174.39,32.87,33.84,72.02,68.3,88.03,115.12,31.98,37.25-14.28,88.79-57.74,76.01-44.38-13.11-93.12-34.67-142.15-25.27-8.63,25.05-.46,63.06-3.72,92.29-.05,10.13-.67,72.78-5.37,41.28-1.39-43.96-.76-87.99-1.77-131.93,12.35-14.96,45.11-8.52,64.42-8.1,31.29,3.26,62.18,12.16,89.78,26.61,54.13,4.6,65.22-52.12,44.17-88.73-20.48-33.8-45.66-66.03-77.19-90.17-2.85-5.23-4.64-11.8-7.61-18.58-13.61-76.71-15.06-170.64,24.36-239.35,22.72,9.11,39.23,46.25,43.97,72.32,34.9-15.76,8.82-30.46,19.69-59.07,11.69-45.48,67.26-95.85,113.92-65.57,39.27,35.36,8.39,99.2-29.1,123.58-15.32,9.6-31.03,10.9-40.11,28.22-39.25,48.38-17.31,112.74,50.97,94.43,109.52-21.6,75.51,94.67,29.64,145.88-12.17,14.52-25.43,27.35-39.25,40.42,20.62,24.19,50.32,42.58,81.48,49.24,8.95,2.73,13.38-4.38,19.73-9.21,33.65-22.08,81-5.64,102.58,25.96.28,14.27,14.03,17.06,27.69,20.59,47.41,12.29,70.96-2.77,91.05-45.62,16.14-17.19,8.53-39.24,8.94-61.36-7.23,5.14-18.81,7.41-23.03,15.38-1.34,16.44-30.71,129.72-19.9,61.18,7.2-22.68,9.92-49.23,19.46-70.01,44.62-29.65,25.39,17.1,29.36,45.01Z"/>
    </g>
    <ellipse class="cls-1" cx="14.08" cy="625.6" rx="14.08" ry="14.79"/>
  </g>
  <g id="Player1">
    <g>
      <path class="cls-2" d="m33.77,415.25c.59-10.46,41.08,13.31,31.97,18.52-3.01,15,20.24,57.62,12.09,71.1-7.13-.56-5.86-13.94-8.42-19.38-6.98-23.09-1.83-53.11-27-64.78-1.72,11.71-4.36,23.55-4.8,35.26,10.59,19.19,21.29,38.3,30.68,58.15,23.89,20.5,61.09,12.58,87.9,1.31,8.84-3.23,12.86-9.92,17.36-17.24,14-15.36,32.38-27.82,53.48-29.93,57.85-3.88,30.45,49.34,119.01.48,54.35-43.12-4.79-14.13-41.28-87.04-20.36-37.26-38.02-111.5,14.4-129.42,32-2.51,65.53,4.69,96.86.65,17.43-10.29,15.73-35.15,13.19-52.69-2.63-17.66-11.44-39.11-27.51-47.44-50.55-16.39-83.89-86.16-53.16-133.16,41.55-50.88,109.14,7.35,116.69,57.26,8.77,23.36-11.2,41.52,13.36,52.86,6.81-25.32,20.23-50.6,42.72-65.17,9.85-2.11,12.68,15.69,16.88,22.33,17.54,54.89,27.04,115.49,18.02,172.78,14.6,5.85-6.38,55.17-15.44,63.58-19.92,27.39-51.41,43.25-75.27,66.81,3.01,8.02-5.38,15.47-7.04,23.31-10.93,28.43-9.26,70.51,24.46,81.76,23.48,11.85,40.74-7.39,61.91-14.52,17.23-6.23,34.95-10.16,53.22-11.75,18.27-.65,44.94-1.91,55.44,15.05.59,45.22,1.45,90.43,1.65,135.65-1.69,20.48-3.86-11.35-3.42-17.03-.83-39.13-1.51-78.26-2.27-117.38-12.29-13.83-36.33-10.92-53.49-10.29-30.51,1.69-59,15.73-85.09,28.68-35.58,3.42-71.08-21.01-69.86-59.36,2.84-92.96,109.44-82.97,111.83-184.46,2.81-63.45-3.32-131.74-32.02-189.06-17.21,15.56-28.02,36.45-34.61,58.4-1.93,3.72.72,12.29-4.93,12.92-2.04,0-3.49-1.52-3.47-3.69.28-2.14.75-4.16-1.53-5.48-4.17-4.91-15.47-7.79-14.82-14.68,5.11-21.4,1.41-44.19-8.81-63.53-16.37-39.8-84.49-71.44-102.99-17.03-12.74,40.01,10.34,81.18,41.54,105.04,4.41,5.68,14.97,4.05,18.64,10.43,10.42,9.97,18.66,23,22.86,36.84,21.16,95.48-40.5,65.62-104.36,70.42-31.66-6.99-37.46,40.84-33.89,63.78,7.07,45.29,34.09,95.34,79.9,110.25,6.66,2.45,1.08,6.78-1.08,9.82-3.84,11.3-11.04,20.89-20.51,28.08-20.88,16.26-47.12,26.59-73.77,25.87-21.51-17.71-50.94-29.52-77.48-11.12-18.19,11.51-31.04,29.69-51.39,37.8-25.66,10.09-58.34,16.85-83.33,2.1-8.47-21.01-23.77-41-33.62-62.64"/>
      <path class="cls-2" d="m33.16,464.27c6.48,13.85,14.29,26.96,22.31,39.95,2.59,4.2,5.23,8.38,7.75,12.62.44.74.74,1.82.56,2.62-.74,3.24.59,5.58,3.01,7.45,3.42,2.66,7.32,4.47,11.49,5.48,7.02,1.7,14.16,2.74,21.42,2.77,17.54.09,34.32-3.52,50.42-10.35,8.36-3.55,16.11-8.11,22.33-14.92.37-.4.87-.85,1.36-.93,2.86-.46,4.62-2.48,6.47-4.39,6.44-6.63,13.25-12.8,21.23-17.57,8.09-4.82,16.65-8.28,26.1-9.19,6.79-.65,13.42.02,19.97,2.06,8.83,2.75,16.68,7.25,24,12.78.58.44,1.19,1.04,1.42,1.69,1,2.92,3.17,3.69,5.99,3.79,9.37.32,18.55-.64,27.62-3.12,16.87-4.61,32.47-11.73,46.15-22.75,6.41-5.16,12.19-10.93,16.15-18.22,1.71-3.15,2.98-6.54,4.36-9.86.44-1.07.75-2.01,2-2.53,1.65-.69,2.4-2.16,2.15-3.94-.24-1.77-1.32-2.95-3.06-3.35-9.47-2.15-17.58-6.99-25.24-12.71-13.29-9.92-23.57-22.52-32.29-36.5-11.71-18.78-19.51-39.02-22.38-61.04-1.7-13.02-1.67-26,2.57-38.62,2.49-7.41,5.59-14.54,11.14-20.32,2.52-2.62,5.31-4.86,8.02-6.36,4.37.56,8.27,1.5,12.16,1.5,22.51.02,45.01-.17,67.52-.32,6.65-.04,13.3-.01,19.94-.34,3.64-.18,7.05-1.5,9.59-4.34,3.69-4.1,5.88-9.05,7.7-14.17.8-2.23,1.67-4.45,2.29-6.74.61-2.28,1.24-4.62,1.32-6.95.46-12.7-1.22-25.2-4.01-37.56-.88-3.92-2.41-7.59-4.37-11.09-1.48-2.65-2.91-5.33-4.4-7.98-3.6-6.43-8.18-12.09-13.45-17.22-.2-.2-.57-.32-.64-.55-.87-2.81-3.37-3.16-5.66-4.01-3.74-1.38-7.36-3.06-11.05-4.56-.93-.38-1.51-.85-1.93-1.86-.44-1.07-1.22-2.21-2.17-2.82-7.87-5.01-14.34-11.55-20.16-18.72-11.43-14.08-18.77-30.09-21.59-48.02-1.88-11.96-1.53-23.86,2.38-35.48,1.9-5.64,4.68-10.82,8.43-15.42,8.51-10.46,19.76-14.76,32.99-13.96,8.55.52,16.56,3.16,24.06,7.31,16.55,9.15,28.81,22.45,37.51,39.11,5.82,11.14,9.52,22.98,10.71,35.51.9,9.42.26,18.79-1.89,28.02-.66,2.83-.7,2.78,1.49,4.46,4.45,3.4,8.82,6.91,13.32,10.23,1.5,1.11,2.19,2.25,1.7,4.06-.12.45-.17.94-.17,1.41-.02,2.16,1.43,3.69,3.47,3.69,1.94,0,3.24-1.38,3.48-3.41.39-3.19.49-6.49,1.44-9.51,2.06-6.5,4.18-13.04,7.02-19.22,5.65-12.3,12.65-23.82,21.98-33.76,1.67-1.78,3.52-3.4,5.6-5.41.97,1.35,1.79,2.34,2.44,3.43,4.12,7.01,6.66,14.69,9.13,22.37,7.29,22.64,12.82,45.71,16.18,69.25,3.28,22.96,5.43,46.04,5.44,69.26,0,8.25-.75,16.5-1.16,24.75-.01.28-.03.58-.11.85-2.77,9.13-2.76,18.7-4.61,28-2.7,13.62-8.91,25.32-17.15,36.18-3.7,4.88-8,9.14-12.83,12.88-5.41,4.2-10.5,8.74-15.22,13.72-2.14,2.25-4.63,4.24-7.21,5.97-7.42,5-14.46,10.46-21.06,16.51-3.92,3.59-8.05,6.95-11.95,10.57-2.01,1.86-3.78,3.99-5.51,6.13-.82,1.01-1.58,2.25-1.85,3.49-.66,3.15-2.48,5.72-3.8,8.53-6.2,13.19-10.63,26.84-10.54,41.62.07,11.25,2.59,21.91,8.64,31.46,9.33,14.72,22.48,23.9,39.86,26.76,5.4.89,10.77.85,16.18.42,1.77-.14,3.49-.48,5.18.72,1.1.78,2.38.09,3.44-.62,12.17-8.12,25.42-14.02,39.19-18.75,13.77-4.73,27.93-8.06,42.45-9.3,12.31-1.05,24.65-1.35,36.87,1.34,5.46,1.2,10.41,3.48,15.12,6.42.99.62,1.48,1.36,1.51,2.53.35,19.09.73,38.17,1.09,57.26.39,20.04.73,40.08,1.18,60.12.15,6.83.55,13.66.88,20.49.06,1.3.31,2.6.46,3.77,1.6.55,1.78-.4,1.84-1.25.14-1.99.27-3.98.25-5.98-.1-15.2-.19-30.4-.38-45.6-.3-23.75-.67-47.5-1.01-71.24-.09-6.27-.23-12.53-.26-18.8,0-1.69-.28-3.02-2.17-3.46-.25-.06-.49-.29-.68-.49-5.24-5.7-12.31-7.71-19.45-9.34-10.92-2.49-21.98-2.73-33.14-1.76-18.27,1.59-35.99,5.51-53.22,11.75-11.39,4.12-22.25,9.28-32.07,16.46-1.67,1.22-3.39,1.8-5.51,1.82-8.33.06-16.48-.87-24.34-3.76-16.32-6-25.87-17.76-29.05-34.71-3.02-16.1-1.03-31.8,4.58-47.05,1.96-5.34,4.48-10.47,6.79-15.68,1.64-3.7,1.68-3.93.25-7.63.28-.31.55-.7.9-1,7.41-6.37,14.75-12.84,22.29-19.06,3.73-3.07,7.91-5.59,11.78-8.49,2.95-2.22,5.79-4.6,8.6-7,3.97-3.39,7.66-7.15,11.86-10.23,7.92-5.83,14.31-13,19.84-21.03,1.13-1.64,2.39-3.19,3.55-4.81,4.49-6.28,8.45-12.89,10.74-20.28,3.15-10.18,5.1-20.63,6.02-31.26.39-4.53-.34-5.63-4.87-7.22.54-2.63,1.32-5.27,1.6-7.96.76-7.46,1.64-14.93,1.88-22.41.68-21.42-.87-42.72-4.05-63.9-1.99-13.24-3.98-26.48-6.5-39.62-2.53-13.24-5.93-26.31-10.94-38.88-2.78-6.97-5.96-13.77-10.26-19.98-.58-.85-1.27-1.69-2.09-2.29-1.43-1.04-3.04-1.09-4.53-.07-2.42,1.66-4.82,3.35-7.15,5.13-7.74,5.92-13.46,13.62-18.73,21.66-5.32,8.12-9.78,16.73-13.05,25.89-1.46,4.1-2.54,8.33-3.79,12.49-1.92-.64-9.53-6.74-14.07-11.35.31-1.25.66-2.61,1-3.96,3.14-12.54,2.55-25.1-.29-37.55-5.01-21.96-15.57-40.87-31.91-56.45-9.52-9.08-20.51-15.76-33.41-18.69-20.74-4.71-38.15.91-51.37,17.89-5.59,7.18-8.55,15.6-10.27,24.47-2.88,14.81-1.25,29.33,3.1,43.61,5.54,18.18,15.24,33.85,28.95,47.03,4.48,4.31,9.72,7.6,14.78,11.12.67.47,1.61.89,2.37.8,1.75-.2,3.12.55,4.55,1.29,3.21,1.64,6.41,3.32,9.68,4.84,1.93.89,3.36,2.8,5.84,2.69.59-.03,1.33,1,1.83,1.66,4.13,5.45,8.44,10.78,11.05,17.2.53,1.31,1.17,2.62,1.96,3.79,4.52,6.68,5.86,14.32,6.82,22.09.29,2.35.48,4.72.84,7.07,1.04,6.72,1.28,13.54.29,20.17-1.1,7.42-3.77,14.5-8.05,20.82-.32.47-.65.97-1.09,1.31-1.26.97-2.56,1.89-3.88,2.77-.38.26-.97.25-1.3.54-2.16,1.86-4.66,1.49-7.22,1.41-26.2-.89-52.39-1.73-78.59-2.51-3.67-.11-7.38.09-11.04.46-1.94.19-3.9.85-5.72,1.62-10.71,4.55-17.86,12.71-22.46,23.13-3.48,7.89-4.99,16.31-5.56,24.9-1.89,28.61,6.11,54.84,19.33,79.77,8.37,15.78,19.38,29.51,32.87,41.2,8.98,7.79,18.96,13.92,30.32,17.66.36.12.69.3,1.27.57-.12.69-.16,1.42-.38,2.09-1.34,4.02-3.56,7.53-6.25,10.78-4.77,5.75-10.37,10.6-16.55,14.74-14.07,9.41-29.42,15.83-46.16,18.5-7.1,1.13-14.26,2.33-21.54,1.68-1.21-.11-2.06-.35-2.9-1.34-12.75-14.88-28.96-21.23-48.41-19.33-12.89,1.26-24.37,6.27-34.92,13.58-6.82,4.72-13.05,10.13-18.56,16.35-1.84,2.08-3.58,4.16-3.99,7.07-.1.73-.82,1.46-1.41,2.02-3.53,3.37-7.55,6.04-11.96,8.14-9.76,4.65-19.97,7.68-30.67,9.28-7.06,1.06-14.15,1.83-21.27,1.7-8.45-.16-16.93-.65-24.69-4.63-1.59-.82-3.12-1.81-4.53-2.9-1.58-1.22-3.03-2.54-5.08-3.03-.66-.16-1.31-1.03-1.66-1.73-5.6-11.1-11.02-22.31-16.78-33.32-3.47-6.64-7.51-12.98-11.24-19.48-.99-1.72-1.86-3.52-2.65-5.35-.28-.64-.29-1.48-.19-2.19,1.45-10.15,2.95-20.29,4.44-30.43.12-.82.33-1.62.55-2.64.49.31.8.48,1.08.69,4.62,3.48,9.19,7.02,13.88,10.42,1.15.84,1.79,1.64,2.07,3.1,3.25,16.87,6.52,33.74,9.97,50.57,1.12,5.48,2.77,10.85,4.18,16.27.65,2.5,2.16,3.61,4.23,3.11,2.05-.5,2.75-2.12,2.3-4.71-3.76-21.54-9.74-42.55-15.39-63.64-.14-.54-.25-1.09-.4-1.72.5-.36.99-.65,1.39-1.03,2-1.85,2.05-4.36.01-6.22-1.12-1.02-2.38-1.9-3.66-2.71-4.72-3.01-9.43-6.02-14.22-8.92-2.5-1.51-5.52-1.84-8.01-3.56-1.7-1.17-4.04-.31-5.27,1.41-.32.45-.55.98-.83,1.47-.2,16.34-.41,32.68-.61,49.02Z"/>
    </g>
    <circle class="cls-2" cx="654.68" cy="628.43" r="14.08"/>
  </g>
</svg>