<?xml version="1.0" encoding="UTF-8"?>
<svg xmlns="http://www.w3.org/2000/svg" viewBox="0 0 635.11 961.94">
  <defs>
    <style>
      .cls-1 {
        fill: #f15a29;
      }

      .cls-1, .cls-2 {
        stroke-width: 0px;
      }

      .cls-2 {
        fill: #009444;
      }
    </style>
  </defs>
  <g id="Player1">
    <g>
      <path class="cls-2" d="m486.48,960.89c-9.18,4.27-3.6-5.65-4.99-10.55.87-18.44,11.78-38.3,28.71-46.54,59.08-92.4,4.52-171.44-40.44-253.29-70.55-129.66-159.8-246.16-242.18-368.4-47.36-70.11-108.84-129.41-152.63-201.96-.94-4.17-5.93-9.1-.67-11.77,9.2-2.95,22.45-10.86,29.33-17.47C138.87,32.2,81.2,21.57,85.74.18c5.01-1.51,5.95,6.97,9.64,9.01,10.91,9.89,41.53,27.81,17.57,40.29-22.21,21.76-48.24,13.89-19.83,47.92,70.31,94.72,146.61,185.47,210.02,285.54,46.74,69.21,100.83,133.82,137.6,209.07,49.76,90.16,138.35,191.84,81.84,298.02-10.33,22.48-37.01,33.04-37.26,60.58,6.28-9.92,39.88-22.4,39.82-7.44-14.1-2.87-34.93,3.15-38.65,17.73Z"/>
      <path class="cls-2" d="m548.79,940.66c.3,18.97-31.51,18.97-31.21,0-.3-18.97,31.51-18.97,31.21,0Z"/>
    </g>
  </g>
  <g id="Player2">
    <g>
      <path class="cls-1" d="m632.14,879.05c8.29-5.8-3.09-5.94-6.63-9.61-16.4-8.48-39.05-8.97-54.67,1.55-110.19,4.55-150.29-81.64-199.01-161.82-76.91-125.99-133.08-261.58-197.65-394.09-36.98-76.1-57.53-159.01-98.41-233.24-3.14-2.9-4.91-9.69-9.85-6.48-7.16,6.48-20.65,14-29.81,16.64C2.27,113.17,21.94,57.92,1.16,51.14c-3.82,3.58,3.05,8.64,2.98,12.86,3.1,14.4,3.28,49.87,26.08,35.38,29.96-8.33,36.18-34.8,51.41,6.82,46.79,108.29,87.15,219.77,142.02,324.76,36.51,75.11,65.35,154.28,112.09,223.79,41.17,67.46,83.26,175.47,157.6,205.67,68.68,32.83,89.09-4.08,130.5,12.46-12.24.83-38.81,22.49-26.38,30.74,4.57-13.64,20.22-28.66,34.7-24.58Z"/>
      <path class="cls-1" d="m606.85,908.26c.3,18.97-31.51,18.97-31.21,0-.3-18.97,31.51-18.97,31.21,0Z"/>
    </g>
  </g>
</svg>