<?xml version="1.0" encoding="UTF-8"?>
<svg id="Layer_1" data-name="Layer 1" xmlns="http://www.w3.org/2000/svg" viewBox="0 0 814.45 421.72">
  <defs>
    <style>
      .cls-1 {
        fill: #262262;
      }

      .cls-1, .cls-2, .cls-3 {
        stroke-width: 0px;
      }

      .cls-2 {
        fill: #2e3192;
      }

      .cls-3 {
        fill: #f15a29;
      }
    </style>
  </defs>
  <g id="Player2">
    <path class="cls-2" d="m389.06,238.41c11.22,1.41,47.28-6.54,52.76.31-7.92,7.81-19.61,15.98-28.13,24.71-4.14,2.42-7.42,10.27-12.83,7.74,8.44,51.39-46.09,115.42-94.41,70.95-29.25-21.04-17.32-89.64,25.54-72.27,19.59-16.41,57.58-28.43,6.72-23.67-.93,5.56.48,17.3-7.12,17.86-56.47-3.86-113.09-5.46-169.62-8.62-2.37.26-7.32-1.31-4.28-4.06,2.55-18.58-1.97-39.75-2.35-59.11-47.22,40.47-91.75,87.18-141.61,123.13,42.61-47.98,99.75-86.88,141.23-134.47-2.08-56.14-9.63-113.25-7-169.05.31-1.72,2.97-1.8,4.16-.2,25.91,33.56,52.31,66.74,78.34,100.21,8.19,7.66,16.97,27.63,27,29.72,5.49,1.2.05,5.03,1.04,7.93-16.56-5.83-36.77-.75-54.62-2.35-12.83,15.63-33.09,26.52-43.73,42.91,1.33,20.07,1.7,40.32,3.59,60.33,55.81,2.55,111.28,5.09,166.93,7.63.68-29.6-4.24-12.9,36.81-18.55,12.43,1.43,20.89-8.5,30.81-14.36,23.39-15.54,46.77-31.09,70.19-46.57,44.1-29.28,88.71-57.78,133.14-86.54,19.82-12.66,39.18-26.06,59.2-38.38,3.38-1.65,7.35-7.1,11.09-4.17-67.51,105.19-134.93,216.8-201.73,324.56,11.27-2.62,19.27-3.33,15.88-16.58-.27-2.91.11-7.26,3.9-7.19,4.85,1.62.22,13.86,1.14,18.61-.32,4.62-.3,4.67-4.94,6.01-7.18,3.14-17.09,2.22-22.2,8.71-9.25,12.21-15.3,28.01-26.22,37.97-1.4.71-3.04-.87-2.8-2.55.52-8.98-16.92-13.04-19.71-22.44-1-4.15,3.51-6.75,6.87-8.02,12.43-5.06,27.99-6.06,38.72-13.7,9.91-16.09,19.8-32.19,29.91-48.15,57.18-87.57,111.95-177.09,167.7-265.47-89.46,59.11-180.27,118.8-269.38,177.19Zm-53.75,33.57c2.04,3.93-1.95,8.9-4.6,3.99-4.03-4.03-13.5-6.26-18.49-2.65-43.83,32.75,18.93,103.31,57.56,65.58,20.34-15.88,29.77-41.86,28.26-67.26-.32-1.84,0-3.71,2.22-2.66,8.81-9.89,21.58-16.96,31.23-26.54-54.08.9-51.34-.53-96.19,29.53Zm-85.15-130.21c-33.83-41.28-66.64-83.59-100.08-125.02,3.19,54.23,6.37,108.38,9.58,162.89,42.49-36.78,31.9-38.22,90.5-37.86Zm204.93,242.67c-9.58.62-21.28,5.06-31.61,7.46,5.55,6.12,10.81,11.93,16.29,17.97,5.18-8.6,10.25-17.01,15.32-25.43Z"/>
  </g>
  <g id="Player1">
    <path class="cls-3" d="m299.9,72.64c-3.01-3.48-8.67-7.12-13.15-5.57-.79.5-1.4.49-2.11-.54,1.93-3.53,2.78-4.78,6.42-7.16,22.75-17.7,94.47-109.74,47.73-22.07,4.06-1.44,36.32-27.83,27.76-11.34-35.6,19.02-46.56,34.61-21.6-13.71-17.61,16.51-34.9,33.43-52.57,49.88,4.02,1.78,7.58,6.96,11.98,6.63,1.09-.22,2.28-.08,2.75.95-1.68,12.33-14.47,22.42-20.09,33.81-59.5,89.5-121.03,178.21-180.01,267.77,88.76-60.54,229.09-134.68,292.74-188.17-19.06,2.15-39.07.43-57.62,4.99-2.21,1.01-2.15,1.12-3.95-.72-.98-.82-2.65-1.28-2.19-2.92,16.92-6.38,32.04-20.05,47.75-30.5,3.17-1.38,7.64-7.28,10.95-4.42-6.93,13.53-30.25,20.26-41.59,32.09,21.84-3.04,45.77,1.08,66.5-6.22,6.57-4.33,13.38-8.29,20.06-12.39-.03-3.79.92-4.91,4.65-5.41,101.97-22.97,40.24-121.53-36.16-62.94-17.96,14.11-20.64,34.83-10.62,54.21-14.63-5.13-14.57-27.56-8.65-39.55,16.52-33.04,63.02-48,95.46-29.97,38.42,22.45,8.72,71.53-24.85,80.94-13.86,3.4-26.83,7.49-37.56,17.54,11.75-2.79,40.59,2.8,46.31-5.13.95-4.02-2.51-14.12,2.75-14.75,40.08-2.63,81.58-1.32,122.16-2.31,19.26-1.84,42.23,3.55,58.84-3,2.85.35,2.91,4,2.9,6.35.87,19.89,1.1,39.55,2.34,59.45,46.15-42.09,91.95-84.48,138.25-126.41,1.5-1.94,8.82-7.33,6.15-1.45-46.28,47.57-101.06,90.33-144.13,139.36,2.13,45.23,3.53,90.48,4.84,135.73-1.28,5.15,4.4,37.45-5.09,28.35-35.25-39.9-80.29-77.51-110.21-119.32,40,31.03,73.78,78.09,111.66,114.71-3.91-52.06-5.19-103.89-7.45-156.17-8.55,4.36-39.94,45.11-45.7,35.11-17.71,1.85-35.67,3.13-53.45,4.63-1.62.38-4.22.22-4.1-1.66.36-3.25,5.86-1.87,8.25-2.45,16.75-2.55,35.5.53,51.29-4.46,42.85-43.31,46.33-23.15,41.65-87.53-.33-6.19-.44-12.47-1.14-18.61-58.36,1.94-116.62,2.79-175.23,3.74.3,4.55,4.63,23.14-4.97,16.04-18.84,2.84-39.22.08-56.88,6.34-105.32,63.89-212.84,141.84-317.08,198.98,65.73-104.21,138.3-206.89,206.04-310.77Z"/>
    <ellipse class="cls-3" cx="801.44" cy="84.36" rx="13.01" ry="13.7"/>
    <ellipse class="cls-1" cx="13.01" cy="318.18" rx="13.01" ry="13.7"/>
  </g>
</svg>