<?xml version="1.0" encoding="UTF-8"?><svg xmlns="http://www.w3.org/2000/svg" viewBox="0 0 562.84 788.94"><g id="Player1"><path d="m235.9,687.31c2.5-154.6,12.51-142.07-105.08-243.61-2.95-140.69-9.71-86.57,100.05-179.84,18.32-.92,12.71-184.16,3.18-200.82C198.44-28.18,33.56-3.59,48.48,101.23c11.07,42.02,57.65,56.51,89.23,79.71,41.17,33.12,3.34,107.49-42.31,116.99C11.8,302.84-5.04,238.07,1.16,167.78c2.58-5.6-1.64-12.51,5.85-10.07,1.94,11.76-1.48,29.94.31,44.23-12.31,61.68,55.84,113.49,109.88,79.77,25.22-17.2,44.37-72.05,18.81-95.34-31.75-21.9-70.77-36.7-89.37-73.04C14,15.38,156.17-38.82,217.01,32.79c53.88,58.26,18.66,151.03,26.56,223.35-30.01,33.18-78.06,57.51-110.19,89.77-.75,98.27-5,93.36,69.46,158.81,11.52,11.07,24.8,24.54,35.8,33.14,1.89,49.84-2.17,101.39,1.08,150.4,4.43,5.5-5.34,5.75-8.93,5.28-37.74-.46-75.49-1.35-113.24-1.29-48.67,1.42-102.62-18.67-82.68,47.1,28.54,7.14,231.93-13.01,213.14,20.07-3.67,13.09-5.59-7.18-5.3-11.7-70.17-.35-140.29-.67-210.45-1.49-11.19-2.93-2.76-51-.97-61.66,66.04,4.55,136.83,1.2,204.59,2.77Z" fill="#009444" stroke-width="0"/><path d="m258.14,775.18c.23,16-24.89,16-24.66,0-.23-15.99,24.89-16,24.66,0Z" fill="#009444" stroke-width="0"/></g><g id="Player2"><path d="m322.63,748.23c-1.7,5.26,1.6,21.7-5.46,17.87,0-4.89-4.5-26.02,3.98-23.93,64.99,4.21,132.18-.02,197.91,2.16-2.43-52.37,8.74-57.73-49.56-53.65-47.35-.64-94.99.63-142.2-1.85-8.94-180.1-29.41-126.57,96.71-251.49,8.62-31.04-2.14-69.56-.26-103.08-31.48-26.63-78.88-51.57-102.25-79.67,3.28-50.81-.31-106.58,5.55-157.92,19.81-44.7,56.83-103.27,113.62-93.17,125.29,33.88,105.94,123.53-3.58,165.11-52.99,49.15.58,149.34,72.82,123.64,53.4-10.74,47.2-88.3,44.59-130.98,14.65-7.51,6.46,65.82,2.02,77.47-3.44,54.55-57.39,72.32-103.15,52.03-40.97-16.09-48.65-75.32-32.36-111.39,18.65-31.25,58.73-31.12,83.19-55.16,56.08-56.73-27.12-127.75-87.62-117.15-44.86,9.55-65.67,51.12-86.78,87.58-.92,52.96-.26,108.2-5.61,161.36,30.87,26.24,83.26,57.69,103.72,81.19-3.2,44.48,20.4,98.11-24.66,126.01-23.25,27.32-60.82,48.91-76.45,79.66,7.7,25.43-5.97,143.42,16.1,140.53,58.6-.42,118.44,5.28,176.38,3.09,13.19,5.29,2.25,38.27,5.55,52.67,8.31,25.86-174.56,5-202.22,9.08Z" fill="#f15a29" stroke-width="0"/><path d="m332.12,776.95c.23,16-24.89,16-24.66,0-.23-15.99,24.89-16,24.66,0Z" fill="#f15a29" stroke-width="0"/></g></svg>