<?xml version="1.0" encoding="utf-8"?>
<!-- Generator: Adobe Illustrator 28.0.0, SVG Export Plug-In . SVG Version: 6.00 Build 0)  -->
<svg version="1.1" xmlns="http://www.w3.org/2000/svg" xmlns:xlink="http://www.w3.org/1999/xlink" x="0px" y="0px"
	 viewBox="0 0 792.3 947.8" style="enable-background:new 0 0 792.3 947.8;" xml:space="preserve">
<style type="text/css">
	.st0{fill:#006838;stroke:#006838;stroke-miterlimit:10;}
	.st1{fill:#006838;}
	.st2{fill:#F15A29;}
</style>
<g id="Player2_00000053503533999975829470000008085224156528239016_">
	<g id="Player2">
		<path class="st0" d="M790.6,943.9c-32-51.4-52.5-117.5-78.2-174.8c-2.3-9.9,3.8-27.6,9.5-35.7c-4.7-9.4-6.2-19.9-18.9-17.5
			c-29.2-3.6-52.2-27.5-69-50c-5-18-66.8,28.2-83.7,32c-51.1,25.2-102.4,49.9-153.1,75.7c-2.6,1.1-6,2.8-6.6-1.4
			c-18.3-36.7-36-73.7-53.4-110.8c-33.3-70.3-66.6-140.7-99.5-211.2c-1.5-5.2-12.9-18.5-3.3-18.9c44.8-19.6,89.2-43,134-63.7
			c0.9-7.8-15.5-20.1-17-31.5c-16.5-46.7-22.5-99.7-21.4-147.9c-10-7.7-71.5-27.4-67-35.5c3.5-21.8,15.6-44.7,36.4-54.5
			c-53.2-1.5-100.1,55.4-80.3,106.9c13.5,27.5,30.3,53.6,43.4,81.3c-22.4,12.4-54,29.1-79.4,44c-7.4,1.9-66.9,42.6-57.3,24.7
			c38.9-26.3,96.8-45.3,127.4-73.4c-13.3-22.7-23.4-49.2-37.8-70.2c-18.6-24.8-6.3-64.3,13.1-86.4c19.4-24,49.5-33,79.4-31.1
			c3.8-1.7,13.5-3.3,13.7,2.6c-0.2,2-2.4,3.4-4.7,3.1c-8-2.4-14.2,4.7-21,7.6c-16.8,9.4-26.4,28-28.5,46.7
			c21.9,13.9,53.1,19.7,70,38.7c8.5,56.5,2.2,122.5,39.9,169.6c2.9,1.2,17.4-9.4,13.7,0.1c-2,0.9-1.9,2.6-2.1,4.3
			c-10.2,40.6,97.5,92.1,48.7,124.1c-14.5,6.8-34.1,2.5-46.8-6.6c-5.5-2.9-9.5-10.4-15.8-10.7c-6.7-1.1-0.3-14.1-1.1-19.2
			c2-23.5,7.5-47.5,8-70.8c-10.3-30.3-114.7,44.2-145.2,50.2c52.5,111.7,105,223.5,155.9,336.5c78.4-38.2,156.7-76.4,235.3-114.7
			c-2-4.9-14.5-32.8-1.1-28c14.7,4.2,67.3-15.8,76.1-7.4c-5.2,8.7-23.1,5-32.6,8.4c-14,1.8-27.5,3.1-41.7,3.8
			c0.8,5.6,1.9,21.4,8.8,18.7c19.5-9.1,40.2-18.6,58.1-29.8c0.3,1.4,0.8,2.5,0,2.9c-18.3,11-38.4,20.8-57.4,30.2
			c10.5,27.2,47,58.2,80.7,59.8c0.5,9,9.4,16.8,6.9,25.7c-2.1,9.8-13.7,20.2-7.3,29.2C743.3,826.9,770.9,884.3,790.6,943.9
			L790.6,943.9z M386.3,391.9c-3.2,25.1-5.5,50.2-8.8,75.3c7,12.9,25.6,21.8,41,21.1C485.5,480.7,395.5,418.3,386.3,391.9
			L386.3,391.9z M381.2,367.6c2.9,5.7,3.4,4,3.8-1.6C383.5,366.6,382.5,367,381.2,367.6z"/>
		<ellipse class="st1" cx="115.5" cy="367.8" rx="18.2" ry="17.3"/>
	</g>
</g>
<g id="Player1_00000152959695903245338900000018309816780650743172_">
	<g id="Player1">
		<path class="st2" d="M396.8,163.7C453,272.1,508.7,380.6,564.1,489.4c-47.1,25.2-102.5,47.8-152.6,71.4
			c35.1,46.6,49,102.6,51.7,160.2c0,35.5,12,32.4,40,45c5.4,3.9,17.7,2.7,13.2,11.7c2.7,25.9-23.3,46.2-46.3,52
			c54.7,17,113.8-47.6,95.8-101c-7-28.9-30.7-56.4-42.3-85.4c40.4-20.5,90.5-48.6,134.1-72.5c15.4-11.8,22.7-2.2,2.9,5.1
			c-40.8,24.2-93,44.8-128.3,70.7c14.2,36.3,50.4,75.6,43.1,114.8c-7.4,34.9-35.1,64.2-69.5,73.4c-15.9,4.4-35.8,1.2-49-6
			c19.9-11,37.6-6.9,52.6-34.4c3.3-5.3,6.3-15.3,1.9-20.3c-15.8-8.1-35.4-14.3-49.5-22.4c-19.1-102.2-3.1-126.1-75-214.9
			c-15.7-23.5-43-39.5-53.2-66.2c-8.4-43.8,54.5-45.6,72.5-15.3c11.5,11.6-1.5,69.7-0.1,90.5c-5.1,24.1,30.7-6.2,41.6-7.7
			c37.2-16.6,74.3-33.5,111.7-49.8c-38.3-44.7-147.8-362.2-191.1-311.5c-71.2,34.3-142.3,68.5-213.5,102.8
			c-6.7,3.3,2.7,14.2,0.6,20.5c-5.2,9.3-22,5-31.5,7.6c-9.4-1.3-33.4,9-37.2-0.2c0.8-5.1,7.6-2.2,10.9-4.4c11-9.4,53.3-16.4,43-33.2
			c-12.7-24.7-37.8-46.8-64.9-53.7c-4.5-0.9-9.9-0.9-9.3-6.8c-9.6-14.2-1.8-29.4,1.1-44.6C55.7,110.7,18,58.6,0.8,3.9
			c-0.2-1.3-1.7-3,0.1-3.8c1.5-0.6,2,1.1,2.6,2.1c25.5,48,45.7,98.8,68.8,148c1.1,3.7,7.3,11.4-0.2,11.8c-3.1,8.7-3.1,20.1-5.2,29.9
			c-2.8,26.6,18.5,16.8,33.9,27c21.6,12,44.2,30.8,50.2,55.7C221.6,245,297.2,203,369.5,169.4C374.8,166.2,410.5,147.1,396.8,163.7
			L396.8,163.7z M401.7,549.2c2.9-25.8,1.7-54.4,4.4-81.1c2.2-17-23.7-25.1-37.2-26.9c-27.5-5.2-40.6,28.5-20.6,46.3
			C367.9,506.4,385.9,527,401.7,549.2L401.7,549.2z M144.1,284.9c-12.5,6.5-27.5,11.5-38.2,18.5
			C121.4,299.1,156.7,310.2,144.1,284.9z"/>
		<ellipse class="st2" cx="674.9" cy="562.2" rx="18.2" ry="17.3"/>
	</g>
</g>
</svg>
