<?xml version="1.0" encoding="utf-8"?>
<!-- Generator: Adobe Illustrator 28.0.0, SVG Export Plug-In . SVG Version: 6.00 Build 0)  -->
<svg version="1.1" xmlns="http://www.w3.org/2000/svg" xmlns:xlink="http://www.w3.org/1999/xlink" x="0px" y="0px"
	 viewBox="0 0 814.5 421.7" style="enable-background:new 0 0 814.5 421.7;" xml:space="preserve">
<style type="text/css">
	.st0{fill:#F15A29;}
	.st1{fill:#262262;}
	.st2{fill:#2E3192;}
</style>
<g id="Player1_00000120533996744546695930000017241709439664143536_">
	<g id="Player1">
		<path class="st0" d="M299.9,72.6c-3-3.5-8.7-7.1-13.1-5.6c-0.8,0.5-1.4,0.5-2.1-0.5c1.9-3.5,2.8-4.8,6.4-7.2
			c22.8-17.7,94.5-109.7,47.7-22.1c4.1-1.4,36.3-27.8,27.8-11.3C331,45,320,60.6,345,12.2c-17.6,16.5-34.9,33.4-52.6,49.9
			c4,1.8,7.6,7,12,6.6c1.1-0.2,2.3-0.1,2.8,0.9c-1.7,12.3-14.5,22.4-20.1,33.8C227.5,193,166,281.7,107,371.3
			c88.8-60.5,229.1-134.7,292.7-188.2c-19.1,2.1-39.1,0.4-57.6,5c-2.2,1-2.1,1.1-4-0.7c-1-0.8-2.6-1.3-2.2-2.9
			c16.9-6.4,32-20.1,47.8-30.5c3.2-1.4,7.6-7.3,11-4.4c-6.9,13.5-30.2,20.3-41.6,32.1c21.8-3,45.8,1.1,66.5-6.2
			c6.6-4.3,13.4-8.3,20.1-12.4c0-3.8,0.9-4.9,4.6-5.4c102-23,40.2-121.5-36.2-62.9c-18,14.1-20.6,34.8-10.6,54.2
			c-14.6-5.1-14.6-27.6-8.6-39.6c16.5-33,63-48,95.5-30c38.4,22.4,8.7,71.5-24.9,80.9c-13.9,3.4-26.8,7.5-37.6,17.5
			c11.8-2.8,40.6,2.8,46.3-5.1c1-4-2.5-14.1,2.8-14.8c40.1-2.6,81.6-1.3,122.2-2.3c19.3-1.8,42.2,3.6,58.8-3c2.8,0.4,2.9,4,2.9,6.4
			c0.9,19.9,1.1,39.6,2.3,59.4c46.2-42.1,92-84.5,138.2-126.4c1.5-1.9,8.8-7.3,6.2-1.4c-46.3,47.6-101.1,90.3-144.1,139.4
			c2.1,45.2,3.5,90.5,4.8,135.7c-1.3,5.1,4.4,37.5-5.1,28.4C622,354.1,577,316.5,547,274.7c40,31,73.8,78.1,111.7,114.7
			c-3.9-52.1-5.2-103.9-7.5-156.2c-8.5,4.4-39.9,45.1-45.7,35.1c-17.7,1.9-35.7,3.1-53.5,4.6c-1.6,0.4-4.2,0.2-4.1-1.7
			c0.4-3.2,5.9-1.9,8.2-2.5c16.8-2.5,35.5,0.5,51.3-4.5c42.8-43.3,46.3-23.1,41.7-87.5c-0.3-6.2-0.4-12.5-1.1-18.6
			c-58.4,1.9-116.6,2.8-175.2,3.7c0.3,4.6,4.6,23.1-5,16c-18.8,2.8-39.2,0.1-56.9,6.3c-105.3,63.9-212.8,141.8-317.1,199
			C159.6,279.2,232.2,176.5,299.9,72.6L299.9,72.6z"/>
		<ellipse class="st0" cx="801.4" cy="84.4" rx="13" ry="13.7"/>
		<ellipse class="st1" cx="13" cy="318.2" rx="13" ry="13.7"/>
	</g>
</g>
<g id="Player2_00000109735891585552946620000010827544069012841882_">
	<g id="Player2">
		<path class="st2" d="M389.1,238.4c11.2,1.4,47.3-6.5,52.8,0.3c-7.9,7.8-19.6,16-28.1,24.7c-4.1,2.4-7.4,10.3-12.8,7.7
			c8.4,51.4-46.1,115.4-94.4,71c-29.2-21-17.3-89.6,25.5-72.3c19.6-16.4,57.6-28.4,6.7-23.7c-0.9,5.6,0.5,17.3-7.1,17.9
			c-56.5-3.9-113.1-5.5-169.6-8.6c-2.4,0.3-7.3-1.3-4.3-4.1c2.6-18.6-2-39.8-2.4-59.1c-47.2,40.5-91.8,87.2-141.6,123.1
			c42.6-48,99.8-86.9,141.2-134.5c-2.1-56.1-9.6-113.2-7-169.1c0.3-1.7,3-1.8,4.2-0.2c25.9,33.6,52.3,66.7,78.3,100.2
			c8.2,7.7,17,27.6,27,29.7c5.5,1.2,0,5,1,7.9c-16.6-5.8-36.8-0.8-54.6-2.4c-12.8,15.6-33.1,26.5-43.7,42.9
			c1.3,20.1,1.7,40.3,3.6,60.3c55.8,2.6,111.3,5.1,166.9,7.6c0.7-29.6-4.2-12.9,36.8-18.6c12.4,1.4,20.9-8.5,30.8-14.4
			c23.4-15.5,46.8-31.1,70.2-46.6c44.1-29.3,88.7-57.8,133.1-86.5c19.8-12.7,39.2-26.1,59.2-38.4c3.4-1.7,7.3-7.1,11.1-4.2
			C604.4,154.7,537,266.3,470.2,374c11.3-2.6,19.3-3.3,15.9-16.6c-0.3-2.9,0.1-7.3,3.9-7.2c4.9,1.6,0.2,13.9,1.1,18.6
			c-0.3,4.6-0.3,4.7-4.9,6c-7.2,3.1-17.1,2.2-22.2,8.7c-9.2,12.2-15.3,28-26.2,38c-1.4,0.7-3-0.9-2.8-2.5c0.5-9-16.9-13-19.7-22.4
			c-1-4.1,3.5-6.8,6.9-8c12.4-5.1,28-6.1,38.7-13.7c9.9-16.1,19.8-32.2,29.9-48.1c57.2-87.6,111.9-177.1,167.7-265.5
			C569,120.3,478.2,180,389.1,238.4L389.1,238.4z M335.3,272c2,3.9-2,8.9-4.6,4c-4-4-13.5-6.3-18.5-2.6
			c-43.8,32.8,18.9,103.3,57.6,65.6c20.3-15.9,29.8-41.9,28.3-67.3c-0.3-1.8,0-3.7,2.2-2.7c8.8-9.9,21.6-17,31.2-26.5
			C377.4,243.3,380.2,241.9,335.3,272L335.3,272z M250.2,141.8c-33.8-41.3-66.6-83.6-100.1-125c3.2,54.2,6.4,108.4,9.6,162.9
			C202.2,142.9,191.6,141.4,250.2,141.8L250.2,141.8z M455.1,384.4c-9.6,0.6-21.3,5.1-31.6,7.5c5.5,6.1,10.8,11.9,16.3,18
			C444.9,401.3,450,392.9,455.1,384.4z"/>
	</g>
</g>
</svg>
