<?xml version="1.0" encoding="utf-8"?>
<!-- Generator: Adobe Illustrator 28.0.0, SVG Export Plug-In . SVG Version: 6.00 Build 0)  -->
<svg version="1.1" xmlns="http://www.w3.org/2000/svg" xmlns:xlink="http://www.w3.org/1999/xlink" x="0px" y="0px"
	 viewBox="0 0 668.8 642.5" style="enable-background:new 0 0 668.8 642.5;" xml:space="preserve">
<style type="text/css">
	.st0{fill:#009444;}
	.st1{fill:#F7941D;}
</style>
<g id="Player1_00000108995648682577715380000014278238358732889757_">
	<g id="Player1">
		<g>
			<path class="st0" d="M33.8,415.2c0.6-10.5,41.1,13.3,32,18.5c-3,15,20.2,57.6,12.1,71.1c-7.1-0.6-5.9-13.9-8.4-19.4
				c-7-23.1-1.8-53.1-27-64.8c-1.7,11.7-4.4,23.5-4.8,35.3c10.6,19.2,21.3,38.3,30.7,58.1c23.9,20.5,61.1,12.6,87.9,1.3
				c8.8-3.2,12.9-9.9,17.4-17.2c14-15.4,32.4-27.8,53.5-29.9c57.9-3.9,30.5,49.3,119,0.5c54.4-43.1-4.8-14.1-41.3-87
				c-20.4-37.3-38-111.5,14.4-129.4c32-2.5,65.5,4.7,96.9,0.6c17.4-10.3,15.7-35.2,13.2-52.7c-2.6-17.7-11.4-39.1-27.5-47.4
				c-50.5-16.4-83.9-86.2-53.2-133.2c41.5-50.9,109.1,7.4,116.7,57.3c8.8,23.4-11.2,41.5,13.4,52.9c6.8-25.3,20.2-50.6,42.7-65.2
				c9.8-2.1,12.7,15.7,16.9,22.3c17.5,54.9,27,115.5,18,172.8c14.6,5.9-6.4,55.2-15.4,63.6c-19.9,27.4-51.4,43.2-75.3,66.8
				c3,8-5.4,15.5-7,23.3c-10.9,28.4-9.3,70.5,24.5,81.8c23.5,11.9,40.7-7.4,61.9-14.5c17.2-6.2,35-10.2,53.2-11.8
				c18.3-0.6,44.9-1.9,55.4,15c0.6,45.2,1.5,90.4,1.7,135.6c-1.7,20.5-3.9-11.3-3.4-17c-0.8-39.1-1.5-78.3-2.3-117.4
				c-12.3-13.8-36.3-10.9-53.5-10.3c-30.5,1.7-59,15.7-85.1,28.7c-35.6,3.4-71.1-21-69.9-59.4c2.8-93,109.4-83,111.8-184.5
				c2.8-63.4-3.3-131.7-32-189.1c-17.2,15.6-28,36.4-34.6,58.4c-1.9,3.7,0.7,12.3-4.9,12.9c-2,0-3.5-1.5-3.5-3.7
				c0.3-2.1,0.8-4.2-1.5-5.5c-4.2-4.9-15.5-7.8-14.8-14.7c5.1-21.4,1.4-44.2-8.8-63.5c-16.4-39.8-84.5-71.4-103-17
				c-12.7,40,10.3,81.2,41.5,105c4.4,5.7,15,4.1,18.6,10.4c10.4,10,18.7,23,22.9,36.8c21.2,95.5-40.5,65.6-104.4,70.4
				c-31.7-7-37.5,40.8-33.9,63.8c7.1,45.3,34.1,95.3,79.9,110.2c6.7,2.5,1.1,6.8-1.1,9.8c-3.8,11.3-11,20.9-20.5,28.1
				c-20.9,16.3-47.1,26.6-73.8,25.9c-21.5-17.7-50.9-29.5-77.5-11.1c-18.2,11.5-31,29.7-51.4,37.8c-25.7,10.1-58.3,16.8-83.3,2.1
				c-8.5-21-23.8-41-33.6-62.6"/>
			<path class="st0" d="M33.2,464.3c6.5,13.9,14.3,27,22.3,40c2.6,4.2,5.2,8.4,7.8,12.6c0.4,0.7,0.7,1.8,0.6,2.6
				c-0.7,3.2,0.6,5.6,3,7.5c3.4,2.7,7.3,4.5,11.5,5.5c7,1.7,14.2,2.7,21.4,2.8c17.5,0.1,34.3-3.5,50.4-10.3
				c8.4-3.5,16.1-8.1,22.3-14.9c0.4-0.4,0.9-0.9,1.4-0.9c2.9-0.5,4.6-2.5,6.5-4.4c6.4-6.6,13.2-12.8,21.2-17.6
				c8.1-4.8,16.6-8.3,26.1-9.2c6.8-0.6,13.4,0,20,2.1c8.8,2.8,16.7,7.2,24,12.8c0.6,0.4,1.2,1,1.4,1.7c1,2.9,3.2,3.7,6,3.8
				c9.4,0.3,18.5-0.6,27.6-3.1c16.9-4.6,32.5-11.7,46.1-22.8c6.4-5.2,12.2-10.9,16.1-18.2c1.7-3.1,3-6.5,4.4-9.9
				c0.4-1.1,0.8-2,2-2.5c1.6-0.7,2.4-2.2,2.1-3.9c-0.2-1.8-1.3-3-3.1-3.4c-9.5-2.1-17.6-7-25.2-12.7c-13.3-9.9-23.6-22.5-32.3-36.5
				c-11.7-18.8-19.5-39-22.4-61c-1.7-13-1.7-26,2.6-38.6c2.5-7.4,5.6-14.5,11.1-20.3c2.5-2.6,5.3-4.9,8-6.4
				c4.4,0.6,8.3,1.5,12.2,1.5c22.5,0,45-0.2,67.5-0.3c6.6,0,13.3,0,19.9-0.3c3.6-0.2,7-1.5,9.6-4.3c3.7-4.1,5.9-9.1,7.7-14.2
				c0.8-2.2,1.7-4.4,2.3-6.7c0.6-2.3,1.2-4.6,1.3-6.9c0.5-12.7-1.2-25.2-4-37.6c-0.9-3.9-2.4-7.6-4.4-11.1c-1.5-2.6-2.9-5.3-4.4-8
				c-3.6-6.4-8.2-12.1-13.5-17.2c-0.2-0.2-0.6-0.3-0.6-0.6c-0.9-2.8-3.4-3.2-5.7-4c-3.7-1.4-7.4-3.1-11-4.6
				c-0.9-0.4-1.5-0.9-1.9-1.9c-0.4-1.1-1.2-2.2-2.2-2.8c-7.9-5-14.3-11.6-20.2-18.7c-11.4-14.1-18.8-30.1-21.6-48
				c-1.9-12-1.5-23.9,2.4-35.5c1.9-5.6,4.7-10.8,8.4-15.4c8.5-10.5,19.8-14.8,33-14c8.5,0.5,16.6,3.2,24.1,7.3
				c16.5,9.1,28.8,22.5,37.5,39.1c5.8,11.1,9.5,23,10.7,35.5c0.9,9.4,0.3,18.8-1.9,28c-0.7,2.8-0.7,2.8,1.5,4.5
				c4.5,3.4,8.8,6.9,13.3,10.2c1.5,1.1,2.2,2.2,1.7,4.1c-0.1,0.4-0.2,0.9-0.2,1.4c0,2.2,1.4,3.7,3.5,3.7c1.9,0,3.2-1.4,3.5-3.4
				c0.4-3.2,0.5-6.5,1.4-9.5c2.1-6.5,4.2-13,7-19.2c5.6-12.3,12.6-23.8,22-33.8c1.7-1.8,3.5-3.4,5.6-5.4c1,1.3,1.8,2.3,2.4,3.4
				c4.1,7,6.7,14.7,9.1,22.4c7.3,22.6,12.8,45.7,16.2,69.2c3.3,23,5.4,46,5.4,69.3c0,8.2-0.8,16.5-1.2,24.8c0,0.3,0,0.6-0.1,0.9
				c-2.8,9.1-2.8,18.7-4.6,28c-2.7,13.6-8.9,25.3-17.2,36.2c-3.7,4.9-8,9.1-12.8,12.9c-5.4,4.2-10.5,8.7-15.2,13.7
				c-2.1,2.2-4.6,4.2-7.2,6c-7.4,5-14.5,10.5-21.1,16.5c-3.9,3.6-8,7-12,10.6c-2,1.9-3.8,4-5.5,6.1c-0.8,1-1.6,2.2-1.9,3.5
				c-0.7,3.1-2.5,5.7-3.8,8.5c-6.2,13.2-10.6,26.8-10.5,41.6c0.1,11.2,2.6,21.9,8.6,31.5c9.3,14.7,22.5,23.9,39.9,26.8
				c5.4,0.9,10.8,0.9,16.2,0.4c1.8-0.1,3.5-0.5,5.2,0.7c1.1,0.8,2.4,0.1,3.4-0.6c12.2-8.1,25.4-14,39.2-18.8s27.9-8.1,42.5-9.3
				c12.3-1,24.7-1.4,36.9,1.3c5.5,1.2,10.4,3.5,15.1,6.4c1,0.6,1.5,1.4,1.5,2.5c0.3,19.1,0.7,38.2,1.1,57.3
				c0.4,20,0.7,40.1,1.2,60.1c0.2,6.8,0.5,13.7,0.9,20.5c0.1,1.3,0.3,2.6,0.5,3.8c1.6,0.5,1.8-0.4,1.8-1.2c0.1-2,0.3-4,0.2-6
				c-0.1-15.2-0.2-30.4-0.4-45.6c-0.3-23.8-0.7-47.5-1-71.2c-0.1-6.3-0.2-12.5-0.3-18.8c0-1.7-0.3-3-2.2-3.5
				c-0.2-0.1-0.5-0.3-0.7-0.5c-5.2-5.7-12.3-7.7-19.5-9.3c-10.9-2.5-22-2.7-33.1-1.8c-18.3,1.6-36,5.5-53.2,11.8
				c-11.4,4.1-22.2,9.3-32.1,16.5c-1.7,1.2-3.4,1.8-5.5,1.8c-8.3,0.1-16.5-0.9-24.3-3.8c-16.3-6-25.9-17.8-29-34.7
				c-3-16.1-1-31.8,4.6-47c2-5.3,4.5-10.5,6.8-15.7c1.6-3.7,1.7-3.9,0.2-7.6c0.3-0.3,0.5-0.7,0.9-1c7.4-6.4,14.8-12.8,22.3-19.1
				c3.7-3.1,7.9-5.6,11.8-8.5c3-2.2,5.8-4.6,8.6-7c4-3.4,7.7-7.1,11.9-10.2c7.9-5.8,14.3-13,19.8-21c1.1-1.6,2.4-3.2,3.5-4.8
				c4.5-6.3,8.5-12.9,10.7-20.3c3.2-10.2,5.1-20.6,6-31.3c0.4-4.5-0.3-5.6-4.9-7.2c0.5-2.6,1.3-5.3,1.6-8c0.8-7.5,1.6-14.9,1.9-22.4
				c0.7-21.4-0.9-42.7-4-63.9c-2-13.2-4-26.5-6.5-39.6c-2.5-13.2-5.9-26.3-10.9-38.9c-2.8-7-6-13.8-10.3-20
				c-0.6-0.8-1.3-1.7-2.1-2.3c-1.4-1-3-1.1-4.5-0.1c-2.4,1.7-4.8,3.3-7.2,5.1c-7.7,5.9-13.5,13.6-18.7,21.7
				c-5.3,8.1-9.8,16.7-13,25.9c-1.5,4.1-2.5,8.3-3.8,12.5c-1.9-0.6-9.5-6.7-14.1-11.3c0.3-1.2,0.7-2.6,1-4
				c3.1-12.5,2.5-25.1-0.3-37.6c-5-22-15.6-40.9-31.9-56.5c-9.5-9.1-20.5-15.8-33.4-18.7c-20.7-4.7-38.1,0.9-51.4,17.9
				c-5.6,7.2-8.5,15.6-10.3,24.5c-2.9,14.8-1.2,29.3,3.1,43.6c5.5,18.2,15.2,33.8,29,47c4.5,4.3,9.7,7.6,14.8,11.1
				c0.7,0.5,1.6,0.9,2.4,0.8c1.8-0.2,3.1,0.6,4.5,1.3c3.2,1.6,6.4,3.3,9.7,4.8c1.9,0.9,3.4,2.8,5.8,2.7c0.6,0,1.3,1,1.8,1.7
				c4.1,5.4,8.4,10.8,11,17.2c0.5,1.3,1.2,2.6,2,3.8c4.5,6.7,5.9,14.3,6.8,22.1c0.3,2.4,0.5,4.7,0.8,7.1c1,6.7,1.3,13.5,0.3,20.2
				c-1.1,7.4-3.8,14.5-8,20.8c-0.3,0.5-0.6,1-1.1,1.3c-1.3,1-2.6,1.9-3.9,2.8c-0.4,0.3-1,0.2-1.3,0.5c-2.2,1.9-4.7,1.5-7.2,1.4
				c-26.2-0.9-52.4-1.7-78.6-2.5c-3.7-0.1-7.4,0.1-11,0.5c-1.9,0.2-3.9,0.9-5.7,1.6c-10.7,4.5-17.9,12.7-22.5,23.1
				c-3.5,7.9-5,16.3-5.6,24.9c-1.9,28.6,6.1,54.8,19.3,79.8c8.4,15.8,19.4,29.5,32.9,41.2c9,7.8,19,13.9,30.3,17.7
				c0.4,0.1,0.7,0.3,1.3,0.6c-0.1,0.7-0.2,1.4-0.4,2.1c-1.3,4-3.6,7.5-6.2,10.8c-4.8,5.8-10.4,10.6-16.5,14.7
				c-14.1,9.4-29.4,15.8-46.2,18.5c-7.1,1.1-14.3,2.3-21.5,1.7c-1.2-0.1-2.1-0.4-2.9-1.3c-12.8-14.9-29-21.2-48.4-19.3
				c-12.9,1.3-24.4,6.3-34.9,13.6c-6.8,4.7-13.1,10.1-18.6,16.4c-1.8,2.1-3.6,4.2-4,7.1c-0.1,0.7-0.8,1.5-1.4,2
				c-3.5,3.4-7.6,6-12,8.1c-9.8,4.7-20,7.7-30.7,9.3c-7.1,1.1-14.2,1.8-21.3,1.7c-8.4-0.2-16.9-0.7-24.7-4.6
				c-1.6-0.8-3.1-1.8-4.5-2.9c-1.6-1.2-3-2.5-5.1-3c-0.7-0.2-1.3-1-1.7-1.7c-5.6-11.1-11-22.3-16.8-33.3c-3.5-6.6-7.5-13-11.2-19.5
				c-1-1.7-1.9-3.5-2.7-5.4c-0.3-0.6-0.3-1.5-0.2-2.2c1.5-10.1,3-20.3,4.4-30.4c0.1-0.8,0.3-1.6,0.5-2.6c0.5,0.3,0.8,0.5,1.1,0.7
				c4.6,3.5,9.2,7,13.9,10.4c1.2,0.8,1.8,1.6,2.1,3.1c3.2,16.9,6.5,33.7,10,50.6c1.1,5.5,2.8,10.9,4.2,16.3c0.7,2.5,2.2,3.6,4.2,3.1
				c2.1-0.5,2.8-2.1,2.3-4.7c-3.8-21.5-9.7-42.5-15.4-63.6c-0.1-0.5-0.2-1.1-0.4-1.7c0.5-0.4,1-0.6,1.4-1c2-1.9,2.1-4.4,0-6.2
				c-1.1-1-2.4-1.9-3.7-2.7c-4.7-3-9.4-6-14.2-8.9c-2.5-1.5-5.5-1.8-8-3.6c-1.7-1.2-4-0.3-5.3,1.4c-0.3,0.5-0.5,1-0.8,1.5
				C33.5,431.6,33.3,447.9,33.2,464.3L33.2,464.3z"/>
		</g>
		<circle class="st0" cx="654.7" cy="628.4" r="14.1"/>
	</g>
</g>
<g id="Player2_00000118381613060023813450000011326457671565664422_">
	<g id="Player2">
		<g>
			<path class="st1" d="M633.7,426.3c-1-2.5-3.3-7.5-6.2-7c-7.8,5.1-21.3,7-25.9,15c-5.4,16.4-33.5,137.1-10.1,65.4
				c9.3-27.6,2.9-66,36.4-75.9c8.7,40.5-11.4,68.1-33.2,100.1c-17.5,14.7-45.6,10.8-66.8,6.9c-13.8-3.7-27.3-6.2-27.7-20.6
				c-23.3-34.9-80.6-51.3-111.8-17.9c-19.9,7.8-112.4-38.6-81.6-58.1c40.4-38.5,111.6-129.8,48.6-175.2
				c-30.5-10.7-71.3,9.5-99.9-3.3c-44.6-37.2-6.7-107,39.6-120.6c73.3-41.7,57.1-176.8-40.8-119.1c-79.7,59.4-19.1,101.6-63.7,120.2
				c-4.2-26-16.5-49.8-36.1-67.6c-39.4-23.3-48.2,206.8-32.2,234.6c3.7,16,13.4,23.5,26,34c27.4,31.2,68,67.5,66.8,108.6
				c12,32.4-26,62.3-56,53.5c-37.5-20.4-82.2-28.3-124.7-26.2c-7.7,2.5-24.1,0-25.7,9.1c1,23.3,0.1,46.7,0.7,70
				c0.5,10.2-1,89.5,5.3,65.8c6.4-23.1-9.9-142,11.6-138.6c43.6-2.9,89,6.6,127.8,26.4c74,10.4,93.8-44.6,54.1-100.6
				c-19-32-43.5-60.7-72.3-84.4c-5.7-4.2-7.5-12.6-9.8-19.3c-14.5-41.2-0.7-329,54.4-184.5c6,6,0.8,25.9,8.3,25.6
				c7.4-7.7,26.6-12.3,26.6-23.4C202.1,79.1,230.5,35,266.6,17.7c57.2-29.2,85.1,38.8,52.7,81.1c-12.1,19-29,33.6-50.5,40.9
				c-20.7,24.7-45.3,55.9-38.5,91.9c7.4,89.2,198.4-49.5,121,127.6c-13.6,23.8-29.7,46.6-49.3,65.9c-4,5.7-23.8,15.3-11.7,21.4
				c23,27.3,57.7,49.5,94.4,53.6c14.9-8,31.6-22.4,51.6-17.6c33.9,1.9,48,36.8,76.4,48.6c26.1,9.5,56.4,10.8,82.1-0.6
				c12.2-16.3,23.4-41,38.8-54.9"/>
			<path class="st1" d="M633.7,475.5c-15.3,13.9-26.6,38.6-38.8,54.9c-70.7,25.9-90.4-8.6-140.8-43.1c-45.7-21.5-54.5,22.4-88.9,9
				c-29.2-9.1-56.1-27.1-75-49.9c-12.1-5.9,7.7-15.9,11.7-21.4c34.3-38.8,85-96.9,60-151.4c-31.8-37.7-123.7,27.1-131.7-42.1
				c-6.8-35.9,17.8-67.2,38.5-91.9c33.4-11.5,59.4-42.4,64-77.5c8.3-69.6-80-58.1-104.2-11.6c-13.7,19.6-21.4,45.6-13.2,68.9
				c4.8,3.4-30.8,30.4-30.5,21.2c-48.4-199.7-83.9,122-53.4,174.4c32.9,33.8,72,68.3,88,115.1c32,37.2-14.3,88.8-57.7,76
				c-44.4-13.1-93.1-34.7-142.1-25.3c-8.6,25-0.5,63.1-3.7,92.3c-0.1,10.1-0.7,72.8-5.4,41.3c-1.4-44-0.8-88-1.8-131.9
				c12.4-15,45.1-8.5,64.4-8.1c31.3,3.3,62.2,12.2,89.8,26.6c54.1,4.6,65.2-52.1,44.2-88.7c-20.5-33.8-45.7-66-77.2-90.2
				c-2.8-5.2-4.6-11.8-7.6-18.6c-13.6-76.7-15.1-170.6,24.4-239.4c22.7,9.1,39.2,46.2,44,72.3c34.9-15.8,8.8-30.5,19.7-59.1
				c11.7-45.5,67.3-95.8,113.9-65.6c39.3,35.4,8.4,99.2-29.1,123.6c-15.3,9.6-31,10.9-40.1,28.2c-39.2,48.4-17.3,112.7,51,94.4
				c109.5-21.6,75.5,94.7,29.6,145.9c-12.2,14.5-25.4,27.4-39.2,40.4c20.6,24.2,50.3,42.6,81.5,49.2c9,2.7,13.4-4.4,19.7-9.2
				c33.6-22.1,81-5.6,102.6,26c0.3,14.3,14,17.1,27.7,20.6c47.4,12.3,71-2.8,91-45.6c16.1-17.2,8.5-39.2,8.9-61.4
				c-7.2,5.1-18.8,7.4-23,15.4c-1.3,16.4-30.7,129.7-19.9,61.2c7.2-22.7,9.9-49.2,19.5-70C648.9,400.8,629.7,447.6,633.7,475.5
				L633.7,475.5z"/>
		</g>
		<ellipse class="st1" cx="14.1" cy="625.6" rx="14.1" ry="14.8"/>
	</g>
</g>
</svg>
