<?xml version="1.0" encoding="utf-8"?>
<!-- Generator: Adobe Illustrator 28.0.0, SVG Export Plug-In . SVG Version: 6.00 Build 0)  -->
<svg version="1.1" xmlns="http://www.w3.org/2000/svg" xmlns:xlink="http://www.w3.org/1999/xlink" x="0px" y="0px"
	 viewBox="0 0 1042.1 522.4" style="enable-background:new 0 0 1042.1 522.4;" xml:space="preserve">
<style type="text/css">
	.st0{opacity:0.7;}
	.st1{fill:#F15A29;}
	.st2{fill:#F7941D;}
	.st3{fill:none;}
	.st4{fill:#006838;}
	.st5{fill:#2BB673;}
</style>
<g id="Player2_00000179604475732363355250000006975460741733505206_">
	<g>
		<g id="Player2" class="st0">
			<path class="st1" d="M8.1,207.2c-36.7-7.1,61.5-74.2,73.7-79.6C149.7,87,221.7,52.1,297.3,28.3c19.4-4.7,38.9-14.2,59-12.5
				c-1.3,0.4-2.4,0.8-3.6,1.1c4.3,6.8,6.1,16.5,12.7,21.1c9.9,1.3,21,10.8,30.5,6.4c40-27.4,92.5-36.6,139.3-23.6
				c33.3,8.2,66.6,38.3,57.1,75.4c-16.2,56.6-82.6,84.7-137.4,83.7c4.9,22.1,9.8,44.1,14.8,66.2c88.8-5.1,177.5-14.6,265.5-27.8
				c4.7-2,7.8,5.5,2.2,6.1c-88.4,12.4-177.3,21.3-266.5,26.5c79.6,365.2,69,358-8.1,0.5C382.2,253.9,46.3,274.1,8.1,207.2L8.1,207.2
				z M349,18.8C282.2,30.1,20.7,139.2,8.4,203.7c0.7-0.4,1.3-0.7,2.3-1.2c28.2,68.7,375.1,47,451,44.3c0.7-5.8-24.8-89.2-7.2-68.9
				c38.8-3.9,78.5-14.6,107.9-41.6c37.7-31.3,34-86-13.4-104.9c-48.7-20.6-107.4-9.6-150.9,18.4c-6.2,3.2-26.3-6.6-35-7.6
				c-1.7-0.5-3-1.1-3.2-3.1C356.7,32.2,352.6,25.7,349,18.8L349,18.8z"/>
		</g>
		<circle class="st2" cx="524" cy="515.5" r="5.7"/>
	</g>
</g>
<g id="Player1_00000121265373364995815590000008571591479615486855_">
	<g>
		<g id="Player1" class="st0">
			<path class="st3" d="M953.5,85.5C882,51.7,806.9,24,729.4,7.7C709.7,4.9,689.3-2.7,669.5,1c1.3,0.3,2.4,0.5,3.7,0.8
				c-3.7,7.2-4.5,17-10.6,22.2c-9.7,2.3-19.8,12.7-29.7,9.4C590.4,9.9,537.3,5.9,492,23.4C459.7,34.9,429.5,68,442.5,104
				c21.7,54.7,90.5,76.3,144.9,69.9c-2.7,22.4-5.5,44.8-8.2,67.4c-88.9,3.5-178.1,2.8-266.9-1.7c-5-1.6-7.1,6.2-1.6,6.3
				c89.2,3.7,178.5,4,267.8,0.4c-43.3,369-34.1,365.3,8.1-0.3c80.9-5.5,416.8-18.3,448-88.5C1070,146.6,967,90.2,953.5,85.5
				L953.5,85.5z"/>
			<path class="st4" d="M586.6,246c-41.9,363.4-51.7,371.5-8.1,0.3c-89.3,3.5-178.6,3.2-267.8-0.4c-5.7-0.1-3.3-7.9,1.6-6.3
				c88.8,4.5,178,5.3,266.9,1.7c2.8-22.6,5.5-44.9,8.2-67.4c-54.5,6.3-123.2-15.2-144.9-69.9c-13-36,17.2-69.2,49.5-80.6
				c45.3-17.5,98.4-13.5,140.9,9.9c9.8,3.4,20-7.1,29.7-9.4c6.1-5.2,6.9-15.1,10.6-22.2c-1.2-0.3-2.3-0.5-3.7-0.8
				c19.8-3.6,40.2,3.9,59.9,6.7C806.9,24,882,51.7,953.5,85.5c12.7,4.2,116.9,61.4,81.1,72.1C1003.2,227.9,666.9,240.5,586.6,246
				L586.6,246z M668.2,24.5c0,2-1.2,2.7-2.9,3.4c-8.6,1.8-27.7,13.6-34.1,11c-46.1-23.6-105.5-28.8-152-3.6
				c-45.3,23.4-43.6,78.2-3.1,105.7c31.9,24,72.5,30.8,111.5,30.9c15.5-22-1.8,63.5-0.5,69.3c75.8-4.7,423.1-16.9,444.6-88
				c1,0.4,1.6,0.7,2.4,1C1015.5,91.1,744.6,8,677.1,3.2C674.1,10.5,670.7,17.3,668.2,24.5L668.2,24.5z"/>
			<path class="st3" d="M677.1,3.2c-3,7.3-6.4,14.1-8.9,21.2c0,2-1.2,2.7-2.9,3.4c-8.4,1.8-27.8,13.7-34.1,11
				c-46.1-23.6-105.5-28.8-152-3.6c-45.3,23.4-43.7,78.2-3.1,105.7c31.9,24,72.5,30.8,111.5,30.9c15.5-21.9-1.7,63.2-0.5,69.3
				c75.2-4.7,422.8-16.8,444.6-88c1,0.4,1.6,0.7,2.4,1C1015.8,91.3,745,8,677.1,3.2z"/>
		</g>
		<circle class="st5" cx="551.2" cy="516.2" r="5.7"/>
	</g>
</g>
</svg>
