<?xml version="1.0" encoding="UTF-8"?><svg xmlns="http://www.w3.org/2000/svg" viewBox="0 0 664.05 795.53"><g id="Player1"><path d="m118.07,629.26c.59,2.53,2.68,3.8,2.69,6.31-4.67-1.28-7.35-7.08-12.24-7.26-18.3,1.15-35.5-2.79-51.53-11.63C1.1,586.1-9.37,512.28,7.63,455.83c10.29-63.11,81.3-106.07,60.03-112.78-40.33-25.24-57.23-54.64-55.03-102.7-1.42-55.46,9.36-112.13,28.18-163.97C68.41-8.59,219.37-31.79,265.71,53.86c28.22,67.05,3.95,151.96,15.03,220.16,83.93-4.19,234.88-1.52,275.03,86.44.52,26.76-.61,57.22,1.13,86.05,1.91,78.62,3.58,157.25,5.09,235.88-.08,3.96,3.69,12.25-3.57,9.6-1.18-40.83-1.66-84.89-2.76-126.87-4.77-68.93,4.13-140.64-8.13-208.04-41.34-66.5-135.06-72.36-206.11-77.53-21.01-.33-41.7-.03-62.68,1.9-.02,53.61,0,107.17-.08,160.78-1.31,111.62,1.76,223.66-2.16,335.08-4.96-164.54-.93-330.4-2.59-495.39-64.96,7.59-135.74,20.65-184.48,67.71,50.47,26.77,82.11,23.03,108.22,83.22,17.08,40.44,27.84,87.63,5.63,128.22-16.52,46.08-36.88,62.16-85.23,68.19Zm155.77-354.75c-2.01-64.5,3.93-130.23-1.26-193.46C253.87-16,106.23-16.12,60.76,50.24c-31.49,34.88-38.77,119.23-43.53,166.37-.79,61.16,2.91,87.63,56.27,122.58,14.87,19.14,26.76-14.82,44.88-20.22,47.19-27.51,101.63-38.93,155.46-44.48Zm-191.45,79.57c-110.38,77.43-105.27,317.46,69.85,261.6,25.21-6.5,33.87-33.62,44.38-54.49,28.71-52.65,5.02-114.73-26.37-160.47-22.57-25.81-60.27-27.81-87.85-46.65Z" fill="#009444" stroke-width="0"/><path d="m558.19,694.1c29.62-4.01,60.08-1.82,90-2.68,3.81.68,20.23-2.56,14.75,4.53-33.98.07-72.77,4.07-104.75-1.85Z" fill="#009444" stroke-width="0"/><ellipse cx="276.94" cy="782.52" rx="12.33" ry="13.01" fill="#009444" stroke-width="0"/></g><g id="Player2"><path d="m590.49,336.83c-24.67-44.44-62.27-83.78-111.54-99.53-21.63-18.12-70.42-35.04-95.11-29.41-3.55,189.62-.56,379.57-6.78,569.03-5.58-98.99.49-201.44-.32-301.58.74-89.53,1.46-179.05,1.86-268.58,1.09-4.57-5.87-2.63-8.79-3.58-72.11-7.54-265.47,9.95-256.6,109.98-1.26,128.2.63,258.64-3.82,385.74-34.14-5.98-77.4,4.31-109.39-5.35,16.81-7.73,45.1.62,65.24-1.24,26.84-2.99,44.48,15.34,40.42-20.15,1.01-114.56,2.07-229.13,3.61-343.68-2.84-37.43-5.1-54.99,29.68-81.1,68.17-50.03,163.4-50.67,239.8-50.35,3.08-39.57-5.74-80.96,4.99-119.37,33.63-94.3,169.12-91.86,224.83-19.45,30.18,30.46,27.97,71.66,29.84,110.95,6.28,42.83,5.84,87.27-13.73,126.71-5.15,14.49-8.56,30.87-22.81,39.32,15.65,47.85,40.72,113.23,40.53,168.33,22.1,68.07-65.56,166.55-137.79,119.2-84.08-70.26-90.31-155.6-14.52-234.61,31.18-21.63,69.59-28.78,100.42-51.28Zm-209.52-228.5c6.07,1.21,3.08,7.03,3.58,11.37-5.3,125.4-.69,58.09,89.38,107.83,117.68,34.47,116.2,162.55,146.08,67.88,20.06-39.4,20.75-84.07,14.73-127.09-4.76-19.37,6.03-43.86-5.28-59.49-28.71-119.83-234.86-137.29-248.49-.5Zm211.73,232.64c-30.42,22.61-68.47,29.93-99.5,51.21-62.89,69.61-67.43,128.52-10.25,203.31-1.49-.82-2.4-1.31-3.32-1.81,46.88,71.17,143.54,22.86,156.42-49.32,8.71-68.62-12.78-141.89-43.36-203.38Z" fill="#f15a29" stroke-width="0"/><ellipse cx="374.97" cy="781.13" rx="12.33" ry="13.01" fill="#f15a29" stroke-width="0"/></g></svg>