<?xml version="1.0" encoding="UTF-8"?>
<svg xmlns="http://www.w3.org/2000/svg" viewBox="0 0 492.45 563.28">
  <g id="Player1">
    <ellipse cx="128.38" cy="12.49" rx="9.8" ry="9.5" fill="#009444" stroke-width="0"/>
    <path d="m232.08,235.39c22.2-19,49.8-35.2,69-56,12.1,7.4,18.8,26.1,28.4,37.7,60.9-82.1,173.1-60.7,119,52.2-27.9,62.4-117.9,134-165.8,60.8-18.2-29-36.6-57.9-55-86.9-32.6,25.9-65,51.6-97.6,77.5,9.5,13.7,18.7,27.5,28.5,40.9-34.2,37.7-92.6,63.4-134.2,97.1,42-8.4,114.9-16.8,138.1,26-42.4-29-110.3-36.1-159.6-12.3-3.4.9-3.9-3.6-.9-4.8,49.4-33,98.4-66.7,148.5-98.7,17.4-4-27.7-43.6-24.6-50.9,109.5-97.8,124.4-39.8,43.3-168.5-24.6-36.9-45.4-78-71.4-113.1-8.8-15.5,4.7-45.7,24-33.6-50.5,2.8,0,60,12.4,80.8,33,50.8,65.3,101.4,97.9,151.8h0Zm69-50.5c-63.2,58.5-86.1,30.6-30.5,111.3,41.2,80,78.7,77.6,141,17.4,26.3-30,50.1-70.7,41.3-111.9-20.9-57.6-91.6-10.7-117.5,19.5-14.4,3.6-23.8-27.3-34.3-36.3h0Z" fill="#009444" stroke-width="0"/>
  </g>
  <g id="Player2">
    <ellipse cx="480.08" cy="177.19" rx="9.5" ry="10" fill="#f15a29" stroke-width="0"/>
    <g id="Player1-2" data-name="Player1">
      <path d="m410.68,218.69c24-3.1,100.2,1.4,71.3-40.1,21.5,7.7,6,37-11.6,39.6-43.6,1.2-88.8,10.1-133,13.5-151.3,15.5-96.4-8.5-105.9,138-3.9,6.9-62.8-4.2-55.2,12,5.7,59.2,9.4,118.5,13.8,177.8,1,3.1-2.9,5.5-4.3,2.2-11.7-53.5-59.1-102.6-108.1-118.1,48.1-8.2,86.4,54.4,105.7,92.7.9-53.7-14.9-115.4-6.3-165.6,16.6-.5,33.2-1.8,49.8-2.8.3-41.6.6-83.1.9-124.6-34.1,3.4-68.2,6.6-102.3,10.2-87.1,7.5-86.3-107.6-54.3-168,55.5-112.2,141.6-37,114.4,61.5,15.1.4,33.9-5.9,47.2-.9-4.6,27.9-.2,59.6-1.5,88.9,59.8-5.4,119.5-11.2,179.4-16.3h0Zm-231.9-73.8c7.8-39,1.1-123.7-57.1-104.6-37.8,18.5-55.2,62.5-62.6,101.6-9,86.2,12.2,117.1,100.6,100.3,97.8-6,61.7-6.8,68.8-92.6-13.5-2.8-43.7,8.8-49.7-4.7h0Z" fill="#f15a29" stroke-width="0"/>
    </g>
  </g>
</svg>