<?xml version="1.0" encoding="UTF-8"?><svg xmlns="http://www.w3.org/2000/svg" viewBox="0 0 303.07 514.2"><g id="Player1"><path d="m43.44,47.73c-.3-.07-.65-.21-1-.22-11.21-.3-22.4-.28-33.53,1.43-1.67.26-3.37.35-5.06.45-1.12.06-1.85-.68-1.48-1.84.51-1.6,1.19-3.22,2.15-4.58,2.61-3.67,6.02-6.58,9.67-9.17,8.23-5.85,17.15-10.13,27.22-11.65,3.3-.5,6.64-.57,9.88.4,1.92.57,3.55,1.48,4.79,3.3,1.04,1.54.89,2.61.13,4.11-1.72,3.37-3.28,6.83-4.86,10.27-.27.59-.36,1.25-.62,2.19,1.81.2,3.47.4,5.14.55,22.21,1.97,44,5.9,64.85,14.13,8.7,3.44,16.94,7.68,23.91,14.06.13.11.34.13.77.28,3-4.02,6.21-7.96,8.71-12.45,1.89-3.39,3.97-6.68,6.13-9.9,2.38-3.54,4.84-7.05,7.47-10.4,2.33-2.98,4.86-5.82,7.48-8.55,3.28-3.42,6.71-6.71,10.15-9.98,2.2-2.09,4.39-4.24,6.85-5.98,5.58-3.94,11.33-7.64,16.99-11.45.62-.41,1.19-.91,1.7-1.45,1.43-1.52,2.51-1.67,4.15-.41.52.4,1.01.89,1.37,1.43,4.58,6.87,9.02,13.82,12.16,21.52.74,1.82,1.83,3.52,2.85,5.22,5.15,8.55,11.37,16.35,17.28,24.37,2.83,3.84,6.05,7.3,10.1,9.93.78.5,1.45,1.23,2.03,1.96,3.52,4.4,7.69,8.06,11.99,11.69,6.01,5.07,11.53,10.72,17.28,16.09.67.62,1.44,1.2,2.27,1.56,1.87.8,2.6,3.11,1.45,4.79-.9,1.31-1.8,2.64-2.55,4.04-3.99,7.41-8.94,14.12-14.8,20.14-16.76,17.21-36.47,29.62-59.63,36.31-6.78,1.96-13.76,2.78-20.83,2.63-1.23-.03-2.47-.17-3.67-.45-.74-.18-1.4-.72-2.1-1.09.02-.23.04-.45.06-.68.82-.24,1.64-.68,2.47-.7,16.75-.26,32.05-5.55,46.55-13.48,14.95-8.17,28.47-18.18,39.41-31.4,3.7-4.47,7.12-9.13,9.76-14.33.47-.92.88-1.87,1.48-3.16-3.69-3.26-7.36-6.52-11.05-9.76-.57-.5-1.26-.84-1.85-1.32-3.81-3.13-7.61-6.27-11.41-9.41-.37-.3-.77-.56-1.12-.88-6.15-5.76-12.48-11.34-18.37-17.36-3.02-3.09-5.24-6.96-7.82-10.48-.78-1.07-1.55-2.16-2.31-3.24-2.36-3.32-4.61-6.73-7.1-9.94-4.88-6.29-7.23-13.96-11.45-20.6-1.72-2.71-3.5-5.39-5.32-8.2-.8.44-1.4.7-1.91,1.07-3.62,2.61-7.16,5.33-10.83,7.86-5.76,3.97-10.38,9.15-15.19,14.13-2.7,2.8-5.88,5.23-8.14,8.34-5.57,7.67-11.64,15-16.29,23.31-1.29,2.31-2.97,4.4-4.41,6.63-1.95,3.01-3.84,6.06-5.77,9.09-.5.79-1.03,1.56-1.76,2.66-1.04-.61-2.19-.97-2.87-1.74-4.48-4.98-10.11-8.26-16.02-11.15-10.11-4.94-20.74-8.37-31.65-11.03-14.87-3.63-29.93-6.1-45.21-7.16-.93-.06-1.88,0-3.1,0-.37,1.66-.78,3.29-1.09,4.93-2.96,15.76-3.1,31.53.29,47.23.87,4.05,2.43,7.97,3.96,11.84,1.16,2.91,2.92,5.54,5.37,7.62.29.24.56.52.79.81,1.01,1.33,1.03,3.04.06,4.2-.97,1.18-2.66,1.55-4.13.72-.89-.5-1.69-1.22-2.43-1.95-2.39-2.38-4.04-5.25-5.36-8.33-3.1-7.22-4.65-14.84-5.55-22.59-1.54-13.21-.92-26.35,1.59-39.4.32-1.67.68-3.33,1.02-5,.02-.08-.04-.18-.1-.39Zm7.93-18.22c-1.09-.33-2.13-.91-3.19-.93-2.54-.03-5.16-.13-7.62.38-9.43,1.93-17.87,6.16-25.68,11.72-.45.32-1,.5-1.5.75.17.2.34.4.52.6h31.24c2.05-4.12,4.02-8.09,6.22-12.52Z" fill="#009444" stroke-width="0"/><path d="m183.65,211.54c2.94,0,5.87,0,8.79,0,1.61,0,3.23,0,4.84.08.64.03,1.58.02,1.87.41,1.04,1.39,2.35,2.85,2.68,4.46.78,3.78.93,7.69,1.55,11.51,1.33,8.19,1.76,16.4.9,24.67-.24,2.26-.3,4.55-.45,6.82-.73,10.73-3.7,20.87-8.39,30.49-2.28,4.68-5.04,9.14-7.45,13.76-1.31,2.51-2.47,5.12-3.5,7.77-3.17,8.16-8.3,15.08-13.58,21.92-2.14,2.77-4.1,5.68-6.17,8.5-1.04,1.42-.91,2.79-.05,4.22,1.02,1.71,2.02,3.44,3.03,5.16,4.57,7.77,9.13,15.54,13.7,23.31.34.57.56,1.31,1.06,1.67,2.25,1.6,1.69,3.53.82,5.55-2.4,5.64-5.77,10.7-9.56,15.45-14.61,18.31-31.69,33.99-51.08,47.13-1.65,1.12-3.39,2.09-5.13,3.07-1.65.93-3.34,1.77-5.16,2.73,6.94,18.78,13.85,37.51,20.88,56.54,3.48.17,7.15.34,10.82.52.76.04,1.6-.05,2.24.26.59.29,1.31,1.01,1.34,1.57.03.52-.67,1.31-1.25,1.58-.73.35-1.65.41-2.5.43-4.18.11-8.35.22-12.53.24-2.83.02-3.32-.79-2.84-3.68.14-.84-.18-1.83-.53-2.65-3.51-8.3-7.15-16.54-10.59-24.87-3.59-8.68-7.01-17.42-10.47-26.15-1.22-3.08-.6-4.37,2.41-5.36.27-.09.59-.07.81-.23,6.8-4.98,13.78-9.74,20.35-15.01,15.61-12.5,30.03-26.23,42.13-42.23,2.22-2.94,3.99-6.21,5.95-9.35.84-1.34.68-2.52-.18-3.93-5.66-9.22-11.2-18.51-16.81-27.76-.64-1.05-1.4-2.02-2.13-3.01-1.5-2.03-1.12-3.93,1.2-4.71,1.15-.39,1.68-1.02,2.09-2.02,1.55-3.71,3.99-6.83,6.38-10.04,5.2-7,10.02-14.24,13.16-22.52,1.94-5.12,4.39-10.12,7.21-14.81,4.47-7.44,6.96-15.52,9.08-23.82,1.24-4.83,1.73-9.69,1.69-14.64-.01-1.61.2-3.22.33-4.83.79-10.03-.35-19.89-2.54-29.66-.27-1.2-.43-2.43-.71-4.01-1.25.06-2.54.1-3.82.18-3.79.24-7.58.5-11.37.73-.75.05-1.53.05-2.27-.07-1.23-.19-2.11-.89-2.31-2.17-.21-1.28.38-2.21,1.5-2.8.49-.26,1.01-.45,1.72-.75-.53-2.15-1.12-4.23-1.55-6.35-.45-2.21-.84-4.44-1.09-6.68-.21-1.88.02-3.82-.27-5.68-.46-2.89.38-5.39,1.56-7.94,1.38-3.01,2.8-6.05,3.69-9.22.76-2.7.81-5.59,1.14-8.41.08-.66.02-1.33.09-1.99.13-1.29.79-2.13,2.13-2.25,1.12-.1,5.19-3.8,5.19-2.49,0,3.59-2.57,11.86-3.39,15.28-.94,3.91-2.86,7.6-4.58,11.28-.98,2.11-1.59,4.19-1.71,6.52-.33,6.01-.11,11.94,1.64,18.26Z" fill="#009444" stroke-width="0"/><circle cx="60.86" cy="132.39" r="9.61" fill="#009444" stroke-width="0"/></g><g id="Player2"><path d="m250.4,38.26c.36-5.48-.09-10.55-1.67-15.49-.71-2.21-.51-2.52,1.74-3.1,1.62-.41,3.21-1.1,4.85-1.3,3.06-.37,6.05.21,8.96,1.19,12.11,4.09,22.5,10.9,31.39,20.02,1.53,1.57,3.03,3.02,5.14,3.9,2.48,1.03,2.92,3.38,1.33,5.31-.68.82-1.44,1.2-2.49.87-.45-.15-.9-.3-1.34-.48-10.08-4.14-20.66-5.58-31.46-5.75-2.56-.04-5.13-.02-7.69.02-.73,0-1.46.16-2.51.28.12,2.39.21,4.64.34,6.89.58,10.15.81,20.33-.38,30.43-.68,5.72-2.21,11.36-3.64,16.96-1.31,5.14-2.94,10.2-4.53,15.26-1.14,3.62-2.54,7.15-3.66,10.78-1.43,4.61-3.91,8.62-6.67,12.51-.22.31-.45.62-.73.87-1.2,1.1-2.69,1.22-3.9.35-1.21-.87-1.67-2.37-.85-3.8,5.43-9.39,7.85-19.94,11.17-30.08,2.91-8.88,5.43-18.04,6.21-27.43.62-7.46.51-14.98.62-22.47.05-3.21-.18-6.42-.29-9.93-2.28.2-4.42.31-6.55.58-22.98,2.83-45.03,8.92-65.74,19.36-6.08,3.07-11.79,6.89-17.67,10.36-1.61.95-3.23,1.87-5.07,2.93-.09,1.77-.73,3.66-3.11,4.1-2.36.44-3.63-1.19-4.75-2.93-3.22-5.04-6.24-10.22-9.68-15.1-10.16-14.38-21.34-27.91-34.02-40.15-3.34-3.23-6.78-6.36-10.33-9.36-1.64-1.39-3.62-2.36-5.5-3.56-.4.54-.67.82-.83,1.14-6.33,13.31-14.97,25.08-24.38,36.32-3.66,4.37-7.48,8.6-11.35,12.78-11,11.89-23.05,22.6-36.29,31.93-3.16,2.23-6.6,4.07-9.99,6.14,1.7,9.02,6.99,16.34,13.43,22.88,18.04,18.32,39.3,31.52,63.73,39.59,3.99,1.32,8.08,2.08,12.3,2.07.57,0,1.14,0,1.71-.05,3.93-.28,4.3-.66,4.49-4.94,1.35.86,2.55,1.64,3.79,2.43-.15,1.51-.3,3-.44,4.5-.3,3.39.25,6.61,1.94,9.61,1.73,3.06,3.35,6.17,5.11,9.21,1.33,2.3,1.9,4.72,1.69,7.36-.32,3.87-.58,7.75-.86,11.63-.11,1.58-.31,3.02.74,4.58,1.2,1.79.07,4.09-2.14,4.69-1.42.38-3.01.39-4.5.28-4.34-.34-8.66-.83-13.31-1.29-.58,2.75-1.31,5.39-1.67,8.09-1.46,10.81-2.92,21.62-4.14,32.46-.74,6.57.32,13.06,1.81,19.47.58,2.49.94,5.05,1.69,7.49.8,2.61,1.64,5.28,2.99,7.63,3.91,6.83,8.22,13.44,12.1,20.29,2.56,4.53,5.04,9.18,6.87,14.04,2.49,6.62,6.31,12.29,10.77,17.63.55.65,1.17,1.31,1.48,2.07.21.5,1.33,4.43,1,4.69-.48.37-2.59.38-3.17.19-.66-.22-1.23-3.68-1.72-4.24-5.17-5.96-10.1-12.03-13.07-19.53-2.77-6.99-6.69-13.43-11.16-19.47-4.15-5.61-6.94-11.98-10.53-17.9-.24-.4-.44-.86-.54-1.31-1.9-8.6-4.82-17.02-5.1-25.92-.12-3.97-.05-7.98.4-11.92.88-7.63,2.07-15.23,3.17-22.83.57-3.93,1.13-7.87,1.82-11.78.58-3.3,1.41-3.89,4.75-3.91.46,0,.97,0,1.37-.18,3.69-1.65,7.55-1.57,11.45-1.2,1.59.15,3.19.2,4.73.29.23-.45.46-.69.47-.94.24-4.64.44-9.28.68-13.92.09-1.78-.43-3.34-1.35-4.84-1.88-3.07-3.71-6.18-5.51-9.3-1.6-2.76-2.65-5.67-2.28-8.95.06-.54-.13-1.1-.2-1.68-9.6,2.1-18.7,0-27.39-3.36-24.03-9.26-44.91-23.32-62.18-42.51-2.77-3.08-5.15-6.59-7.28-10.16-1.37-2.31-2.14-5.04-2.83-7.68-.53-2.05.08-2.8,2.01-3.82.16-.09.43-.05.53-.17,4.66-5.36,11.11-8.45,16.41-13.02,21.2-18.27,39.81-38.83,55.48-62.02,3.67-5.44,6.78-11.2,9.17-17.33.31-.79.65-1.6,1.12-2.3,1.19-1.75,3.33-1.69,3.97.29.45,1.39,1.36,1.59,2.33,2.11,2.58,1.4,5.22,2.74,7.64,4.38,6.45,4.4,12.29,9.54,17.77,15.11,12.89,13.11,24.58,27.18,34.27,42.84,1.49,2.41,2.74,4.98,4.1,7.48,4.77-4.51,10.32-7.99,16-11.26,21.28-12.24,44.13-20.11,68.29-24.28,3.64-.63,7.3-1.12,11.12-1.71Zm6.28-.42c11.08-.57,22.03-.21,33.03,1.61-.18-.51-.55-.65-.84-.89-6.03-5.15-12.76-9.15-20.04-12.26-3.52-1.5-7.21-2.3-11.01-2.63-1.06-.09-2.15.13-3.05.19.65,4.82,1.26,9.28,1.9,13.97Z" fill="#f15a29" stroke-width="0"/><path d="m107,376.13c4.26,6.67,8.24,13.49,12.83,19.88,3.75,5.22,8.2,9.94,12.38,14.85,5.56,6.53,11.84,12.27,18.67,17.48,5.35,4.08,10.42,8.55,15.71,12.7,2.08,1.63,4.44,2.91,6.69,4.33.88.56,1.74.83,2.92.62,2.59-.46,4.12,1.4,3.44,4-.36,1.37-.91,2.69-1.34,4.04-3.9,12.29-7.72,24.61-11.74,36.86-1.77,5.39-3.95,10.65-5.92,15.98-.19.5-.42,1.18-.23,1.6,1.11,2.51-.15,3.95-2.12,5.15-.24.15-.46.33-.69.48-.07.05-.18.04-.49.1-1.05-1.72-2.93-1.55-4.7-1.63-2.37-.11-4.74-.15-7.12-.24-.66-.02-1.4.08-1.96-.19-.62-.3-1.43-.91-1.5-1.47-.09-.7.29-1.85.83-2.16,1.11-.63,2.45-1.02,3.73-1.15,3.77-.38,7.55-.58,11.43-.86,4.11-19.37,11.1-37.94,15.81-56.96-3.67-2.15-7.31-3.87-10.47-6.22-8.85-6.55-17.87-12.93-26.12-20.18-7.03-6.17-13.17-13.38-19.54-20.29-2.04-2.21-3.61-4.87-5.32-7.38-3.83-5.65-7.62-11.33-11.4-17.01-.68-1.02-1.31-2.09-1.93-3.15-1-1.73-.95-3.12.12-4.15,1.16-1.12,2.69-1.04,4.35.23.3.23.55.52,1.01.95.45-.63.91-1.18,1.27-1.79,4.94-8.21,9.86-16.44,14.8-24.65.39-.65.76-1.33,1.27-1.88.86-.91,1.89-1.24,3.06-.49,1.13.73,1.53,1.9,1.02,3.21-.2.52-.53,1.01-.83,1.49-4.97,7.98-9.92,15.96-14.92,23.91-.85,1.35-1.92,2.55-3.02,3.99Z" fill="#f15a29" stroke-width="0"/><circle cx="228.39" cy="138.56" r="9.61" fill="#f15a29" stroke-width="0"/></g></svg>