<?xml version="1.0" encoding="UTF-8"?>
<svg xmlns="http://www.w3.org/2000/svg" viewBox="0 0 635.01 961.93">
  <g id="Player1">
    <path d="m548.74,940.68c.3,19-31.5,19-31.2,0-.3-19,31.5-19,31.2,0Z" fill="#009444" stroke-width="0"/>
    <path d="m486.44,960.88c-9.2,4.3-3.6-5.7-5-10.5.9-18.4,11.8-38.3,28.7-46.5,59.1-92.4,4.5-171.4-40.4-253.3-70.6-129.7-159.8-246.2-242.2-368.5-47.4-70.1-108.9-129.4-152.6-201.9-1-4.2-6-9.1-.7-11.8,9.2-2.9,22.4-10.9,29.3-17.5C138.84,32.18,81.14,21.58,85.64.18c5-1.5,5.9,7,9.6,9,10.9,9.9,41.5,27.8,17.6,40.3-22.2,21.7-48.2,13.9-19.8,47.9,70.3,94.7,146.6,185.5,210,285.5,46.8,69.2,100.9,133.9,137.6,209.1,49.8,90.2,138.4,191.8,81.8,298-10.3,22.5-37,33-37.3,60.6,6.3-9.9,39.9-22.4,39.8-7.4-14-2.9-34.8,3.1-38.5,17.7h0Z" fill="#009444" stroke-width="0"/>
  </g>
  <g id="Player2">
    <g>
      <path d="m606.74,908.28c.3,19-31.5,19-31.2,0-.3-19,31.5-19,31.2,0Z" fill="#f15a29" stroke-width="0"/>
      <path d="m632.04,878.98c8.3-5.8-3.1-5.9-6.6-9.6-16.4-8.5-39-9-54.7,1.5-110.2,4.5-150.3-81.6-199-161.8-76.9-126-133.1-261.6-197.6-394.1-37-76.1-57.5-159-98.4-233.2-3.1-2.9-4.9-9.7-9.8-6.5-7.2,6.5-20.7,14-29.8,16.6C2.34,113.08,21.94,57.78,1.14,50.98c-3.8,3.6,3.1,8.6,3,12.9,3.1,14.4,3.3,49.9,26.1,35.4,30-8.3,36.2-34.8,51.4,6.8,46.8,108.3,87.2,219.8,142,324.8,36.5,75.1,65.4,154.3,112.1,223.8,41.2,67.5,83.3,175.5,157.6,205.7,68.7,32.8,89.1-4.1,130.5,12.5-12.2.8-38.8,22.5-26.4,30.7,4.5-13.6,20.2-28.6,34.6-24.6h0Z" fill="#f15a29" stroke-width="0"/>
    </g>
    <g>
      <path d="m606.74,908.28c.3,19-31.5,19-31.2,0-.3-19,31.5-19,31.2,0Z" fill="#f15a29" stroke-width="0"/>
      <path d="m632.04,878.98c8.3-5.8-3.1-5.9-6.6-9.6-16.4-8.5-39-9-54.7,1.5-110.2,4.5-150.3-81.6-199-161.8-76.9-126-133.1-261.6-197.6-394.1-37-76.1-57.5-159-98.4-233.2-3.1-2.9-4.9-9.7-9.8-6.5-7.2,6.5-20.7,14-29.8,16.6C2.34,113.08,21.94,57.78,1.14,50.98c-3.8,3.6,3.1,8.6,3,12.9,3.1,14.4,3.3,49.9,26.1,35.4,30-8.3,36.2-34.8,51.4,6.8,46.8,108.3,87.2,219.8,142,324.8,36.5,75.1,65.4,154.3,112.1,223.8,41.2,67.5,83.3,175.5,157.6,205.7,68.7,32.8,89.1-4.1,130.5,12.5-12.2.8-38.8,22.5-26.4,30.7,4.5-13.6,20.2-28.6,34.6-24.6h0Z" fill="#f15a29" stroke-width="0"/>
    </g>
  </g>
</svg>