<?xml version="1.0" encoding="UTF-8"?>
<svg xmlns="http://www.w3.org/2000/svg" viewBox="0 0 792.37 947.75">
  <defs>
    <style>
      .cls-1 {
        stroke: #006838;
        stroke-miterlimit: 10;
      }

      .cls-1, .cls-2 {
        fill: #006838;
      }

      .cls-3 {
        fill: #f15a29;
      }

      .cls-3, .cls-2 {
        stroke-width: 0px;
      }
    </style>
  </defs>
  <g id="Player1">
    <g id="Player1-2" data-name="Player1">
      <g id="Player1-3" data-name="Player1">
        <path class="cls-3" d="m396.78,163.73c56.2,108.4,111.9,216.9,167.3,325.7-47.1,25.2-102.5,47.8-152.6,71.4,35.1,46.6,49,102.6,51.7,160.2,0,35.5,12,32.4,40,45,5.4,3.9,17.7,2.7,13.2,11.7,2.7,25.9-23.3,46.2-46.3,52,54.7,17,113.8-47.6,95.8-101-7-28.9-30.7-56.4-42.3-85.4,40.4-20.5,90.5-48.6,134.1-72.5,15.4-11.8,22.7-2.2,2.9,5.1-40.8,24.2-93,44.8-128.3,70.7,14.2,36.3,50.4,75.6,43.1,114.8-7.4,34.9-35.1,64.2-69.5,73.4-15.9,4.4-35.8,1.2-49-6,19.9-11,37.6-6.9,52.6-34.4,3.3-5.3,6.3-15.3,1.9-20.3-15.8-8.1-35.4-14.3-49.5-22.4-19.1-102.2-3.1-126.1-75-214.9-15.7-23.5-43-39.5-53.2-66.2-8.4-43.8,54.5-45.6,72.5-15.3,11.5,11.6-1.5,69.7-.1,90.5-5.1,24.1,30.7-6.2,41.6-7.7,37.2-16.6,74.3-33.5,111.7-49.8-38.3-44.7-147.8-362.2-191.1-311.5-71.2,34.3-142.3,68.5-213.5,102.8-6.7,3.3,2.7,14.2.6,20.5-5.2,9.3-22,5-31.5,7.6-9.4-1.3-33.4,9-37.2-.2.8-5.1,7.6-2.2,10.9-4.4,11-9.4,53.3-16.4,43-33.2-12.7-24.7-37.8-46.8-64.9-53.7-4.5-.9-9.9-.9-9.3-6.8-9.6-14.2-1.8-29.4,1.1-44.6C55.68,110.73,17.98,58.63.78,3.93.58,2.63-.92.93.88.13c1.5-.6,2,1.1,2.6,2.1,25.5,48,45.7,98.8,68.8,148,1.1,3.7,7.3,11.4-.2,11.8-3.1,8.7-3.1,20.1-5.2,29.9-2.8,26.6,18.5,16.8,33.9,27,21.6,12,44.2,30.8,50.2,55.7,70.6-29.6,146.2-71.6,218.5-105.2,5.3-3.2,41-22.3,27.3-5.7h0Zm4.9,385.5c2.9-25.8,1.7-54.4,4.4-81.1,2.2-17-23.7-25.1-37.2-26.9-27.5-5.2-40.6,28.5-20.6,46.3,19.6,18.9,37.6,39.5,53.4,61.7h0ZM144.08,284.93c-12.5,6.5-27.5,11.5-38.2,18.5,15.5-4.3,50.8,6.8,38.2-18.5Z"/>
        <ellipse class="cls-3" cx="674.88" cy="562.23" rx="18.2" ry="17.3"/>
      </g>
    </g>
  </g>
  <g id="Player2">
    <g id="Player2-2" data-name="Player2">
      <g id="Player2-3" data-name="Player2">
        <path class="cls-1" d="m790.58,943.93c-32-51.4-52.5-117.5-78.2-174.8-2.3-9.9,3.8-27.6,9.5-35.7-4.7-9.4-6.2-19.9-18.9-17.5-29.2-3.6-52.2-27.5-69-50-5-18-66.8,28.2-83.7,32-51.1,25.2-102.4,49.9-153.1,75.7-2.6,1.1-6,2.8-6.6-1.4-18.3-36.7-36-73.7-53.4-110.8-33.3-70.3-66.6-140.7-99.5-211.2-1.5-5.2-12.9-18.5-3.3-18.9,44.8-19.6,89.2-43,134-63.7.9-7.8-15.5-20.1-17-31.5-16.5-46.7-22.5-99.7-21.4-147.9-10-7.7-71.5-27.4-67-35.5,3.5-21.8,15.6-44.7,36.4-54.5-53.2-1.5-100.1,55.4-80.3,106.9,13.5,27.5,30.3,53.6,43.4,81.3-22.4,12.4-54,29.1-79.4,44-7.4,1.9-66.9,42.6-57.3,24.7,38.9-26.3,96.8-45.3,127.4-73.4-13.3-22.7-23.4-49.2-37.8-70.2-18.6-24.8-6.3-64.3,13.1-86.4,19.4-24,49.5-33,79.4-31.1,3.8-1.7,13.5-3.3,13.7,2.6-.2,2-2.4,3.4-4.7,3.1-8-2.4-14.2,4.7-21,7.6-16.8,9.4-26.4,28-28.5,46.7,21.9,13.9,53.1,19.7,70,38.7,8.5,56.5,2.2,122.5,39.9,169.6,2.9,1.2,17.4-9.4,13.7.1-2,.9-1.9,2.6-2.1,4.3-10.2,40.6,97.5,92.1,48.7,124.1-14.5,6.8-34.1,2.5-46.8-6.6-5.5-2.9-9.5-10.4-15.8-10.7-6.7-1.1-.3-14.1-1.1-19.2,2-23.5,7.5-47.5,8-70.8-10.3-30.3-114.7,44.2-145.2,50.2,52.5,111.7,105,223.5,155.9,336.5,78.4-38.2,156.7-76.4,235.3-114.7-2-4.9-14.5-32.8-1.1-28,14.7,4.2,67.3-15.8,76.1-7.4-5.2,8.7-23.1,5-32.6,8.4-14,1.8-27.5,3.1-41.7,3.8.8,5.6,1.9,21.4,8.8,18.7,19.5-9.1,40.2-18.6,58.1-29.8.3,1.4.8,2.5,0,2.9-18.3,11-38.4,20.8-57.4,30.2,10.5,27.2,47,58.2,80.7,59.8.5,9,9.4,16.8,6.9,25.7-2.1,9.8-13.7,20.2-7.3,29.2,24.9,57.9,52.5,115.3,72.2,174.9h0ZM386.28,391.93c-3.2,25.1-5.5,50.2-8.8,75.3,7,12.9,25.6,21.8,41,21.1,67-7.6-23-70-32.2-96.4h0Zm-5.1-24.3c2.9,5.7,3.4,4,3.8-1.6-1.5.6-2.5,1-3.8,1.6Z"/>
        <ellipse class="cls-2" cx="115.48" cy="367.83" rx="18.2" ry="17.3"/>
      </g>
    </g>
  </g>
</svg>