<?xml version="1.0" encoding="UTF-8"?>
<svg xmlns="http://www.w3.org/2000/svg" viewBox="0 0 914.28 883.52">
  <g id="Player1">
    <ellipse cx="660.28" cy="428.12" rx="12.7" ry="10.9" fill="#f7941d" stroke-width="0"/>
    <path d="m610.78,418.72c12.6,4.7,30.7,4,41.3,10.3-25.8,2.9-50-15.4-76.8-3.2,14.9.3,19.4,11.9,33.5,12.1-17.3,3.8-29.7-12.3-48.5-9.9-40.4,0-44.4,22.1-61.4,20-6.9-8.5-15.1-13-25.5-13.1,12.7-5.5,31.6-3.1,46.7-6.1,8.2-1.5-18.4-.8-23-.7-14.6-3.5-30.9-6.9-43.9-15.1-4.6-2.9-15.6.6-19.2-3.5-24.5-29.6-62.2-49.5-101.9-52.9-6.4,5.2-7.5,41.2-7.4,52.1,2.9,3.1-1.8,5-4.3,6-4.7.8-8.1-.4-6.6-4.5-8.3-34.1-40.4-63.4-57.1-95.4-11.5-4-32,31.1-45.4,23.3C141.08,229.32,69.98,120.82,1.98,10.52-11.42-4.58,47.28,5.72,55.48,3.52c-2.7-3.6,4.1-4.5,5.8-2.4,27.8,39.5,57.9,89.8,86.9,133.4,33.7,52,67.8,104,101.4,156.1,12,25.1,10.4,1.8,22.3,12.1,16,16.1,24.5,59.4,49.5,49.7.5-9.9,6.7-22.4,3.7-31.1-3.1-2.9,5.6-3.4,7.3-2.2,36.8,21,70.3,54.6,103.1,79.4,9.5,12.7,31.2,10.9,46.1,9.7,1.4-15,20.1-23.4,47.3-27.1,29.9-3.9,81.9,3.1,93.2,28,4.1,8.9-4.1,8.5-11.3,9.6h0Zm-391.1-84.4c10-8.7,25.1-16.6,32-26.7-18.9-28.9-37.6-57.9-56.2-86.9C154.68,155.22,111.18,91.22,69.88,26.02,60.08-1.08,37.78,12.52,14.88,9.92c-13-1,8.8,18.6,11,25.5,66.3,98.8,128.3,199.6,193.8,298.9h0Zm277.2,91.9c23,4.4,41.1-5.3,60.2-17.3,12.5-2.5,52,17.9,56.1,3.3-16.9-37.2-104.1-36.6-125.2-5.3-.5.9-1.2,1.7.5,2.6-3,5.9-20.8.6-28.3,2.7,11.2,7.1,21.9,10.7,36.7,14h0Zm-188.6-67.7c-11.2,18-36.5-69.3-45.9-51.5,11.4,28.1,36.1,56.5,51.9,84.7,5.9-1.5,3.5-25.8,6.5-35-4.9.3-8.9.8-12.5,1.8h0Zm21.6-5.9c18.5.7,32.4,5.4,49.3,10.3-13.6-13.4-30.5-24.7-45-36.8-5.8.6-2.1,19.6-4.3,26.5Zm214.7,73.5c17.3-.5,33.8-3.7,50.1-7.1-17.6-5.7-37.4-9.6-50.1,7.1Zm-31.1,7.1c-8,.7-15.5,1.4-23.5,2.2,8,11.9,14.8,6.1,23.5-2.2Zm-71.5-24.6c-1.9,1,.5,1.3,1.9.9-.7-.4-1.2-.6-1.9-.9Z" fill="#f7941d" stroke-width="0"/>
  </g>
  <g id="Player2">
    <ellipse cx="207.68" cy="434.82" rx="13" ry="11.7" fill="#009444" stroke-width="0"/>
    <path d="m647.38,535.32c12.2-3.7,24.8-10.6,38.2-10.9,46.7,73.8,103.3,153.8,152.6,230,25.2,39.9,54,77.9,76.1,119.4-17.9,5.1-40.2,2.8-56.3,9.7-49-62.3-84.3-140.8-128.4-208.7-25.6-43.5-52.2-86.6-76.7-130.6-5.3-8.5-13.7.4-20.8,1.9-11.9.5-8.8-19.4-16.9-25.8-40.9-28.2-39.7-25.6-61.8,15.7-51.3-10.3-78.1-57.9-120.5-84.4-66.5-9.9-13.1,10.6-63.7,23.2-33.4,9.1-121.2,1.4-119.9-33.8-10.9-3.6-28.5-1.6-36.3-8,14.6-2.9,31.6,5.1,46.8,6.4,17.6-.1,35.1-3.1,52.6-5-19.8-1.1-25.8-15.5-45.5-17.5,27.3-3,43.3,18.9,70.2,14,15.6-4.9,33.3-23.4,49.9-15.6,7.8,6.5,18.4,10,26.7,11.3-11.1,6.5-32.6,2.7-46.4,6.3,33.2-.4,62.5,16,96.1,11.9,9.4-1.2,7.2,5.1,10.8,10.4,7.7,13.6,20.7,26.2,41.6,37.3,13.3,5.9,44.7,21.2,53.3,2.4.8-2.6,9.1-1,8.1-7.4,2-18-16.5-31.2-26.3-43.4,12.8-.7,25.7,6.2,38.4,8.4,16,1.4,14.9,20.1,21,31.5,7,22.3,12.8,43,37.1,51.3h0Zm261.5,335.7c-65.6-90.8-125.1-185.3-188.2-277.7-14.1-21.2-28-42.5-42.1-63.8-8.6-1.4-18.3,5.9-26.8,8.6,40.6,57.5,77.3,126.7,116.5,188.3,29.9,49.5,59.6,99,89.4,148.5,12.8,7.4,34.4-5.2,51.2-3.9h0ZM258.48,442.52c6.9,31.8,93.8,41.1,121.3,19.7,4-3.7,6.7-8.2,6-12.3.1-7.8,25-2,32.5-4.6-31.7-15.5-71.1-14.6-100.9,6.1-19.6.6-38.9-7.3-58.9-8.9h0Zm180.9,6.4c37.3,25.6,61.7,62.3,105.2,80.2,10.4,6.3,12.1-15.1,17.5-21.2-19.9,1.4-41.5-4.5-57.6-13.5-50-23.8-28.5-53-65.1-45.5h0Zm121-.7c49.2,42.1-4.2,40.8,53.4,66.5-6.8-19.3-14.5-38.4-21.4-57.6-9.4-4.9-21.6-5.7-32-8.9h0Zm-235.9-11.1c-16.9.7-36,2.4-52.6,4.6,19,4.6,36.3,8.3,52.6-4.6Zm73.8-11.2c-14.1-13.4-24.3-5-38.4,4,13.4-1,25.4-2.7,38.4-4Zm231.8,116c21.4-4.5,5.9-9.2-4.8-14.9,1.6,5.1,3.2,10,4.8,14.9Z" fill="#009444" stroke-width="0"/>
  </g>
</svg>