<?xml version="1.0" encoding="utf-8"?>
<!-- Generator: Adobe Illustrator 28.0.0, SVG Export Plug-In . SVG Version: 6.00 Build 0)  -->
<svg version="1.1" id="Layer_1" xmlns="http://www.w3.org/2000/svg" xmlns:xlink="http://www.w3.org/1999/xlink" x="0px" y="0px"
	 viewBox="0 0 698.6 792.2" style="enable-background:new 0 0 698.6 792.2;" xml:space="preserve">
<style type="text/css">
	.st0{fill:#009444;}
	.st1{fill:#F75D1D;}
</style>
<g id="Player1_00000018929348873185783030000015597793751808370612_">
	<g id="Player1">
		<g>
			<g>
				<path class="st0" d="M0,365.9c38.1-17.4,81.1-25.1,123.5-23.1c14.8-9.4,28.6-23.8,48.6-21.8c3.8-6.4,15.1,1.1,21.3,1.1
					c29.7,2.8,62.5,25.4,89.3,6c18.5-6.5,21.1-27.8,30.6-42.9c-2.9-4,1.9-4.2,4.7-5c34.9-7.1,70.3-15.8,105-21.9
					c70.3-67.8,61.9-71.5,90.5-162.3c27.7-61.1,1.4-84.1-47.6-34.4c-46.5,60.9-83.3,135.8-128.2,200.4c-12.3,11.5-3.5-14.4-2-19.9
					C357.3,162.3,385.1,77.8,404,0.6c359.2,11.9,407.6,36.5,7.6,1.6c-20.9,82.2-50.2,163.6-73.3,245.6
					c35.2-53.6,69.7-108,104.9-161.8c12.7-18.7,24-38.4,44.7-49.4c21.9-16.6,50.4,2.5,41.2,28.3c-13.3,38.4-25.3,77.4-38.3,115.9
					c-4.4,22.3-20.8,36.3-36.2,52c-30.4,42.4-74.9,37.1-121.1,48.4c-22.2-0.3-23.6,26.4-34.2,41.6c-5.6,9.1-18.7,10.2-27.2,16.5
					c108.7,24.6,217.5,48.4,326,74.1l-0.1-0.1c-87.4-9.7-227.3-49-332.1-69.5c-30.5,12.8-65.2,7.8-98.3,10
					c-14.6,0.4-24.4,1.9-37.3-5c-15.1,6.9-22.3,30.2-28,45.6c9.3,0.1,26.5,6.1,30.6-2c6.4,0.7,11.5,8.1,17.3,11.2
					c13.5,12.5,32.2,11.1,50,15.9c69.5,17.8,143.7,26.2,210.7,49.2c25,19.9,3.8,55.4-23.4,58.5c-7.4,5.1-19.3,0.9-28.2,2.2
					c-21.3-1.5-44.6,2.3-65-2c27.1-5.3,56.9-1.6,84.9-3.6c25.7,3.3,51.7-29.8,30.2-50.3c-71.5-29.4-155.9-33.7-231.7-54.7
					c-14.8,1.3-25.9-11.6-39.8-19.8c-11.8-1.5-24.7,1.1-37.1-1.4c-3.8,16.8-6.3,34.4,1.3,50.5c2.1,4.3-3.7,6.8-6.3,3.5
					c-8.4-15.4-6.2-34.4-2.2-50.9c3.5-7.9-43.3-8.3-53.5-14.7c-12.4,0.1-29.2-20.1-36.9-15.5C4.4,365.8-1,370.2,0,365.9L0,365.9z
					 M118.3,347.9c-37-1.2-75.5,2.8-109.4,18.3c24.5,19.4,56.5,24.1,86.8,27.3c5.5-16.6,13.5-31.7,25.1-45.4
					C119.5,348,118.9,347.8,118.3,347.9z M132.4,343.6c19.1,11.2,38.7,7.4,60.5,6c20.6-3.1,44.2,3.4,62.6-7.8
					C215.7,337,162.7,304.7,132.4,343.6z"/>
				<path class="st0" d="M194,767.3c77.5-0.5,163.2,19.1,243.4,24.8c41.2-44.4,71.9-106.4,109.6-156.7c1.1-1.2,3.4-5.4,0.1-4.1
					c-18.4,26.1-36.3,52.7-54.5,79c-18.3,26.7-36.5,53.4-54.8,80.1c-75.1-9.1-150.2-18.2-225.3-27.4c-38.2,9.3,59-156,62.5-184.3
					C340.4,414.6,197.6,741.2,194,767.3L194,767.3z"/>
				<path class="st0" d="M598,413.4c8.1-1.9,6-15.7,9.3-22.2c5.6-22.6,11.3-45.1,16.9-67.7c22.6-99.9,52.2-201.6,70.5-301
					C660,150.3,622.8,284.5,598,413.4C598.1,413.5,598,413.4,598,413.4z"/>
			</g>
			<path class="st0" d="M551.8,609.9c16.9-0.2,16.9,26.3,0,26C534.9,636.1,534.9,609.6,551.8,609.9z"/>
		</g>
	</g>
</g>
<g id="Player2_00000121254101320691094260000012649372980498257300_">
	<g id="Player2">
		<g>
			<g>
				<path class="st1" d="M698.6,368.2c-2.4-0.3-3.7-0.5-3.2,2.4c-6.9-4.8-25,15.8-36.9,15.5c-9.1,6-58,7-53.5,14.7
					c4,16.4,6.2,35.5-2.2,50.9c-2.6,3.3-8.3,0.8-6.3-3.5c7.5-16.1,5-33.7,1.3-50.5c-12.3,2.5-25.3-0.1-37.1,1.4
					c-13.9,8.2-24.9,21.1-39.8,19.8c-75.9,21-160.2,25.2-231.7,54.7c-21.4,20.5,4.4,53.7,30.2,50.4c28,2,57.8-1.7,84.9,3.6
					c-20.4,4.4-43.7,0.6-65,2.1c-9-1.3-20.7,2.8-28.2-2.2c-27.1-3.1-48.4-38.5-23.4-58.5c67.1-22.9,141.2-31.4,210.7-49.2
					c17.9-4.8,36.5-3.4,50-15.8c5.8-3.1,10.9-10.6,17.2-11.3c4.3,8,21.2,2.2,30.6,2c-5.7-15.4-13-38.6-28-45.6
					c-13,6.9-22.7,5.4-37.4,5c-33.1-2.2-67.8,2.8-98.3-10c-104.6,20.4-245.1,59.8-332.1,69.5l-0.1,0.1
					c108.4-25.7,217.3-49.5,326-74.1c-8.4-6.3-21.6-7.4-27.2-16.5c-10.6-15.2-12.1-42-34.2-41.6c-46.2-11.4-90.6-6-121-48.5
					c-15.4-15.7-31.8-29.6-36.2-52c-12.9-38.5-25-77.5-38.3-115.9c-9-25.6,19.2-45,41.2-28.3c20.7,11.1,32,30.7,44.7,49.4
					C290.5,139.9,325,194.4,360.2,248c-23-82.2-52.3-163.6-73.2-245.8c-402,35-349.6,10.2,7.6-1.6c18.9,77.2,46.7,161.6,68.2,241.4
					c1.4,5.5,10.3,31.4-2,19.9c-44.9-64.6-81.7-139.6-128.2-200.5c-14.7-18.3-56.5-45.7-61-5.8c15.4,44,28.9,89.9,43.4,134.6
					c12.9,26,42.7,43.6,60.5,67.8c35.8,6.3,72.2,15.1,108.1,22.6c2.9,0.8,3.2,1.5,1.7,4.2c3,5.9,6,11.8,9,17.7
					c4.9,11.1,9.3,21.1,21.7,25.2c26.8,19.4,59.6-3.2,89.3-5.9c6.4,0.1,17.3-7.6,21.3-1.1c19.9-2,33.8,12.5,48.6,21.8
					C616,342.3,666.2,346.2,698.6,368.2L698.6,368.2z M577.9,348.2c11.5,13.6,19.6,28.8,25,45.4c30.3-3.2,62.3-8,86.8-27.3
					C655.1,350.5,615.6,346.1,577.9,348.2z M566.4,343.4c-31.6-38.5-83.1-6.5-123.3-1.6c18.4,11.2,42,4.7,62.6,7.8
					C527.5,350.9,547.4,355,566.4,343.4z"/>
				<path class="st1" d="M504.7,767.3c-77.5-0.5-163.2,19.1-243.4,24.8c-41.2-44.4-71.9-106.4-109.6-156.7c-1.1-1.2-3.4-5.4-0.1-4.1
					c18.4,26.1,36.3,52.7,54.5,79c18.3,26.7,36.5,53.4,54.8,80.1c75.1-9.1,150.2-18.2,225.3-27.4c38.2,9.3-59-156-62.5-184.3
					C358.2,414.6,501,741.2,504.7,767.3L504.7,767.3z"/>
				<path class="st1" d="M100.6,413.4c-8.1-1.9-6-15.7-9.3-22.2c-5.6-22.6-11.3-45.1-16.9-67.7C51.8,223.7,22.3,121.9,4,22.6
					C38.6,150.3,75.8,284.5,100.6,413.4C100.5,413.5,100.6,413.4,100.6,413.4z"/>
			</g>
			<path class="st1" d="M146.9,609.9c16.9-0.2,16.9,26.3,0,26C130,636.1,130,609.6,146.9,609.9z"/>
		</g>
	</g>
</g>
</svg>
