<?xml version="1.0" encoding="utf-8"?>
<!-- Generator: Adobe Illustrator 28.0.0, SVG Export Plug-In . SVG Version: 6.00 Build 0)  -->
<svg version="1.1" xmlns="http://www.w3.org/2000/svg" xmlns:xlink="http://www.w3.org/1999/xlink" x="0px" y="0px"
	 viewBox="0 0 914.4 883.6" style="enable-background:new 0 0 914.4 883.6;" xml:space="preserve">
<style type="text/css">
	.st0{fill:#F7941D;}
	.st1{fill:#009444;}
</style>
<g id="Player1_00000065065955655233445280000001256536390060242350_">
	<g id="Player1">
		<path class="st0" d="M610.8,418.7c12.6,4.7,30.7,4,41.3,10.3c-25.8,2.9-50-15.4-76.8-3.2c14.9,0.3,19.4,11.9,33.5,12.1
			c-17.3,3.8-29.7-12.3-48.5-9.9c-40.4,0-44.4,22.1-61.4,20c-6.9-8.5-15.1-13-25.5-13.1c12.7-5.5,31.6-3.1,46.7-6.1
			c8.2-1.5-18.4-0.8-23-0.7c-14.6-3.5-30.9-6.9-43.9-15.1c-4.6-2.9-15.6,0.6-19.2-3.5c-24.5-29.6-62.2-49.5-101.9-52.9
			c-6.4,5.2-7.5,41.2-7.4,52.1c2.9,3.1-1.8,5-4.3,6c-4.7,0.8-8.1-0.4-6.6-4.5c-8.3-34.1-40.4-63.4-57.1-95.4
			c-11.5-4-32,31.1-45.4,23.3C141.1,229.3,70,120.8,2,10.5c-13.4-15.1,45.3-4.8,53.5-7c-2.7-3.6,4.1-4.5,5.8-2.4
			c27.8,39.5,57.9,89.8,86.9,133.4c33.7,52,67.8,104,101.4,156.1c12,25.1,10.4,1.8,22.3,12.1c16,16.1,24.5,59.4,49.5,49.7
			c0.5-9.9,6.7-22.4,3.7-31.1c-3.1-2.9,5.6-3.4,7.3-2.2c36.8,21,70.3,54.6,103.1,79.4c9.5,12.7,31.2,10.9,46.1,9.7
			c1.4-15,20.1-23.4,47.3-27.1c29.9-3.9,81.9,3.1,93.2,28C626.2,418,618,417.6,610.8,418.7L610.8,418.7z M219.7,334.3
			c10-8.7,25.1-16.6,32-26.7c-18.9-28.9-37.6-57.9-56.2-86.9C154.7,155.2,111.2,91.2,69.9,26c-9.8-27.1-32.1-13.5-55-16.1
			c-13-1,8.8,18.6,11,25.5C92.2,134.2,154.2,235,219.7,334.3L219.7,334.3z M496.9,426.2c23,4.4,41.1-5.3,60.2-17.3
			c12.5-2.5,52,17.9,56.1,3.3c-16.9-37.2-104.1-36.6-125.2-5.3c-0.5,0.9-1.2,1.7,0.5,2.6c-3,5.9-20.8,0.6-28.3,2.7
			C471.4,419.3,482.1,422.9,496.9,426.2L496.9,426.2z M308.3,358.5c-11.2,18-36.5-69.3-45.9-51.5c11.4,28.1,36.1,56.5,51.9,84.7
			c5.9-1.5,3.5-25.8,6.5-35C315.9,357,311.9,357.5,308.3,358.5L308.3,358.5z M329.9,352.6c18.5,0.7,32.4,5.4,49.3,10.3
			c-13.6-13.4-30.5-24.7-45-36.8C328.4,326.7,332.1,345.7,329.9,352.6z M544.6,426.1c17.3-0.5,33.8-3.7,50.1-7.1
			C577.1,413.3,557.3,409.4,544.6,426.1z M513.5,433.2c-8,0.7-15.5,1.4-23.5,2.2C498,447.3,504.8,441.5,513.5,433.2z M442,408.6
			c-1.9,1,0.5,1.3,1.9,0.9C443.2,409.1,442.7,408.9,442,408.6z"/>
		<ellipse class="st0" cx="660.3" cy="428.1" rx="12.7" ry="10.9"/>
	</g>
</g>
<g id="Player2_00000055679398559737957480000012276582021654352553_">
	<g id="Player2">
		<path class="st1" d="M647.4,535.3c12.2-3.7,24.8-10.6,38.2-10.9c46.7,73.8,103.3,153.8,152.6,230c25.2,39.9,54,77.9,76.1,119.4
			c-17.9,5.1-40.2,2.8-56.3,9.7c-49-62.3-84.3-140.8-128.4-208.7c-25.6-43.5-52.2-86.6-76.7-130.6c-5.3-8.5-13.7,0.4-20.8,1.9
			c-11.9,0.5-8.8-19.4-16.9-25.8c-40.9-28.2-39.7-25.6-61.8,15.7c-51.3-10.3-78.1-57.9-120.5-84.4c-66.5-9.9-13.1,10.6-63.7,23.2
			c-33.4,9.1-121.2,1.4-119.9-33.8c-10.9-3.6-28.5-1.6-36.3-8c14.6-2.9,31.6,5.1,46.8,6.4c17.6-0.1,35.1-3.1,52.6-5
			c-19.8-1.1-25.8-15.5-45.5-17.5c27.3-3,43.3,18.9,70.2,14c15.6-4.9,33.3-23.4,49.9-15.6c7.8,6.5,18.4,10,26.7,11.3
			c-11.1,6.5-32.6,2.7-46.4,6.3c33.2-0.4,62.5,16,96.1,11.9c9.4-1.2,7.2,5.1,10.8,10.4c7.7,13.6,20.7,26.2,41.6,37.3
			c13.3,5.9,44.7,21.2,53.3,2.4c0.8-2.6,9.1-1,8.1-7.4c2-18-16.5-31.2-26.3-43.4c12.8-0.7,25.7,6.2,38.4,8.4
			c16,1.4,14.9,20.1,21,31.5C617.3,506.3,623.1,527,647.4,535.3L647.4,535.3z M908.9,871c-65.6-90.8-125.1-185.3-188.2-277.7
			c-14.1-21.2-28-42.5-42.1-63.8c-8.6-1.4-18.3,5.9-26.8,8.6c40.6,57.5,77.3,126.7,116.5,188.3c29.9,49.5,59.6,99,89.4,148.5
			C870.5,882.3,892.1,869.7,908.9,871L908.9,871z M258.5,442.5c6.9,31.8,93.8,41.1,121.3,19.7c4-3.7,6.7-8.2,6-12.3
			c0.1-7.8,25-2,32.5-4.6c-31.7-15.5-71.1-14.6-100.9,6.1C297.8,452,278.5,444.1,258.5,442.5L258.5,442.5z M439.4,448.9
			c37.3,25.6,61.7,62.3,105.2,80.2c10.4,6.3,12.1-15.1,17.5-21.2c-19.9,1.4-41.5-4.5-57.6-13.5C454.5,470.6,476,441.4,439.4,448.9
			L439.4,448.9z M560.4,448.2c49.2,42.1-4.2,40.8,53.4,66.5c-6.8-19.3-14.5-38.4-21.4-57.6C583,452.2,570.8,451.4,560.4,448.2
			L560.4,448.2z M324.5,437.1c-16.9,0.7-36,2.4-52.6,4.6C290.9,446.3,308.2,450,324.5,437.1z M398.3,425.9c-14.1-13.4-24.3-5-38.4,4
			C373.3,428.9,385.3,427.2,398.3,425.9z M630.1,541.9c21.4-4.5,5.9-9.2-4.8-14.9C626.9,532.1,628.5,537,630.1,541.9z"/>
		<ellipse class="st1" cx="207.7" cy="434.8" rx="13" ry="11.7"/>
	</g>
</g>
</svg>
