<?xml version="1.0" encoding="UTF-8"?>
<svg xmlns="http://www.w3.org/2000/svg" viewBox="0 0 872.07 868">
  <defs>
    <style>
      .cls-1 {
        fill: #f15b2b;
      }

      .cls-1, .cls-2 {
        stroke-width: 0px;
      }

      .cls-2 {
        fill: #006838;
      }
    </style>
  </defs>
  <g id="Layer_1" data-name="Layer 1">
    <g id="Player1">
      <g>
        <path class="cls-2" d="m82.37,425.9c26.1,27.3,56.9,51.5,83.8,78.6,86.4-72.1,176-143.5,264.4-214.3,4.7-3.6,8,4.9,11.3,7.3,28.1,29.1,56.3,58,84.5,87,1.2,4.4,10.1,2.6,6.9,8.7-11.2,11.9-24.1,22.2-36,33.5-58.7,55.1-117.6,109.9-177.5,163.7,25.8,27.2,53.3,53,78.6,80.7,15.4-18.8,36.6-32.8,54.1-49.8,15-10.3,28.2-30.2,44.6-35.2,3.9-2.8,5.9-2.8,9.1.5,42.1,41.5,82.9,84.2,123.5,127.1,5.6-10.4,3.6-27.5,13.3-33.5,29.6,12.6,56.7,44.3,84.6,63.5,47.6,38.8,96,76.7,142.1,117.3,2.8,1.3-1.4.7-7.5-2.7-78-57.6-145.7-111.9-221.1-172.8-1.9,10-3.7,20-7,29.7-1.7,11,17.8,7.4,11,20-9,19-26.4,32.2-41.3,46.5-27.6,34.6-61.8,86-112.3,78.7-6.8-2.7.2-9.7,4.3-11.4,39.1-25.7,82.8-50.3,112.1-87.1,7-12.7,13.4-25.7,18.7-39.2-44.4-42.1-87.9-91.1-131-131.9-116,94-64.6,119.4-174.8,10.7-5.4-5.9-16.6-12.1-3.1-15.6,68.2-66.5,139-130.3,208.3-195.8-113-98.9-63.7-125.5-163.8-38.8-60.5,50.2-121.1,100.3-182,150.1-3.6,3.4-9,11.4-13.5,4.7-8,3.1-20.8-16.3-28.8-20.8-20-20.8-49.1-39.3-64.4-61.3C232.87,293.4,385.17,135.8,545.27,1.2,410.57,144.5,232.67,285.1,82.37,425.9Zm499.4,374.7c-25.9,18.2-53.8,39.8-83.4,54.3,35.3,2.5,62.6-29.7,83.4-54.3Zm48.9-73.9c-4.3,9.7-8.5,19.3-12.7,28.9,6.1-8.6,28.2-20.8,12.7-28.9Z"/>
        <ellipse class="cls-2" cx="859.67" cy="855.8" rx="12.4" ry="12.2"/>
      </g>
    </g>
  </g>
  <g id="Player2">
    <g id="Player2-2" data-name="Player2">
      <g>
        <path class="cls-1" d="m321.07,0c160.7,133.9,313.7,290.7,473.8,420.6-15.2,22.1-44.2,40.7-64.1,61.6-8,4.5-20.7,24-28.7,20.9-4.5,6.8-9.9-1.2-13.5-4.6-61.1-49.5-121.9-99.3-182.7-149.2-100.6-86.2-51.1-59.9-163.6,39.6,69.5,65.1,140.7,128.6,209.2,194.8,13.5,3.4,2.3,9.6-3,15.6-109.7,109.2-58.5,83.6-174.9-9.8-42.9,40.9-86.1,90.2-130.4,132.5,5.3,13.5,11.8,26.4,18.9,39.1,29.5,36.7,73.3,61,112.5,86.6,4.1,1.6,11.1,8.6,4.4,11.3-50.4,7.5-84.9-43.7-112.6-78.2-15-14.2-32.4-27.3-41.6-46.3-6.8-12.6,12.7-9.1,10.9-20.1-3.3-9.7-5.2-19.7-7.1-29.7-75.2,61.3-138.6,111.5-216.5,169.4-6.1,3.5-14.3,8.5-11.5,7.1,45.9-40.8,94.1-78.9,141.5-118,27.9-19.3,54.7-51.2,84.3-63.9,9.8,6,7.8,23.1,13.5,33.5,40.5-43.1,81.1-86,122.9-127.7,3.3-3.3,5.2-3.3,9.1-.5,16.5,5,29.8,24.8,44.8,35,17.6,16.9,38.9,30.9,54.4,49.6,25.2-27.9,52.6-53.7,78.2-81.1-60.2-53.5-119.4-108-178.3-162.8-11.9-11.2-24.8-21.5-36.1-33.4-3.3-6.1,5.6-4.3,6.8-8.7,28-29.1,56.1-58.2,84.1-87.4,3.3-2.4,6.5-11,11.3-7.3,88.7,70.4,178.6,141.3,265.4,213,26.8-27.2,57.5-51.5,83.5-79C635.07,282.3,456.47,142.6,321.07,0Zm51,853.4c-29.7-14.3-57.7-35.7-83.7-53.9,20.9,24.6,48.4,56.6,83.7,53.9Zm-120.1-98.7c-4.2-9.6-8.5-19.1-12.8-28.8-15.5,8.1,6.6,20.2,12.8,28.8Z"/>
        <ellipse class="cls-1" cx="13.27" cy="851.9" rx="13.2" ry="13"/>
      </g>
    </g>
  </g>
</svg>