<?xml version="1.0" encoding="UTF-8"?>
<svg xmlns="http://www.w3.org/2000/svg" viewBox="0 0 698.72 791.5">
  <g id="Player1">
    <path d="m551.92,609.3c16.9-.2,16.9,26.3,0,26-16.9.2-16.9-26.3,0-26Z" fill="#009444" stroke-width="0"/>
    <path d="m598.12,412.8c8.1-1.9,6-15.7,9.3-22.2,5.6-22.6,11.3-45.1,16.9-67.7,22.6-99.9,52.2-201.6,70.5-301-34.7,127.8-71.9,262-96.7,390.9.1.1,0,0,0,0Z" fill="#009444" stroke-width="0"/>
    <path d="m194.12,766.7c77.5-.5,163.2,19.1,243.4,24.8,41.2-44.4,71.9-106.4,109.6-156.7,1.1-1.2,3.4-5.4.1-4.1-18.4,26.1-36.3,52.7-54.5,79-18.3,26.7-36.5,53.4-54.8,80.1-75.1-9.1-150.2-18.2-225.3-27.4-38.2,9.3,59-156,62.5-184.3,65.4-164.1-77.4,162.5-81,188.6h0Z" fill="#009444" stroke-width="0"/>
    <path d="m.12,365.3c38.1-17.4,81.1-25.1,123.5-23.1,14.8-9.4,28.6-23.8,48.6-21.8,3.8-6.4,15.1,1.1,21.3,1.1,29.7,2.8,62.5,25.4,89.3,6,18.5-6.5,21.1-27.8,30.6-42.9-2.9-4,1.9-4.2,4.7-5,34.9-7.1,70.3-15.8,105-21.9,70.3-67.8,61.9-71.5,90.5-162.3,27.7-61.1,1.4-84.1-47.6-34.4-46.5,60.9-83.3,135.8-128.2,200.4-12.3,11.5-3.5-14.4-2-19.9C357.42,161.7,385.22,77.2,404.12,0c359.2,11.9,407.6,36.5,7.6,1.6-20.9,82.2-50.2,163.6-73.3,245.6,35.2-53.6,69.7-108,104.9-161.8,12.7-18.7,24-38.4,44.7-49.4,21.9-16.6,50.4,2.5,41.2,28.3-13.3,38.4-25.3,77.4-38.3,115.9-4.4,22.3-20.8,36.3-36.2,52-30.4,42.4-74.9,37.1-121.1,48.4-22.2-.3-23.6,26.4-34.2,41.6-5.6,9.1-18.7,10.2-27.2,16.5,108.7,24.6,217.5,48.4,326,74.1l-.1-.1c-87.4-9.7-227.3-49-332.1-69.5-30.5,12.8-65.2,7.8-98.3,10-14.6.4-24.4,1.9-37.3-5-15.1,6.9-22.3,30.2-28,45.6,9.3.1,26.5,6.1,30.6-2,6.4.7,11.5,8.1,17.3,11.2,13.5,12.5,32.2,11.1,50,15.9,69.5,17.8,143.7,26.2,210.7,49.2,25,19.9,3.8,55.4-23.4,58.5-7.4,5.1-19.3.9-28.2,2.2-21.3-1.5-44.6,2.3-65-2,27.1-5.3,56.9-1.6,84.9-3.6,25.7,3.3,51.7-29.8,30.2-50.3-71.5-29.4-155.9-33.7-231.7-54.7-14.8,1.3-25.9-11.6-39.8-19.8-11.8-1.5-24.7,1.1-37.1-1.4-3.8,16.8-6.3,34.4,1.3,50.5,2.1,4.3-3.7,6.8-6.3,3.5-8.4-15.4-6.2-34.4-2.2-50.9,3.5-7.9-43.3-8.3-53.5-14.7-12.4.1-29.2-20.1-36.9-15.5,1.2-4.7-4.2-.3-3.2-4.6H.12Zm118.3-18c-37-1.2-75.5,2.8-109.4,18.3,24.5,19.4,56.5,24.1,86.8,27.3,5.5-16.6,13.5-31.7,25.1-45.4-1.3-.1-1.9-.3-2.5-.2Zm14.1-4.3c19.1,11.2,38.7,7.4,60.5,6,20.6-3.1,44.2,3.4,62.6-7.8-39.8-4.8-92.8-37.1-123.1,1.8Z" fill="#009444" stroke-width="0"/>
  </g>
  <g id="Player2">
    <path d="m147.02,609.3c16.9-.2,16.9,26.3,0,26-16.9.2-16.9-26.3,0-26Z" fill="#f75d1d" stroke-width="0"/>
    <path d="m100.72,412.8c-8.1-1.9-6-15.7-9.3-22.2-5.6-22.6-11.3-45.1-16.9-67.7C51.92,223.1,22.42,121.3,4.12,22c34.6,127.7,71.8,261.9,96.6,390.8-.1.1,0,0,0,0Z" fill="#f75d1d" stroke-width="0"/>
    <path d="m504.82,766.7c-77.5-.5-163.2,19.1-243.4,24.8-41.2-44.4-71.9-106.4-109.6-156.7-1.1-1.2-3.4-5.4-.1-4.1,18.4,26.1,36.3,52.7,54.5,79,18.3,26.7,36.5,53.4,54.8,80.1,75.1-9.1,150.2-18.2,225.3-27.4,38.2,9.3-59-156-62.5-184.3-65.5-164.1,77.3,162.5,81,188.6h0Z" fill="#f75d1d" stroke-width="0"/>
    <path d="m698.72,367.6c-2.4-.3-3.7-.5-3.2,2.4-6.9-4.8-25,15.8-36.9,15.5-9.1,6-58,7-53.5,14.7,4,16.4,6.2,35.5-2.2,50.9-2.6,3.3-8.3.8-6.3-3.5,7.5-16.1,5-33.7,1.3-50.5-12.3,2.5-25.3-.1-37.1,1.4-13.9,8.2-24.9,21.1-39.8,19.8-75.9,21-160.2,25.2-231.7,54.7-21.4,20.5,4.4,53.7,30.2,50.4,28,2,57.8-1.7,84.9,3.6-20.4,4.4-43.7.6-65,2.1-9-1.3-20.7,2.8-28.2-2.2-27.1-3.1-48.4-38.5-23.4-58.5,67.1-22.9,141.2-31.4,210.7-49.2,17.9-4.8,36.5-3.4,50-15.8,5.8-3.1,10.9-10.6,17.2-11.3,4.3,8,21.2,2.2,30.6,2-5.7-15.4-13-38.6-28-45.6-13,6.9-22.7,5.4-37.4,5-33.1-2.2-67.8,2.8-98.3-10-104.6,20.4-245.1,59.8-332.1,69.5l-.1.1c108.4-25.7,217.3-49.5,326-74.1-8.4-6.3-21.6-7.4-27.2-16.5-10.6-15.2-12.1-42-34.2-41.6-46.2-11.4-90.6-6-121-48.5-15.4-15.7-31.8-29.6-36.2-52-12.9-38.5-25-77.5-38.3-115.9-9-25.6,19.2-45,41.2-28.3,20.7,11.1,32,30.7,44.7,49.4,35.2,53.7,69.7,108.2,104.9,161.8-23-82.2-52.3-163.6-73.2-245.8-402,35-349.6,10.2,7.6-1.6,18.9,77.2,46.7,161.6,68.2,241.4,1.4,5.5,10.3,31.4-2,19.9-44.9-64.6-81.7-139.6-128.2-200.5-14.7-18.3-56.5-45.7-61-5.8,15.4,44,28.9,89.9,43.4,134.6,12.9,26,42.7,43.6,60.5,67.8,35.8,6.3,72.2,15.1,108.1,22.6,2.9.8,3.2,1.5,1.7,4.2,3,5.9,6,11.8,9,17.7,4.9,11.1,9.3,21.1,21.7,25.2,26.8,19.4,59.6-3.2,89.3-5.9,6.4.1,17.3-7.6,21.3-1.1,19.9-2,33.8,12.5,48.6,21.8,40.8-.2,91,3.7,123.4,25.7h0Zm-120.7-20c11.5,13.6,19.6,28.8,25,45.4,30.3-3.2,62.3-8,86.8-27.3-34.6-15.8-74.1-20.2-111.8-18.1Zm-11.5-4.8c-31.6-38.5-83.1-6.5-123.3-1.6,18.4,11.2,42,4.7,62.6,7.8,21.8,1.3,41.7,5.4,60.7-6.2Z" fill="#f75d1d" stroke-width="0"/>
  </g>
</svg>