<?xml version="1.0" encoding="utf-8"?>
<!-- Generator: Adobe Illustrator 28.0.0, SVG Export Plug-In . SVG Version: 6.00 Build 0)  -->
<svg version="1.1" xmlns="http://www.w3.org/2000/svg" xmlns:xlink="http://www.w3.org/1999/xlink" x="0px" y="0px"
	 viewBox="0 0 876.8 868.7" style="enable-background:new 0 0 876.8 868.7;" xml:space="preserve">
<style type="text/css">
	.st0{fill:#006838;}
	.st1{fill:none;}
	.st2{fill:#F15A29;}
</style>
<g id="Player1">
	<g>
		<g>
			<path class="st0" d="M85.9,424.7c26.1,27.3,56.9,51.5,83.8,78.6c86.4-72.1,176-143.5,264.4-214.3c4.7-3.6,8,4.9,11.3,7.3
				c28.1,29.1,56.3,58,84.5,87c1.2,4.4,10.1,2.6,6.9,8.7c-11.2,11.9-24.1,22.2-36,33.5c-58.7,55.1-117.6,109.9-177.5,163.7
				c25.8,27.2,53.3,53,78.6,80.7c15.4-18.8,36.6-32.8,54.1-49.8c15-10.3,28.2-30.2,44.6-35.2c3.9-2.8,5.9-2.8,9.1,0.5
				c42.1,41.5,82.9,84.2,123.5,127.1c5.6-10.4,3.6-27.5,13.3-33.5c29.6,12.6,56.7,44.3,84.6,63.5c47.6,38.8,96,76.7,142.1,117.3
				c2.8,1.3-1.4,0.7-7.5-2.7C787.7,799.5,720,745.2,644.6,684.3c-1.9,10-3.7,20-7,29.7c-1.7,11,17.8,7.4,11,20
				c-9,19-26.4,32.2-41.3,46.5c-27.6,34.6-61.8,86-112.3,78.7c-6.8-2.7,0.2-9.7,4.3-11.4c39.1-25.7,82.8-50.3,112.1-87.1
				c7-12.7,13.4-25.7,18.7-39.2c-44.4-42.1-87.9-91.1-131-131.9c-116,94-64.6,119.4-174.8,10.7c-5.4-5.9-16.6-12.1-3.1-15.6
				c68.2-66.5,139-130.3,208.3-195.8c-113-98.9-63.7-125.5-163.8-38.8c-60.5,50.2-121.1,100.3-182,150.1c-3.6,3.4-9,11.4-13.5,4.7
				c-8,3.1-20.8-16.3-28.8-20.8c-20-20.8-49.1-39.3-64.4-61.3C236.4,292.2,388.7,134.6,548.8,0C414.1,143.3,236.2,283.9,85.9,424.7z
				 M585.3,799.4c-25.9,18.2-53.8,39.8-83.4,54.3C537.2,856.2,564.5,824,585.3,799.4z M634.2,725.5c-4.3,9.7-8.5,19.3-12.7,28.9
				C627.6,745.8,649.7,733.6,634.2,725.5z"/>
		</g>
		<ellipse class="st0" cx="864.9" cy="856.4" rx="10.6" ry="10.4"/>
	</g>
</g>
<g id="Player2">
	<g>
		<path class="st1" d="M291.2,801.3c20.9,24.5,48.5,56.6,83.7,53.9"/>
		<g>
			<path class="st2" d="M323.9,1.8c160.7,133.9,313.7,290.7,473.8,420.6c-15.2,22.1-44.2,40.7-64.1,61.6c-8,4.5-20.7,24-28.7,20.9
				c-4.5,6.8-9.9-1.2-13.5-4.6c-61.1-49.5-121.9-99.3-182.7-149.2c-100.6-86.2-51.1-59.9-163.6,39.6
				c69.5,65.1,140.7,128.6,209.2,194.8c13.5,3.4,2.3,9.6-3,15.6c-109.7,109.2-58.5,83.6-174.9-9.8c-42.9,40.9-86.1,90.2-130.4,132.5
				c5.3,13.5,11.8,26.4,18.9,39.1c29.5,36.7,73.3,61,112.5,86.6c4.1,1.6,11.1,8.6,4.4,11.3c-50.4,7.5-84.9-43.7-112.6-78.2
				c-15-14.2-32.4-27.3-41.6-46.3c-6.8-12.6,12.7-9.1,10.9-20.1c-3.3-9.7-5.2-19.7-7.1-29.7C156.2,747.8,92.8,798,14.9,855.9
				c-6.1,3.5-14.3,8.5-11.5,7.1c45.9-40.8,94.1-78.9,141.5-118c27.9-19.3,54.7-51.2,84.3-63.9c9.8,6,7.8,23.1,13.5,33.5
				c40.5-43.1,81.1-86,122.9-127.7c3.3-3.3,5.2-3.3,9.1-0.5c16.5,5,29.8,24.8,44.8,35c17.6,16.9,38.9,30.9,54.4,49.6
				c25.2-27.9,52.6-53.7,78.2-81.1c-60.2-53.5-119.4-108-178.3-162.8c-11.9-11.2-24.8-21.5-36.1-33.4c-3.3-6.1,5.6-4.3,6.8-8.7
				c28-29.1,56.1-58.2,84.1-87.4c3.3-2.4,6.5-11,11.3-7.3c88.7,70.4,178.6,141.3,265.4,213c26.8-27.2,57.5-51.5,83.5-79
				C637.9,284.1,459.3,144.4,323.9,1.8z M374.9,855.2c-29.7-14.3-57.7-35.7-83.7-53.9C312.1,825.9,339.6,857.9,374.9,855.2z
				 M254.8,756.5c-4.2-9.6-8.5-19.1-12.8-28.8C226.5,735.8,248.6,747.9,254.8,756.5z"/>
			<ellipse class="st2" cx="16.1" cy="853.7" rx="13.2" ry="13"/>
		</g>
	</g>
</g>
</svg>
