<?xml version="1.0" encoding="UTF-8"?><svg xmlns="http://www.w3.org/2000/svg" viewBox="0 0 417.89 574.31"><g id="Player1"><path d="m238.1,155.18c-7.44,5.06-14.68,9.99-22.12,15.05.31.5.68.89.78,1.34.13.56.25,1.49-.02,1.67-.49.34-1.4.5-1.92.27-1.42-.64-2.91-1-4.06-2.41-1.28-1.57-3.25-2.56-4.83-3.91-1.58-1.34-3.04-2.82-4.59-4.19-.51-.46-1.09-.99-1.72-1.14-3.35-.78-6.77-1.26-10.06-2.21-3.33-.96-6.18-.17-9.01,1.48-5.55,3.24-11.09,6.5-16.69,9.66-13.56,7.65-27.15,15.25-40.72,22.86-.32.18-.63.35-.96.51-2.12,1.06-2.01,1.03-2.61-1.3-.25-.99-.99-1.95-1.72-2.7-3.48-3.56-6.97-7.1-10.59-10.51-1.2-1.13-1.56-2.31-1.51-3.83.29-8.22.53-16.44.82-24.66.07-2.08.27-4.15.39-6.23.03-.6-.02-1.21-.04-2.1-10.36,1.59-20.51,3.16-30.74,4.73-.29.68-.49,1.38-.86,1.97-1.36,2.16-4.15,2.02-5.18-.33-.49-1.13-.68-2.44-.79-3.69-1.36-15.49-2.73-30.97-3.98-46.46-.52-6.48-.76-12.98-1.17-19.47-.03-.51-.32-1.01-.48-1.52-.65-2.05.15-3.36,2.31-3.61,1.7-.2,3.44-.17,5.13-.44,6.22-.99,12.12-3.12,17.73-5.82,23.01-11.05,42.79-26.31,58.99-46.09,3.67-4.48,6.91-9.28,8.91-14.8.39-1.07.56-1.91-.2-3.01-1.12-1.61-.82-2.9.44-3.8,1.22-.87,2.52-.59,3.82.76,3.65,3.76,7.33,7.48,10.96,11.27,2.02,2.11,4.42,2.95,7.32,2.81,4.24-.21,8.5-.19,12.74-.38,6.35-.28,12.4,1.25,18.4,2.98,3.9,1.12,7.74,2.41,11.24,4.64,2.84,1.81,5.59,3.63,7.89,6.13,3.12,3.38,7.08,5.65,11.11,7.65,2.39,1.19,5.11,1.74,7.9.78,3.06-1.05,6.26-.65,9.42-.66,1.05,0,2.38.32,3.35.86,1.58.89,1.85,1.4,1.44,2.99-1.44,5.61-2.89,11.21-4.35,16.81-.14.53-.17,1.16-.49,1.53-.36.42-1.04.88-1.49.8-.42-.07-.97-.8-1.03-1.29-.1-.87.04-1.81.23-2.68.91-4.16,1.89-8.3,2.82-12.45.28-1.23.5-2.47.8-3.91-.74-.09-1.33-.26-1.89-.21-2.24.23-4.58.19-6.69.87-4.94,1.58-9.42.6-13.85-1.63-3.9-1.97-7.4-4.45-10.63-7.42-3.62-3.34-7.88-5.72-12.6-7.21-2.16-.68-4.33-1.3-6.51-1.91-6.98-1.95-14.08-2.17-21.26-1.61-2.52.2-5.06.16-7.59.16-3.12,0-5.85-1.08-8.13-3.21-2.24-2.1-4.44-4.25-6.66-6.38-.77-.74-1.55-1.47-2.5-2.37-1,2.32-1.83,4.41-2.79,6.43-2.79,5.84-6.53,11.08-10.79,15.88-15.38,17.31-33.4,31.25-54.15,41.57-5.84,2.91-11.8,5.55-18.3,6.66-2.2.38-4.42.68-6.56,1,2.54,21.44,5.06,42.75,7.6,64.23,4.1-.67,8.1-1.3,12.09-2,7.3-1.27,14.59-2.56,21.89-3.87,1.59-.29,2.71.13,3.18,1.29.52,1.29-.03,2.26-1.77,3.11-.24.12-.5.19-.91.34.44,12.03.66,24.09.32,36.63,3.94,3.53,8.21,7.37,12.51,11.23.56-.3.96-.49,1.34-.71,18.09-10.83,36.19-21.67,54.28-32.51.85-.51,1.81-.98,2.4-1.73,1.11-1.39,2.5-1.79,4.1-1.5,4.81.86,9.61,1.77,14.4,2.71,2.04.4,2.82,1.78,2.49,3.33,4.21,3,8.09,5.76,12.11,8.62,7.24-6.33,15.03-12.01,23.23-17.45-.23-1.72-.56-3.49-.7-5.26-.42-5.67-.84-11.34-1.11-17.02-.12-2.62.74-3.18,3.41-3.09.69.02,1.51-.41,2.1-.86,9.32-7.09,16.34-16.05,21.43-26.56,2.38-4.92,3.97-10.1,4.83-15.49.56-3.51.48-7.04-.28-10.52-.86-3.94-2.69-7.27-6.23-9.49-.68-.42-1.44-.94-1.79-1.6-.33-.62-.41-1.6-.14-2.22.22-.49,1.19-1,1.74-.92,1.13.17,2.31.54,3.26,1.15,2.66,1.69,4.57,4.09,5.87,6.96,1.95,4.31,2.44,8.85,2.04,13.52-1.18,13.61-7.36,25.01-15.76,35.37-4.17,5.15-8.99,9.69-14.62,13.26-1.02.65-1.59,1.37-1.6,2.59-.04,5.89.5,11.71,1.6,17.66.71-.33,1.3-.54,1.83-.86,15.08-8.94,31.21-15.64,47.45-22.07,5.04-2,10.26-3.54,15.44-5.15,1.35-.42,2.86-.31,4.29-.44,3.41-.3,6.82-.66,10.23-.88,1.23-.08,2.53-.02,3.72.29,1.34.35,2.04,1.34,1.94,2.87-.06.87.03,1.8.29,2.62,10.62,33.26,21.27,66.5,31.92,99.75.55,1.72,1.09,3.45,1.68,5.16.43,1.24.57,2.65,2.32,3,.42.08.9,1.13.92,1.75.05,1.16-.11,2.35-.36,3.49-1.03,4.69-2.12,9.36-3.2,14.04-.12.53-.16,1.23-.51,1.51-.65.52-1.54,1.15-2.25,1.07-.7-.09-1.59-.89-1.86-1.59-.28-.75-.04-1.76.16-2.62,1.21-5.01,2.47-10.02,3.67-14.85-.61-1.16-1.31-2.13-1.65-3.2-7.93-25.19-15.84-50.39-23.69-75.61-3.17-10.19-6.18-20.43-9.26-30.65-.16-.51-.33-1.02-.58-1.81-1.22.04-2.45.04-3.68.11-2.79.18-5.58.55-8.38.55-2.84,0-5.54.47-8.25,1.27-7.48,2.2-14.72,4.99-21.93,7.94-12.65,5.17-25.13,10.73-37.28,16.99-.72.37-1.42.78-2.14,1.18-.03.32-.12.59-.08.83,3.15,16.32,7.9,32.14,15.23,47.1,1.35,2.75,2.97,5.39,4.67,7.95,1.6,2.4,3.3,4.75,6.14,5.96.73.31,1.24,1.15,1.63,1.53-3.44,5.41-6.69,10.49-9.91,15.58-2.41,3.81-4.8,7.63-7.36,11.7,3.05,1.21,5.88,2.38,8.74,3.46,7.19,2.72,14.41,5.35,21.57,8.13,3.3,1.28,3.56,2.06,3.33,5.57-.52,7.85-2.78,15.31-5.32,22.66-4.52,13.04-10.67,25.3-18.42,36.73-2.18,3.21-4.41,6.43-6.96,9.35-2.54,2.91-5.49,5.46-8.27,8.16-1.1,5.46-2.25,11.1-3.45,17.04,1.89-.07,3.4-.11,4.91-.2,13.36-.78,26.71-1.6,40.07-2.35,2.52-.14,5.06-.03,7.59-.02.45,0,.93-.05,1.35.07,2.96.82,4.5.55,3.47,5.07-2.08,9.18-3.91,18.42-5.92,27.62-1.31,6.01-2.76,12-4.14,18-.26,1.13-.63,2.22.02,3.41.66,1.22-.24,2.01-1.14,2.7-3.22,2.49-6.44,4.98-9.66,7.49-.69.54-1.35,1.13-2.12,1.78.5.41.82.72,1.18.96,33.64,22.6,63.35,49.57,89.45,80.55,6.96,8.26,13.27,16.97,18.37,26.51,1.75,3.28,3.41,6.63,3.91,10.36.22,1.67.19,3.43-.11,5.09-.27,1.51-1.15,2.81-3.19,2.97-.07-.59-.34-1.18-.16-1.56,1.11-2.44.53-4.78-.25-7.12-1.55-4.68-3.94-8.94-6.69-13-6.98-10.28-14.88-19.83-23.37-28.9-20.89-22.32-43.55-42.66-68.31-60.6-5.05-3.66-10.36-6.95-15.54-10.42-.9-.6-1.84-1.19-2.58-1.95-.96-.99-1.13-2.22-.47-3.51.62-1.2,1.77-1.89,2.9-1.5,1.86.64,2.88-.36,4.05-1.37,2.67-2.31,5.41-4.54,8.03-6.9.68-.61,1.32-1.54,1.5-2.42,3.27-15.97,6.48-31.95,9.69-47.93.07-.35.07-.71.11-1.17-.38-.08-.71-.22-1.03-.2-14.94,1.34-29.89,2.69-44.83,4.04-2.97.27-5.94.52-8.92.77-.81.07-1.63.18-2.44.15-1.82-.05-3.1-1.09-3.33-2.6s.72-2.77,2.54-3.33c.6-.18,1.22-.29,1.63-.38.64-3.17,1.29-6.16,1.84-9.17.49-2.67.84-5.37,1.36-8.03.14-.73.54-1.61,1.11-2.03,6.48-4.77,10.99-11.2,15.12-17.92,7.36-12,13-24.81,17.49-38.12,2.11-6.26,3.81-12.66,4.06-19.34.01-.36-.01-.71-.02-1.31-.68-.3-1.38-.68-2.12-.92-7.58-2.44-15.16-4.87-22.74-7.28-2.24-.71-4.51-1.35-6.75-2.06-.68-.22-1.37-.5-1.96-.9-2.04-1.39-1.92-3.5.18-4.77.66-.4,1.45-.82,1.81-1.44,4.85-8.35,9.64-16.73,14.47-25.15-7.43-7.39-11.59-16.64-15.53-25.99-4.36-10.37-7.51-21.12-9.95-32.09-.19-.87-.44-1.73-.76-2.94Z" fill="#009444" stroke-width="0"/><circle cx="389.59" cy="558.07" r="16.24" fill="#009444" stroke-width="0"/></g><g id="Player2"><path d="m190.1,341.66c.89-.55,1.33-.96,1.85-1.12,1.09-.33,1.89.11,2.13,1.24.16.74.18,1.51.19,2.26.06,6.55.1,13.1.17,19.65,0,.84.08,1.7.28,2.52.72,3.08-.51,4.38-3.56,3.69-7.03-1.61-14.05-3.23-21.07-4.84-9.71-2.23-19.42-4.45-29.13-6.67-.8-.18-1.61-.29-2.73-.49.22,5.54.4,10.75.63,15.96.42,9.39,1.23,18.78,1.14,28.17-.05,4.62,1.39,7.87,4.48,10.99,2.93,2.96,5.52,6.27,8.22,9.45.61.72,1.28,1.49,1.55,2.35.17.57-.15,1.51-.59,1.98-.34.36-1.29.48-1.79.27-.76-.31-1.44-.92-2.02-1.52-4.29-4.44-8.52-8.93-12.81-13.37-1.33-1.38-1.91-2.72-.79-4.56.39-.64.33-1.63.29-2.44-.96-16.11-1.95-32.23-2.92-48.34-.18-2.99,1.33-3.95,4.01-2.69.75.35,1.59.59,2.41.75,16.1,3.17,32.21,6.32,48.31,9.46,1.01.2,2.03.34,3.41.58-.32-6.57-.62-12.87-.93-19.36-5.64-1.33-8.71-5.64-11.49-10.24-5.45-8.99-9.22-18.7-12.18-28.74-3.38-11.5-5.88-23.18-6.95-35.13-.35-3.87-.41-7.77-.49-11.66-.05-2.33,1.88-4.51,4.21-4.72,10.21-.95,20.43-1.84,30.65-2.75,1.12-.1,2.24-.17,3.55-.26-.2-.92-.28-1.56-.48-2.16-4.04-12.05-8.08-24.1-12.13-36.14-.12-.36-.19-.74-.28-1.11-.46-1.92-.22-2.86.79-3.2,1.14-.38,1.95.3,2.68,2.28.33.88.62,1.77.93,2.66,1.67.16,2.6-.92,3.37-1.93,2.18-2.87,4.42-5.72,6.25-8.8,7.1-11.95,12.7-24.62,17.55-37.62,1.39-3.73,2.73-7.49,4.07-11.24.31-.88.54-1.79.93-3.09-.62-.39-1.28-.76-1.89-1.2-11.87-8.6-24.41-16.07-37.4-22.85-11.04-5.76-22.26-11.09-34.12-14.95-3.51-1.14-7.1-2.05-10.83-3.12-.37.79-.75,1.53-1.06,2.29-13.38,32.87-26.76,65.74-40.13,98.61-2.25,5.53-4.45,11.09-6.73,16.6-.71,1.72-.73,3.72-2.24,5.14-.34.32-.12,1.27-.09,1.93.19,3.89.4,7.77.59,11.66.03.66.04,1.33.04,1.99,0,1-.11,2.02-1.42,2.02-1.11,0-1.34-.88-1.4-1.79-.07-1.14-.14-2.27-.19-3.41-.22-4.74-.45-9.47-.62-14.21-.03-.81.16-1.68.46-2.43.64-1.58,1.47-3.07,2.12-4.64,15.75-37.84,31.49-75.69,47.26-113.52.72-1.72,1.67-3.36,2.69-4.93,1.07-1.65,2.73-1.93,4.54-1.37,3.89,1.22,7.84,2.3,11.66,3.71,16.08,5.95,31.37,13.54,45.88,22.66,7.87,4.95,15.49,10.3,23.23,15.47.37.25.78.45,1.49.85,1.2-4.81,2.34-9.36,3.45-13.79-7.51-5.23-12.65-12.14-17.1-19.58-5.72-9.57-9.49-19.84-10.15-31.09-.34-5.77.37-11.37,2.89-16.65,2.74-5.73,7.02-9.58,13.29-11.08.72-.17,1.43-.43,2.39-.73-.48-4.47-.95-8.89-1.43-13.31-.17-1.6-.38-3.21-.52-4.81-.05-.56-.07-1.18.13-1.68.19-.46.64-1.06,1.06-1.12.4-.07,1.22.39,1.3.75.38,1.65,1.65,1.92,2.98,2.16,3.44.63,6.88,1.34,10.34,1.85,1.18.17,2.51.06,3.64-.32,5.65-1.89,11.44-3.44,16.3-7.2,6.83-5.28,14.71-6.28,22.96-5.04,3.74.56,7.44,1.47,11.09,2.48,3.71,1.02,7.4,1.49,11.25,1.08,3.67-.4,7.32-.69,10.95-1.62,5.79-1.48,9.5-5.29,12.62-9.96.89-1.34,1.41-3.02,2.53-4.09,1.09-1.04,2.74-1.5,4.53-2.42-.12,1.11-.12,2-.33,2.85-1.15,4.83-.25,9.41,1.53,13.92,2.77,7.04,6.74,13.4,11.42,19.29,15.9,20.01,35.26,35.78,58.35,46.84,5.06,2.42,10.27,4.42,15.93,5,2.02.21,2.89,1.03,2.86,2.45-.03,1.39-.88,2-3.03,2.21-.27.03-.54.09-.94.17-1.13,4.78-2.29,9.56-3.4,14.36-3.69,15.89-7.36,31.79-11.03,47.68-.06.28-.12.56-.19.83-1.09,4.3-3.37,5.85-7.84,5.16-1.58-.25-3.15-.7-4.67-1.22-8.62-2.95-17.21-5.96-25.82-8.94-1.14-.39-2.28-.77-3.71-1.26,0,1.16-.06,1.98,0,2.79.62,10.14,1.25,20.28,1.89,30.43.05.85.18,1.7.32,2.54.4,2.36-.27,4.19-2.28,5.33-5.45,3.09-10.94,6.1-16.44,9.09-.71.39-1.6.45-2.54.69.28.67.55,1.33.86,2.08-.37.14-.68.37-.84.29-2.56-1.23-5.31-2.19-7.59-3.81-6.82-4.82-13.5-9.85-20.16-14.89-9.54-7.23-19.02-14.52-28.49-21.84-1.62-1.25-3.05-2.75-4.78-4.35-6.31,1.68-13.09,1.37-20.31,1.02-.92,1-2.05,2.4-3.35,3.62-1.59,1.48-3.24,2.93-5.01,4.17-1.89,1.33-4.08.42-4.1-1.9-.03-2.73-1.46-4.38-3.23-5.97-5.01-4.5-10.05-8.97-15.09-13.45-.41-.37-.92-.64-1.62-1.13-.38,1-.73,1.85-1.03,2.71-5.59,15.88-12.18,31.31-20.8,45.81-2.03,3.41-4.44,6.63-6.91,9.74-1.39,1.75-3.27,3.1-5.25,4.93,3.22,10.85,6.58,22.17,10,33.7.49.09,1.14.16,1.75.35,1.16.35,1.69,1.2,1.59,2.38-.11,1.2-.87,1.86-2.03,2.03-.47.07-.95.08-1.42.08-2.36,0-4.72-.14-7.07-.02-9.29.48-18.58,1.03-27.87,1.56-.47.03-.93.07-1.62.12.48,23.22,5.39,45.37,14.28,66.65,2.05,4.92,4.53,9.63,8.07,13.67,1.17,1.34,2.53,2.5,3.93,3.86Zm221.5-239.73c-.73-.24-1.17-.41-1.62-.52-8.45-2.11-16.31-5.6-23.82-9.96-9.99-5.79-19.08-12.78-27.65-20.48-10.29-9.25-19.41-19.52-26.68-31.34-3.1-5.03-5.61-10.35-6.91-16.15-.34-1.52-.53-3.07-.92-5.38-1.22,1.58-2.07,2.58-2.8,3.66-2.63,3.93-6.58,5.79-10.87,7.33-4.75,1.7-9.7,1.64-14.6,2.15-3.18.33-6.21-.16-9.28-.92-4.32-1.08-8.65-2.29-13.05-2.82-6.09-.73-12.25-.54-17.52,3.21-4.46,3.18-9.29,5.36-14.48,7.11-4.45,1.5-8.78,2.3-13.37,1.23-2.03-.47-4.03-1.07-6.05-1.58-.69-.18-1.4-.27-2.24-.43-.11,6.28,1.19,12.28.81,18.39-.95.26-1.66.5-2.39.65-7.8,1.59-12.13,6.67-13.91,14.11-1.39,5.82-1.04,11.71.15,17.53,1.89,9.22,5.66,17.67,10.57,25.66,3.48,5.67,7.59,10.86,12.08,15.99.9-1.17,1.93-2,3.21-1.1,1.17.82.57,2.04.29,3.14-1.27,5.05-2.54,10.11-3.8,15.16-.16.63-.29,1.26-.44,1.95,1.32,1.07,2.64,2.01,3.82,3.1,4.59,4.25,9.27,8.42,13.66,12.88,2.09,2.13,4.36,4.41,4.08,8.22,1.06-.72,1.85-1.1,2.43-1.67,2.03-2,4.06-4,5.95-6.12,1.38-1.55,2.89-2.29,5-2.02,2.71.35,5.44.5,8.16.76,2.82.27,5.64.56,8.46.84.38.04.79.2,1.13.09,2.68-.85,4.52.67,6.41,2.17,10.7,8.51,21.44,16.98,32.11,25.53,6.5,5.21,12.9,10.53,19.05,15.57.83-.78,1.61-1.91,2.68-2.45,4.4-2.22,8.9-4.25,13.36-6.36.84-.4,1.66-.83,2.37-1.19.15-1.67.42-3.08.38-4.49-.15-5.6-.45-11.19-.6-16.79-.18-6.83-.27-13.67-.37-20.5,0-.7.2-1.41.31-2.07,2.37-.54,4.34-.28,6.35.53,6.95,2.8,13.96,5.46,20.92,8.25,4,1.61,7.95,3.37,11.9,5.06,5.89-21.89,11.78-43.77,17.74-65.91Z" fill="#f15a29" stroke-width="0"/><path d="m19.91,550.08c-.83-1.25-.4-2.53-.1-3.8,1.55-6.59,3.99-12.86,7.1-18.86,6.76-13.06,15.37-24.85,25.26-35.68,24.44-26.79,53.13-47.7,86.59-61.9,2.7-1.15,5.51-2.02,8.28-3.01.44-.16,3.7-3.2,4.17-3.23,1.18-.09,2.71.03,3.04,1.2.32,1.15-3.53,5.43-4.58,5.94-1.28.62-2.62,1.1-3.97,1.56-35.3,12.04-79.12,44.51-104.99,79.62-8.15,11.06-15.01,22.82-18.88,36.13-.27.95-.34,2.16-1.92,2.02Z" fill="#f15a29" stroke-width="0"/><circle cx="16.24" cy="557.76" r="16.24" fill="#f15a29" stroke-width="0"/></g></svg>