<?xml version="1.0" encoding="UTF-8"?>
<svg xmlns="http://www.w3.org/2000/svg" viewBox="0 0 805.16 387.41">
  <g id="Player1">
    <ellipse cx="721.91" cy="340.9" rx="17.7" ry="17" transform="translate(-24.89 623.14) rotate(-45.98)" fill="#006838" stroke-width="0"/>
    <g>
      <path d="m742.2,361.41c7.2,4.7,15.4,16.9,23.7,17.3-1-10.8-59.7-52.2-23.7-17.3Z" fill="#006838" stroke-width="0"/>
      <path d="m513.8,146.51c33.9-51,117.7-29.1,152.8,11.1,16.6,23.1-18.5,42-38,44.6-17.7,4.6-37.5,2.7-52.7,14.1-16.6,22.9-30.2,52.3-24.9,81.7,23.1,91.6,136.4,90.3,210.1,80.8-29.7,12.3-62.4,8.4-95.2,6.4-91.4-5.3-162.5-87.1-95.8-168.1,20-18.6,48.8-13.1,72.6-23.4,56.3-23.6-4.5-56.1-33.6-67.3-29.8-7.6-67.3-6.2-87.8,19.8-2.2,3.1-2,3.2-5.9,2.6-68.9-12.5-138.2-32.5-206.3-50.6" fill="#006838" stroke-width="0"/>
      <path d="m742.2,361.41c-44.3-41.5,18.7,3.3,23.7,17.3,2.7,7.8-16.5-12.7-23.7-17.3Z" fill="#006838" stroke-width="0"/>
    </g>
    <path d="m227.9,296.21c-25.1,43.2-26.4,27.6-39.6-10-9-.4-17.8-1.9-26.8-3-50.8-6.1-88.1-28.2-95.8-70.6-3.7-20.7-33.8-27.9-50.1-41.8-3.8-2.4-23.6-18.7-12-16.9,13.1,14,30.2,23.3,44.6,35.8,6.3,4.5,11.8,11.2,18.3,15,6.9-2.5,6.4,20.2,14,25.4,24.9,31.1,70.5,48.3,106.9,50.7,10.1-5.9,12.4,27.1,17.5,33.7,5.5-6.9,13.7-12.9,17.8-20-1.7-2.8,0-6.3,3.7-6.6,37.4-4.2,77.9,6.6,106.3,33.4,24.7,24.7-22.6,31,19.2,22.4,3.1,0-46.5-251.4-40.7-246.6.6,6.6,30.6,268.9,35.1,257.1-13.2-47.2-75.3-63.5-118.4-58h0Z" fill="#006838" stroke-width="0"/>
  </g>
  <g id="Player2">
    <path d="m570.3,66.61c22.8-44.4,24.9-29,40.1,7.9,9-.1,17.9,1,26.9,1.6,51,3.5,89.4,23.6,99.3,65.6,4.8,20.5,35.2,26.1,52.2,39.2,3.9,2.2,24.5,17.5,12.8,16.2-13.8-13.3-31.4-21.7-46.4-33.5-6.5-4.2-12.4-10.6-19.1-14.1-6.8,2.8-7.4-19.8-15.3-24.6-26.5-29.8-72.9-44.6-109.3-45.1-9.8,6.4-13.8-26.4-19.2-32.7-5.2,7.1-13.1,13.6-16.7,20.9,1.8,2.7.3,6.3-3.3,6.8-37.3,6-78.3-2.7-108.1-27.9-25.9-23.4,21-32.1-20.3-21.4-3.1.1,59.4,248.7,53.4,244.2-1-6.6-44.4-267-48.3-254.9,15.7,46.4,78.5,59.5,121.3,51.8h0Z" fill="#f15a29" stroke-width="0"/>
    <ellipse cx="74.58" cy="47.43" rx="17.7" ry="17" transform="translate(-10.17 72.49) rotate(-48.93)" fill="#f15a29" stroke-width="0"/>
    <g>
      <path d="m53.3,28.01c-7.5-4.3-16.3-16.1-24.5-16.1,1.5,10.8,62.2,49,24.5,16.1Z" fill="#f15a29" stroke-width="0"/>
      <path d="m292.5,230.81c-31.2,52.7-116,35.1-153.1-3.2-17.8-22.2,16.3-42.9,35.7-46.5,17.5-5.5,37.4-4.6,51.9-16.8,15.4-23.7,27.4-53.8,20.7-82.8C219.9-8.79,106.8-1.69,33.7,11.61,62.7-2.19,95.5,0,128.5.31c91.6.5,166.7,78.6,104.4,162.9-19,19.6-48.1,15.6-71.3,27.1-55,26.5,7.3,55.8,37.1,65.5,30.2,6.1,67.5,2.7,86.6-24.3,2-3.2,1.9-3.3,5.8-2.9,69.4,9,139.7,25.3,208.6,39.9" fill="#f15a29" stroke-width="0"/>
      <path d="m53.3,28.01c46.3,39.1-18.9-2.4-24.5-16.1-3.2-7.6,17,11.8,24.5,16.1Z" fill="#f15a29" stroke-width="0"/>
    </g>
  </g>
</svg>