<?xml version="1.0" encoding="UTF-8"?><svg xmlns="http://www.w3.org/2000/svg" viewBox="0 0 728.02 874.43"><g id="Player1"><path d="m559.79,332.89c-22.85,7.79-76.69-11.43-86.41,11.12-34.4,71.67-136.38,83.89-200.95,46.08-6.93,141.07,4.63,309.63,2.58,459.79-6.37-97.34-4.04-248.24-7.43-363.64,4.49-149.97-7.39-68.24-68.08-173.28-11.82-21.93-12.38-47.46-14.71-70.9-1.99-2.05,1.43-4.11,3.6-3.58,26.08.15,52.23-.96,78.28.14,2.64,45.21,1.07,95.18,2.67,141.99,60.69,45.63,163.25,28.14,202.39-40.16,2.52-6.25,3.35-12.58,11.58-10.48,24.62,1.33,51.45-4.1,74.94.87C656.95-20.93,220.23-99.4,47.62,157.74c-21.82,26-31.58,62.57-47.62,89.39,7.93-51.07,47.28-101.45,83.04-140.13C282.82-105.47,666.33,13.24,559.79,332.89Zm-295.81-90.6c-24.58,1.68-53.86-1.91-75.72,2.39-.54,55.52,29.39,105.12,75.63,134.67,5.88-37.01-1.48-93.76.09-137.06Z" fill="#009444" stroke-width="0"/><ellipse cx="272.92" cy="862.79" rx="10.96" ry="11.64" fill="#009444" stroke-width="0"/></g><g id="Player2"><path d="m135.74,146.18c-68.79,205.33,126.09,374.25,324.71,322.26,5.31-73.23.62-154.37,2.3-230.2,8-11.77,1.83,55.81,3.57,62.91-.07,53.94-.07,107.88-.35,161.82,102.49-9.25,213.78-108.77,252.76-211.26,4.13-5.91,2.82-19.02,9.29-21.13-27.22,123.37-149.94,208.66-262.04,243.66-1.15,125.05,1.89,250.51-2.63,375.35-3.97-124.4-.52-249.48-1.13-374.11-162.43,29.47-350.91-59.65-342.79-253.38.25-26.47,8.06-55.41,14.14-78.52,27.98-1.75,56.06-3.45,84.06-5.13,79.92-136.06,334.43-57.67,328.02,98.49-1.97-116.79-169.6-209.15-282.66-138.89-73.77,59.98-3.77,37.16-127.24,48.12Z" fill="#f15a29" stroke-width="0"/><path d="m467.64,236.12c23.81-.02,52.53-3.68,74.41.56-21.65,3.28-52.9,2.22-74.41-.56Z" fill="#f15a29" stroke-width="0"/><ellipse cx="461.76" cy="861.83" rx="10.96" ry="11.64" fill="#f15a29" stroke-width="0"/></g></svg>