<?xml version="1.0" encoding="UTF-8"?>
<svg xmlns="http://www.w3.org/2000/svg" viewBox="0 0 668.8 640.95">
  <g id="Player1">
    <circle cx="654.7" cy="626.85" r="14.1" fill="#009444" stroke-width="0"/>
    <path d="m33.2,462.75c9.86,21.73,25.1,41.61,33.7,62.7,24.91,14.84,57.67,7.99,83.3-2,20.43-8.11,33.17-26.2,51.4-37.8,26.69-18.51,55.93-6.49,77.5,11.2,38.8.47,80.81-20.01,96.2-56.5,10.32-7.7-22.23-12.68-26.2-20-42.31-34.39-76.73-107.1-41.01-156.4,12.78-12.26,66.1-1.63,87.7-5.21,16.04,1.31,33.57.3,37.2-18.8,10.06-29.99-.64-66.45-23.3-88.1-30.41-15.37-57.77-43.68-62.6-80-6.56-127.62,139.84-43.42,114.19,45-1.14,8.67,16.51,10.25,16.5,18.8-.8,2.49.65,5.16,3.3,5.1,5.68-.72,2.99-9.1,4.9-12.9,6.63-21.95,17.27-42.81,34.6-58.4,31.13,65.36,52.32,191.21,10.01,254.2-22.79,29.34-63.66,43.58-79.51,77.8-27.05,48.72.43,106.59,59.4,101,13.81-5.07,27.38-15.48,42.6-19.39,29.16-8.2,70.76-19.84,96,.89,3.44,44.27-3.02,103.94,5.49,140.51.44-47.18-1.01-94.46-1.49-141.6-10.41-16.98-37.36-15.7-55.5-15.1-32.8,1.77-62.84,14.74-90.8,30.1-58.22,3.49-65.47-61.1-41.9-101.2,5.04-25.41,63.19-48.15,78.99-79.2,7.91-8.99,25.28-53.32,11.81-58.8,8.61-44.36.7-89.94-7-133.9-10.42-36.63-16.15-94.01-53.7-34.5-7.88,11.68-13.27,24.76-16.8,38.4-24.31-10.8-4.87-30.5-13.4-52.9-19.28-98.77-152.62-106.83-123.9,10.8,9.04,32.91,34.73,57.2,66.2,67.7,17.9,18.89,25.44,46.35,22.7,72.1-1.88,11.17-7.61,28.08-21.5,26.8-29.83-.45-59.81-3.16-89.6-2-67.89,28.06-24.02,135.88,18.4,170.6,13.86,16.53,42.77,12.07,25,31.2-15.99,18.36-39.01,29.03-62.7,33.2-34.55,10.04-33.27-24.71-72.8-18.9-21.17,2.2-39.49,14.53-53.5,30-4.36,7.31-8.69,14.09-17.4,17.2-26.96,11.42-63.84,19.03-88-1.2-9.38-19.88-20.15-38.96-30.7-58.2.43-11.66,3.17-23.53,4.7-35.2,5.42,4.82,13.51,7.97,17.1,14.2,2.39,6.08,12.78,89.27,20.7,65.3-3.35-24.38-14.95-50.85-14.4-72.5-47.53-36.37-27.84,1.84-31.9,35.9Z" fill="#009444" stroke-width="0"/>
  </g>
  <g id="Player2">
    <ellipse cx="14.1" cy="624.05" rx="14.1" ry="14.8" fill="#f75b1d" stroke-width="0"/>
    <path d="m633.7,424.75c-1-2.5-3.3-7.5-6.2-7-7.8,5.1-21.3,7-25.9,15-5.4,16.4-33.5,137.1-10.1,65.4,9.3-27.6,2.9-66,36.4-75.9,8.7,40.5-11.4,68.1-33.2,100.1-17.5,14.7-45.6,10.8-66.8,6.9-13.8-3.7-27.3-6.2-27.7-20.6-23.3-34.9-80.6-51.3-111.8-17.9-19.9,7.8-112.4-38.6-81.6-58.1,40.4-38.5,111.6-129.8,48.6-175.2-30.5-10.7-71.3,9.5-99.9-3.3-44.6-37.2-6.7-107,39.6-120.6,73.3-41.7,57.1-176.8-40.8-119.1-79.7,59.4-19.1,101.6-63.7,120.2-4.2-26-16.5-49.8-36.1-67.6-39.4-23.3-48.2,206.8-32.2,234.6,3.7,16,13.4,23.5,26,34,27.4,31.2,68,67.5,66.8,108.6,12,32.4-26,62.3-56,53.5-37.5-20.4-82.2-28.3-124.7-26.2-7.7,2.5-24.1,0-25.7,9.1,1,23.3.1,46.7.7,70,.5,10.2-1,89.5,5.3,65.8,6.4-23.1-9.9-142,11.6-138.6,43.6-2.9,89,6.6,127.8,26.4,74,10.4,93.8-44.6,54.1-100.6-19-32-43.5-60.7-72.3-84.4-5.7-4.2-7.5-12.6-9.8-19.3-14.5-41.2-.7-329,54.4-184.5,6,6,.8,25.9,8.3,25.6,7.4-7.7,26.6-12.3,26.6-23.4-13.3-40.1,15.1-84.2,51.2-101.5,57.2-29.2,85.1,38.8,52.7,81.1-12.1,19-29,33.6-50.5,40.9-20.7,24.7-45.3,55.9-38.5,91.9,7.4,89.2,198.4-49.5,121,127.6-13.6,23.8-29.7,46.6-49.3,65.9-4,5.7-23.8,15.3-11.7,21.4,23,27.3,57.7,49.5,94.4,53.6,14.9-8,31.6-22.4,51.6-17.6,33.9,1.9,48,36.8,76.4,48.6,26.1,9.5,56.4,10.8,82.1-.6,12.2-16.3,23.4-41,38.8-54.9" fill="#f75b1d" stroke-width="0"/>
  </g>
</svg>