<?xml version="1.0" encoding="UTF-8"?>
<svg xmlns="http://www.w3.org/2000/svg" viewBox="0 0 1042.61 522.73">
  <g id="Player1">
    <g id="Player1-2">
      <path d="m587.17,246.06c-41.9,363.4-51.7,371.5-8.1.3-89.3,3.5-178.6,3.2-267.8-.4-5.7-.1-3.3-7.9,1.6-6.3,88.8,4.5,178,5.3,266.9,1.7,2.8-22.6,5.5-44.9,8.2-67.4-54.5,6.3-123.2-15.2-144.9-69.9-13-36,17.2-69.2,49.5-80.6,45.3-17.5,98.4-13.5,140.9,9.9,9.8,3.4,20-7.1,29.7-9.4,6.1-5.2,6.9-15.1,10.6-22.2-1.2-.3-2.3-.5-3.7-.8,19.8-3.6,40.2,3.9,59.9,6.7,77.5,16.4,152.6,44.1,224.1,77.9,12.7,4.2,116.9,61.4,81.1,72.1-31.4,70.3-367.7,82.9-448,88.4h0Zm81.6-221.5c0,2-1.2,2.7-2.9,3.4-8.6,1.8-27.7,13.6-34.1,11-46.1-23.6-105.5-28.8-152-3.6-45.3,23.4-43.6,78.2-3.1,105.7,31.9,24,72.5,30.8,111.5,30.9,15.5-22-1.8,63.5-.5,69.3,75.8-4.7,423.1-16.9,444.6-88,1,.4,1.6.7,2.4,1C1016.07,91.16,745.17,8.06,677.67,3.26c-3,7.3-6.4,14.1-8.9,21.3h0Z" fill="#009444" stroke-width="0"/>
    </g>
    <ellipse cx="552.14" cy="515.73" rx="6.08" ry="6.22" fill="#006838" stroke-width="0"/>
  </g>
  <g id="Player2">
    <g id="Player2-2">
      <path d="m8.67,207.26c-36.7-7.1,61.5-74.2,73.7-79.6,67.9-40.6,139.9-75.5,215.5-99.3,19.4-4.7,38.9-14.2,59-12.5-1.3.4-2.4.8-3.6,1.1,4.3,6.8,6.1,16.5,12.7,21.1,9.9,1.3,21,10.8,30.5,6.4,40-27.4,92.5-36.6,139.3-23.6,33.3,8.2,66.6,38.3,57.1,75.4-16.2,56.6-82.6,84.7-137.4,83.7,4.9,22.1,9.8,44.1,14.8,66.2,88.8-5.1,177.5-14.6,265.5-27.8,4.7-2,7.8,5.5,2.2,6.1-88.4,12.4-177.3,21.3-266.5,26.5,79.6,365.2,69,358-8.1.5-80.6,2.5-416.5,22.7-454.7-44.2h0ZM349.57,18.86C282.77,30.16,21.27,139.26,8.97,203.76c.7-.4,1.3-.7,2.3-1.2,28.2,68.7,375.1,47,451,44.3.7-5.8-24.8-89.2-7.2-68.9,38.8-3.9,78.5-14.6,107.9-41.6,37.7-31.3,34-86-13.4-104.9-48.7-20.6-107.4-9.6-150.9,18.4-6.2,3.2-26.3-6.6-35-7.6-1.7-.5-3-1.1-3.2-3.1-3.2-6.9-7.3-13.4-10.9-20.3h0Z" fill="#f15a29" stroke="#f15a29" stroke-miterlimit="10"/>
    </g>
    <circle cx="524.57" cy="515.56" r="5.7" fill="#f15a29" stroke="#f15a29" stroke-miterlimit="10"/>
  </g>
</svg>