<?xml version="1.0" encoding="utf-8"?>
<!-- Generator: Adobe Illustrator 28.0.0, SVG Export Plug-In . SVG Version: 6.00 Build 0)  -->
<svg version="1.1" xmlns="http://www.w3.org/2000/svg" xmlns:xlink="http://www.w3.org/1999/xlink" x="0px" y="0px"
	 viewBox="0 0 399.5 633.9" style="enable-background:new 0 0 399.5 633.9;" xml:space="preserve">
<style type="text/css">
	.st0{fill:#215118;}
	.st1{fill:#006838;}
	.st2{fill:#1C75BC;}
</style>
<g id="Player2_00000067951222135797510860000015000532567654703488_">
	<g id="Player2">
		<g id="Player2-2">
			<path class="st0" d="M321.2,501.9c1.5,0.9,3,1.6,4.8,1.9c2.1,0.3,3.2,2.5,2.4,4.5c-0.3,0.8-0.8,1.5-1.3,2.2
				c-3,4.5-6,8.9-8.9,13.4c-5.2,8-10.2,16.1-15.5,24c-9.5,14.3-19.2,28.4-29,42.6c-4,5.9-8.3,11.6-12.6,17.3
				c-2.1,2.8-4.4,5.6-6.7,8.3c-0.4,0.4-0.8,0.9-1.3,1.2c-0.3,0.2-0.9,0.1-1.2-0.1c-0.2-0.1-0.4-0.7-0.3-0.9c0.1-0.6,0.4-1.2,0.7-1.8
				c4.9-8.5,9.5-17.2,14.7-25.5c6.5-10.5,13.4-20.6,20-31c9.5-15.2,19.8-30,29.9-44.8c1.3-1.9,2.5-3.9,3.9-6c-3-1.4-5.6-2.6-8.4-3.8
				c-1.5-0.6-2.6-1.5-3.2-3.4c0.6-0.7,1.2-1.5,1.9-2.4c0.6-0.8,1.4-1.5,2-2.3c1.9-2.9,3.6-6,4.2-9.5c0.6-3.6,1.2-7.3,1.6-11
				c0.8-8.1-1-15.9-2.4-23.8c-0.9-4.8-2.8-9.3-4.5-13.9c-3.9-10.2-9.2-19.6-16.6-27.7c-5-5.5-10.9-10-18.2-12.3
				c-2-0.6-3.5-1.8-3.7-4c-0.7-0.1-1.4-0.2-2-0.5c-0.6-0.2-0.7-1-0.1-1.4c0.4-0.2,0.9-0.3,1.4-0.4c2.2-0.5,4.4-0.8,6.6-1.4
				c6.9-1.9,13.4-4.8,19.3-8.9c15.6-10.8,26-25.6,33-42.9c5.9-14.6,9.1-29.9,9.4-45.7c0.4-16.4-1.8-32.4-7.3-47.8
				c-3.5-9.9-8.7-19-15.3-27.3c-0.5-0.6-1-1.1-1.9-2c-0.7,4.3-1.4,8.1-1.9,11.9c-0.1,0.6,0.4,1.4,0.7,2c1.5,2.6,3,5.1,4.5,7.7
				c7.2,13.2,11.2,27.4,11.6,42.5c0.4,16.4-3.9,31.7-11.3,46.1c-4.8,9.3-10.9,17.9-18,25.7c-11,12.1-23.4,22.6-37.4,31.2
				c-4.8,3-9.9,5.6-14.9,8.2c-8.5,4.5-17.3,8.2-26.2,11.9c-2.6,1.1-4.8,1.4-7-0.8c-0.2,0.4-0.4,0.6-0.5,0.9
				c-5.7,11.9-11.3,24-17.1,35.8c-8,16.2-16.2,32.4-24.4,48.5c-7,13.9-14.1,27.8-21.1,41.6c-6.7,13.1-13.4,26.1-20,39.3
				c-1.2,2.4-2.4,4.2-5.5,4.3c-4.4,0.2-8.8,1.2-13.2,1.6c-5.7,0.5-11.5,0.8-17.2,1.2c-0.7,0-1.3,0.2-2.3,0.3c0.6,0.9,1,1.6,1.4,2.1
				c10.9,14.1,24.9,23.7,42,28.7c5.4,1.6,11,2.3,16.6,1.1c3.9-0.8,7.6-2,9.2-6.4c0.6-1.6,2.2-2.3,3.9-2.2c1.6,0.1,2.9,1,3.5,2.6
				c0.6,1.7,0.1,3.1-1.3,4.3c-1,0.9-2,1.7-2.9,2.6c-2,1.7-4.1,2.9-6.6,3.7c-6,1.8-12,1.8-18.1,0.7c-11.4-2.2-21.4-7.2-30.7-14.1
				c-7.7-5.7-14.5-12.3-19.5-20.6c-0.8-1.4-1.6-2.5-3.5-2.7c-1.8-0.2-2.9-1.9-2.9-3.6c0-1.7,1.2-3.3,3-3.8c0.7-0.2,1.4-0.3,2.2-0.3
				c3.6-0.1,7.3-0.3,10.9-0.3c7.8,0,15.7,0.2,23.5,0.2c0.7,0,1.3-0.2,1.6-0.9c0.2-0.5,0.5-0.9,0.7-1.3c9.1-17.9,18.2-35.8,27.4-53.6
				c15.4-29.7,30.8-59.4,46.3-89c3.6-6.8,7.4-13.5,11.1-20.3c0.6-1,1.1-2,2.5-2.6c1-0.4,1.4-2,2.3-2.9c0.5-0.5,1.2-0.7,1.9-1
				c1.2-0.5,2.5-0.8,3.7-1.2c21.2-7.5,40.6-18.4,58.2-32.3c14.4-11.4,26.3-25,34.2-41.8c4.4-9.3,7.3-18.9,8.5-29.1
				c1.3-11.8,0.4-23.3-2.8-34.8c-2.7-9.5-6.5-18.5-11.6-26.9c-0.8-1.3-1.3-2.6-0.2-4c0.3-0.4,0.4-1.1,0.5-1.6
				c0.8-3.6,1.5-7.1,2.3-10.6c0.4-1.5,0-2.4-1.1-3.4c-4.4-4-9.1-7.8-14.4-10.5c-3.1-1.6-3.8-4.1-3.8-7.2c0-1.3,0.2-2.6,0.4-3.9
				c2.8-19.9,6.2-39.6,10-59.3c0.2-1.3,0.4-2.5,0.7-3.8c-3.3-0.7-6.4-1.3-9.5-2c-5.1-1.2-10.3-2.5-15.4-3.8
				c-0.8-0.2-1.7-0.6-2.4-1.1c-1.9-1.4-1.8-3.8,0.2-5.1c0.5-0.3,1-0.5,1.4-0.7c0.8-4.9,1.5-9.6,2.2-14.3c-0.5,0-0.9,0.1-1.2,0.1
				c-3.3,0.2-6.7,0.4-10,0.5c-1.9,0.1-3.8-0.1-5.6,0c-1.9,0.1-2.7-0.6-2.2-2.5c1.3-5.6,2.6-11.2,4-16.7c0.5-1.8,0.2-3-1-4.5
				c-10.1-12.3-13.8-26.5-10.6-42.1c3.2-15.3,12.4-25.6,26.9-31.3c1.5-0.6,3-1,4.6-1.3c1.4-0.2,2.7,0.7,3.1,1.9
				c0.4,1.2,0.2,2.6-1,3.3c-1.3,0.7-1.5,1.8-1.8,3c-2.6,11.5-5.2,23-7.8,34.4c-2,8.8-4.2,17.5-6.3,26.3c-0.4,1.5-0.1,2.7,1.1,3.7
				c1.8,1.6,3.6,3.2,5.4,4.7c1.8,1.5,3.6,2.9,5.4,4.4c0.8,0.7,1.4,1.4,2.5,1.6c1.2,0.2,1.6,1.1,1.4,2.3c-0.1,0.4-0.3,0.8-0.4,1.2
				c-0.5,2.1-0.9,4.2-1.5,6.5c1-0.2,1.7-0.2,2.2-0.4c3.4-1.2,6.9-2.3,10.2-3.7c11.2-4.7,21.6-10.7,31-18.4
				c10.7-8.8,20.6-18.3,28.7-29.7c7.5-10.5,13.7-21.6,18-33.7c0.3-0.8,0.6-1.6,1.1-2.4c1.8-3,6-2.9,7.6,0.1c0.4,0.8,0.9,1.7,1.1,2.6
				c0.7,2.8,1.4,5.7,1.8,8.5c1.3,9.4,1.2,18.8,0,28.3c-0.6,4.5-1.6,8.9-4.4,12.5c0,0.1,0,0.2,0.1,0.2c0.5,0.4,1,0.8,1.6,1.2
				c3.4,2.4,6.2,5.3,8.4,8.8c5.3,8.6,7.4,17.8,4.6,27.7c-1.3,4.6-3.5,8.7-6.7,12.1c-2.5,2.6-5.5,4.8-8.5,6.8
				c-2.1,1.4-4.7,2.1-7.4,2.4c-4.1,0.4-8.2,1.1-12.2,2.1c-8.8,2.2-16.9,6.1-24.2,11.6c-6.1,4.6-10.7,10.3-13.5,17.3
				c-1.5,3.9-2.3,7.8-0.3,11.8c0.5,1,0.2,2-0.4,2.9c-0.3,0.5-0.7,0.9-1.2,1.4c2.1,1.4,4,2.9,6,4.1c2.3,1.4,3.3,3.6,3.2,6.1
				c-0.1,2.6-0.7,5.2-1.3,7.7c-0.4,1.6-1.3,1.9-3.1,2c-0.9,0-1.9,0.1-2.8,0.4c-1.4,0.5-2.8,1.2-4,1.8c-1,6.1-1.8,12.1-2.9,18
				c-0.2,1.5,0.1,2.4,1.1,3.5c5.2,5.5,9.7,11.4,13.2,18.1c10.6,19.9,15.7,41,15,63.6c-0.6,18.9-4.5,37-12.9,54.1
				c-5.9,12-13.3,22.8-23.2,31.9c-6.8,6.3-14.5,11.1-23.1,14.6c-1.9,0.7-3.7,1.4-5.9,2.2c0.8,0.4,1.4,0.8,1.9,1
				c3.5,1.5,6.5,3.6,9.3,6.1c4,3.6,7.8,7.5,11,11.8c9.3,12.4,14.9,26.4,17.7,41.5c1.1,5.9,1.2,11.8,1.1,17.8
				c-0.1,7.3-1.6,14.3-4.9,20.8c-1.4,2.6-3,5.1-4.6,7.8C316.6,499.3,318.9,500.6,321.2,501.9L321.2,501.9L321.2,501.9z M302,192.8
				c3.7,2.4,7.3,4.9,11,7.5c0.6,0.4,1.2,1.1,1.9,1.8c0.3-0.7,0.5-1.1,0.6-1.4c1.2-4.9,2.3-9.8,3.4-14.6c0.1-0.5,0-1.1-0.2-1.6
				c-0.5-1.6-0.4-2.2,1-3.1c0.9-0.6,1.7-1.2,2.7-1.9c0.2,0.4,0.5,0.7,0.5,0.9c1.5-0.2,2.8-0.4,4.2-0.5c1-0.1,1.6-0.5,1.9-1.4
				c0.6-1.6,1.3-3.2,1-5.2c-2-0.2-3.1-1.6-4.4-2.9c-1.6-1.5-3.1-3-4.7-4.6c-0.4-0.4-0.7-0.8-0.9-1.2c-0.6-1.8-1.2-3.6-1.5-5.4
				c-1.6-8.6,0.7-16.3,5.9-23.2c8-10.6,18.4-17.9,31.1-21.7c5.4-1.6,10.9-2.5,16.5-2c0.7-0.9,1.3-2,2.2-2.7c0.8-0.6,1.9-1,3-1.3
				c9.1-3,14.1-9.4,15.9-18.7c1.5-7.9-0.3-15.2-4.6-21.8c-1.7-2.6-3.9-4.9-5.9-7.3c-0.8-0.9-1.8-1.6-1.3-3c0-0.1,0.1-0.2,0-0.2
				c-1.8-1.6-0.4-3.2,0.1-4.8c0.2-0.8,0.4-1.5,0.5-2.3c1.1-7.6,1.8-15.3,1.6-23c-0.1-4.2-0.2-8.4-0.4-12.6c0-1-0.2-2-0.4-3.4
				c-0.4,0.7-0.7,1.1-0.9,1.5c-4.2,11.1-10.1,21.1-17.3,30.4c-10.8,13.9-23,26.4-37.9,36.1c-6.5,4.2-13.1,8.3-20.3,11.5
				c-5.9,2.6-12,4.7-18.4,6.1c-0.8,0.2-1.7,0.4-2.4,0.7c-1.3,5.1-2.6,10.1-4,15.2c0.1,0.1,0.4,0.2,0.6,0.3c7,2,14.1,4.1,21.1,6.1
				c0.7,0.2,1.4,0.5,2,0.8c2,0.9,2.3,1.4,2.5,3.8c2.1,1,2.1,2.7,1.7,4.9c-1,4.7-1.6,9.4-2.6,14.1c-3.3,15.6-6.6,31.1-9.9,46.7
				c-0.1,0.7-0.3,1.4-0.5,2.3C298.6,190.9,300.4,191.7,302,192.8L302,192.8L302,192.8z M266,20c-6,9.7-7.4,20.2-4.6,31.2
				c1.2,4.9,3.2,9.5,5.9,13.8c0.4,0.6,0.8,1.2,1.5,2.2c2.7-10.4,5-20.4,7.5-30.4c2.6-10,5.1-20,7.8-30.3
				C276.1,8.9,270.2,13.3,266,20L266,20L266,20z M265.8,95.7c5.4,0.7,10.7-0.2,16.2-1.1c0.5-2.5,1-5.1,1.6-7.8
				c-5.5-0.8-9.8-3.4-13.9-7.2C268.4,85.2,267.1,90.3,265.8,95.7L265.8,95.7L265.8,95.7z"/>
			
				<ellipse transform="matrix(0.9951 -9.853771e-02 9.853771e-02 0.9951 -60.2013 27.7192)" class="st1" cx="250.5" cy="623.3" rx="8.2" ry="8.2"/>
		</g>
	</g>
</g>
<g id="Player1">
	<g id="Layer_1_00000150806327151822314540000006075486199964489645_">
		<g id="Layer_1-2">
			<path class="st2" d="M100.7,17.5c-0.8-0.3-1.7-0.5-2.5-0.9c-1.6-0.7-2.4-2.2-2.1-3.7c0.3-1.5,1.6-2.8,3.3-2.7
				c2.4,0.1,5,0.2,7.3,1c16.8,5.6,27.5,17.1,31.3,34.3c2.8,12.8,0.5,25.1-5.6,36.7c-1,1.9-2.2,3.8-3.3,5.6c-0.5,0.8-0.8,1.5-0.4,2.4
				c1.5,4.1,2.9,8.2,4.4,12.3c0.3,0.9,0.6,1.8,0.9,2.7c0.4,1.2,0.1,2.2-0.8,3c-1,0.9-2.2,1.1-3.2,0.4c-1.1-0.8-2.1-0.6-3.3-0.2
				c-5.9,1.6-11.9,1.6-17.9,1c-0.8-0.1-1.7-0.2-2.8-0.3c0.1,0.7,0.2,1.3,0.3,1.8c1.6,5.3,3,10.8,4.9,16c1.1,3,2.3,5.9,3,9.1
				c0.3,1.5,0.8,2.9-0.1,4.4c-0.2,0.4,0,1,0,1.5c0.1,2-1,3.2-3,3.6c-1.1,0.2-2.1,0.4-3.1,0.8c-4.7,1.8-9.3,3.7-14,5.5
				c-0.5,0.2-1,0.5-1.6,0.7c1.3,3,2.7,5.9,3.9,8.8c3.7,8.6,7.5,17.2,11.1,25.8c3.2,7.6,6.2,15.2,9.3,22.8c0.2,0.6,0.6,1.1,1.1,1.5
				c2.4,2,2.7,4.1,0.8,6.4c-6.1,7.5-11.4,15.6-16.3,23.9c-4.2,7.2-7.5,14.8-10.3,22.6c-0.3,0.9-0.4,1.9-0.3,2.8
				c1.8,16.9,5.9,33.3,12.8,48.9c8.5,19.3,20.5,35.9,36.9,49.2c12.3,10,26.3,16.7,41.6,20.6c5.2,1.3,10.5,2.2,15.8,3.2
				c2.2,0.4,4,1.3,4.4,3.8c0.1,0.3,0.2,0.5,0.4,0.8c7.1,8.3,13.4,17.3,19.9,26.2c5.2,7.1,10.1,14.4,15.5,21.3
				c10.7,14,20.4,28.8,30.8,43c10.4,14.2,20.6,28.5,30.9,42.8c5.1,7.1,10.2,14.1,15.4,21.2c0.9,1.2,1.8,2.2,2.8,3.4
				c2.8,0,5.6,0,8.4,0.1c9.2,0.1,18.5,0.2,27.7,0.2c1.2,0,2.5-0.2,3.6-0.4c2-0.3,3.3,0.6,3.2,2.7c-0.3,5.2-1.9,10-3.9,14.7
				c-8.1,18.9-27.9,32.9-45.1,36.5c-6,1.2-12,1.3-17.9,0.1c-0.9-0.2-1.7-0.4-2.5-0.7c-2-0.8-2.8-2.4-2.3-4.1c0.5-1.5,2.1-2.5,4-2.3
				c1.3,0.2,2.6,0.5,3.9,0.7c5.9,1,11.6,0.1,17.2-1.4c11-2.9,20.1-8.9,27.9-17.1c6.2-6.6,11.3-14,14.2-22.7c0.1-0.5,0.3-1,0.5-1.5
				c0-0.2,0-0.4,0-0.8c-0.6,0-1.2-0.1-1.9-0.1c-4.2-0.1-8.4-0.1-12.6-0.2c-7.7-0.2-15.4-0.4-23.1-0.6c-1.1,0-2.1,0.2-3.2,0.3
				c-1.5,0.3-2.6-0.2-3.6-1.5c-15.5-21.9-30.9-43.8-46.5-65.6c-9.2-12.9-18.8-25.7-28.1-38.6c-6.7-9.4-13.2-18.9-19.8-28.4
				c-5.3-7.7-10.6-15.5-15.9-23.2c-0.3-0.5-0.7-0.9-1.1-1.4c-3.3,1.5-6.6,0.7-9.9,0.2c-15.1-2.5-29.2-7.6-42.2-15.6
				c-19.6-12.1-35.1-28-46.3-48.2c-7.3-13.2-12.9-27.1-16.1-41.9c-0.2-0.7-0.4-1.4-0.9-2c-0.1,0.6-0.3,1.2-0.3,1.9
				c-2.7,27.6,5.4,51.8,23.3,72.8c9.2,10.7,19.9,19.8,31.9,27.1c5.7,3.5,11.6,6.6,17.5,9.8c2.2,1.2,2.5,1.6,2.3,4.2
				c0,0.4,0.1,0.7,0.1,1.1c0.2,1.8-0.2,2.6-1.8,3.3c-5.1,2.1-9.5,5.4-13.5,9c-9.7,8.7-16.2,19.5-20.1,31.9
				c-5.2,16.5-5.6,33,0.2,49.4c1.2,3.3,2.6,6.4,4.1,9.6c0.4,0.9,1.1,1.6,1.9,2.3c1.5,1.3,1.7,2.9,0.3,4.3c-0.6,0.6-1.4,1-2.1,1.5
				c-1.8,1-3.7,2-5.7,3c1,1.3,1.8,2.5,2.7,3.6c2,2.5,4,5,6.1,7.4c13.9,15.5,27,31.7,40.3,47.8c10.3,12.4,20.5,24.9,30.8,37.3
				c0.8,1,1.6,1.9,2.2,2.9c0.4,0.6,0.5,1.4,0.8,2c-0.1,0.1-0.3,0.3-0.4,0.4c-0.5-0.2-1.2-0.3-1.6-0.6c-0.8-0.7-1.6-1.5-2.3-2.3
				c-18.8-21.7-37.5-43.4-56.2-65.2c-5.5-6.4-10.8-13.1-16.3-19.6c-3.3-3.9-6.8-7.7-10.2-11.6c-0.2-0.2-0.3-0.3-0.5-0.5
				c-1.4-1.7-1.4-2.9,0.4-4.2c1.9-1.4,4-2.7,5.9-4.1c0.8-0.5,1.5-1.1,2.3-1.7c-0.3-0.5-0.4-0.9-0.7-1.2c-5.2-7.4-8.1-15.7-9.5-24.6
				c-3.8-24.7,2.4-46.6,18.5-65.7c4.7-5.6,10.4-10.1,16.8-13.8c0.6-0.3,1.1-0.7,1.9-1.1c-0.7-0.4-1.3-0.7-1.8-1
				c-14.7-6.6-28-15.4-39.9-26.2c-16.1-14.6-27.6-32.1-33.1-53.3c-3.6-13.7-4.2-27.7-1.8-41.7c0.9-5.5,2.5-10.9,3.7-16.3
				c0.3-1.3,0.5-2.6,0.4-3.9c-0.7-10.2-0.5-20.5,0.4-30.7c0.8-7.9,1.9-15.9,3.8-23.6c0.6-2.4,1.5-4.6,2.3-7
				c-1.8-0.4-4.7,0.3-5.9,1.6c-1.2,1.3-2.6,1.6-4.2,1.1c-1.5-0.5-2.1-1.7-2.4-3.3c-0.5-2.5-1.4-4.9-2.2-7.3
				c-0.2-0.5-0.8-0.8-1.2-1.1c-2.5-1.7-3-4.4-1.1-6.8c0.5-0.7,1.2-1.3,1.8-1.9c2.9-2.8,3.9-6.3,3.8-10.3c-0.2-5.6-2.2-10.7-5.3-15.2
				c-4.5-6.5-10.2-11.9-17.2-15.8c-3.9-2.2-8-3.7-12.2-5.2c-0.5-0.2-1.2-0.5-1.7-0.3c-2.5,0.8-5,0.1-7.5-0.2
				c-8.7-1.1-16.5-4.3-23.3-10c-9.8-8.3-12.6-18.9-10.4-31.2c1.2-6.8,4.3-12.7,8.2-18.3c0.2-0.3,0.5-0.7,0.5-0.7
				c-0.5-1.6-0.9-2.9-1.3-4.1c-0.6-1.9-1.2-3.7-1.8-5.6c-3-9.4-4.9-18.9-6-28.7c-0.3-2.8-0.1-5.7-0.2-8.5C0,26.5,1.6,25,3.7,23.8
				c2-1.1,4.7-0.2,5.5,2c1.8,5.1,4.8,9.5,7.8,13.8C37,68,63.6,88,96.2,100.2c2.6,1,5.4,1.6,8.1,2.4c1.1,0.3,2.1,0.2,3.1-0.6
				c5.3-3.9,9.9-8.5,13.7-13.9c0.7-1,0.7-1.9,0.4-3c-5.2-15.8-10.3-31.6-15.4-47.4c-1.6-4.9-2.9-9.9-4.3-14.9
				C101.2,21.1,101,19.3,100.7,17.5L100.7,17.5L100.7,17.5z M4.2,33.3c0,1-0.1,1.7,0,2.2c1.4,10.4,3.6,20.6,6.7,30.6
				c0.6,1.9,1.2,3.7,2.5,5.3c0.5,0.6,0.8,1.7,0.6,2.4c-0.6,2.7-1.3,5.3-2.5,7.8C8.5,88.1,6.3,95,6.5,102.3
				c0.2,11.1,4.9,19.6,15.1,24.5c5.4,2.7,11.2,3.9,17.2,4.4c0.8,0.1,1.7,0.3,2.5,0.5c1.1,0.3,2.2,0.7,3.3,1c1.3,0.3,2.7,0.4,4.1,0.7
				c4.8,1.3,9.5,2.8,13.8,5.3c2.9,1.7,5.7,3.4,8.4,5.4c7.8,5.8,13.3,13.3,15.8,22.8c1.2,4.7,0.9,9.4-0.5,13.9
				c-1.3,4.1-3.5,7.8-6.7,10.7c1.1,2.1,2.1,4,3.1,5.9c1.5,0.2,1.9-0.8,2.1-1.4c1.6-0.4,3-0.8,4.3-1.2c1.4-0.5,2.6-0.3,3.6,0.6
				c1,0.9,1.3,2.1,0.8,3.4c-0.2,0.4-0.3,1-0.2,1.4c0.7,2.3,0.4,4.6,0.2,6.9c-0.6,5.1-1.5,10.2-1.9,15.3c-0.6,7.1-0.8,14.2-1.2,21.3
				c0,0.5,0.1,1,0.2,1.5c6.1-12,13.5-23,21.8-33.4c-1.1-2-2.1-3.9-3.1-5.7c-6.3-12.8-12.7-25.7-18.9-38.5c-1.6-3.3-3.1-6.6-4.5-9.9
				c-0.5-1.2-0.8-2.5-0.9-3.8c-0.1-1.4,0.7-2.5,1.9-3.1c3.8-1.9,7.7-3.7,11.5-5.7c4-2.1,8.2-3.6,11.6-6.5c-1.2-4.6-2.5-9.1-3.7-13.6
				c-0.3-1-0.6-1.9-0.9-2.9c-1.1-3.5-2.2-7.1-3.4-10.6c-0.8-2.3-2.3-4-4.9-4.6c-5.5-1.3-10.9-3.1-16.1-5.4
				c-21.2-9.4-39.4-23-55.6-39.5c-8.2-8.4-15.3-17.5-20.6-28C4.8,34,4.6,33.8,4.2,33.3L4.2,33.3L4.2,33.3z M103.8,18.7
				c8.4,20.4,14.3,41.2,21.8,61.6c0.3-0.5,0.5-0.7,0.7-1c5.3-11.4,7-23.1,3.1-35.3c-3.8-12-11.6-20-23.2-24.6
				C105.5,19.1,104.8,19,103.8,18.7L103.8,18.7L103.8,18.7z M113.4,104.1c4.8,0.2,9.2,0.5,13.6-1c-0.4-3.1-1.6-5.9-2.6-8.7
				C120.7,97.6,117.2,100.7,113.4,104.1L113.4,104.1L113.4,104.1z"/>
			<circle class="st2" cx="207.7" cy="625.7" r="8.2"/>
		</g>
	</g>
</g>
</svg>
