<?xml version="1.0" encoding="utf-8"?>
<!-- Generator: Adobe Illustrator 28.0.0, SVG Export Plug-In . SVG Version: 6.00 Build 0)  -->
<svg version="1.1" xmlns="http://www.w3.org/2000/svg" xmlns:xlink="http://www.w3.org/1999/xlink" x="0px" y="0px"
	 viewBox="0 0 635.1 961.9" style="enable-background:new 0 0 635.1 961.9;" xml:space="preserve">
<style type="text/css">
	.st0{fill:#009444;}
	.st1{fill:#F15A29;}
</style>
<g id="Player1_00000176758239605353162500000016314279611662500791_">
	<g id="Player1">
		<g>
			<path class="st0" d="M486.5,960.9c-9.2,4.3-3.6-5.7-5-10.5c0.9-18.4,11.8-38.3,28.7-46.5c59.1-92.4,4.5-171.4-40.4-253.3
				C399.2,520.9,310,404.4,227.6,282.1C180.2,212,118.7,152.7,75,80.2C74,76,69,71.1,74.3,68.4c9.2-2.9,22.4-10.9,29.3-17.5
				c35.3-18.7-22.4-29.3-17.9-50.7c5-1.5,5.9,7,9.6,9c10.9,9.9,41.5,27.8,17.6,40.3C90.7,71.2,64.7,63.4,93.1,97.4
				c70.3,94.7,146.6,185.5,210,285.5C349.9,452.1,404,516.8,440.7,592c49.8,90.2,138.4,191.8,81.8,298c-10.3,22.5-37,33-37.3,60.6
				c6.3-9.9,39.9-22.4,39.8-7.4C511,940.3,490.2,946.3,486.5,960.9L486.5,960.9z"/>
			<path class="st0" d="M548.8,940.7c0.3,19-31.5,19-31.2,0C517.3,921.7,549.1,921.7,548.8,940.7z"/>
		</g>
	</g>
</g>
<g id="Player2_00000132774647652271111160000015317220873759894959_">
	<g id="Player2">
		<g>
			<path class="st1" d="M632.1,879c8.3-5.8-3.1-5.9-6.6-9.6c-16.4-8.5-39-9-54.7,1.5c-110.2,4.5-150.3-81.6-199-161.8
				c-76.9-126-133.1-261.6-197.6-394.1c-37-76.1-57.5-159-98.4-233.2c-3.1-2.9-4.9-9.7-9.8-6.5c-7.2,6.5-20.7,14-29.8,16.6
				c-33.8,21.2-14.2-34.1-35-40.9c-3.8,3.6,3.1,8.6,3,12.9c3.1,14.4,3.3,49.9,26.1,35.4c30-8.3,36.2-34.8,51.4,6.8
				c46.8,108.3,87.2,219.8,142,324.8c36.5,75.1,65.4,154.3,112.1,223.8c41.2,67.5,83.3,175.5,157.6,205.7
				c68.7,32.8,89.1-4.1,130.5,12.5c-12.2,0.8-38.8,22.5-26.4,30.7C602,890,617.7,875,632.1,879L632.1,879z"/>
			<path class="st1" d="M606.8,908.3c0.3,19-31.5,19-31.2,0C575.3,889.3,607.1,889.3,606.8,908.3z"/>
		</g>
	</g>
</g>
</svg>
