<?xml version="1.0" encoding="UTF-8"?>
<svg xmlns="http://www.w3.org/2000/svg" viewBox="0 0 814.4 421.73">
  <g id="Player1">
    <ellipse cx="801.4" cy="84.46" rx="13" ry="13.7" fill="#f15a29" stroke-width="0"/>
    <path d="m299.9,72.66c-3-3.5-8.7-7.1-13.1-5.6-.8.5-1.4.5-2.1-.5,1.9-3.5,2.8-4.8,6.4-7.2,22.8-17.7,94.5-109.7,47.7-22.1,4.1-1.4,36.3-27.8,27.8-11.3-35.6,19.1-46.6,34.7-21.6-13.7-17.6,16.5-34.9,33.4-52.6,49.9,4,1.8,7.6,7,12,6.6,1.1-.2,2.3-.1,2.8.9-1.7,12.3-14.5,22.4-20.1,33.8-59.6,89.6-121.1,178.3-180.1,267.9,88.8-60.5,229.1-134.7,292.7-188.2-19.1,2.1-39.1.4-57.6,5-2.2,1-2.1,1.1-4-.7-1-.8-2.6-1.3-2.2-2.9,16.9-6.4,32-20.1,47.8-30.5,3.2-1.4,7.6-7.3,11-4.4-6.9,13.5-30.2,20.3-41.6,32.1,21.8-3,45.8,1.1,66.5-6.2,6.6-4.3,13.4-8.3,20.1-12.4,0-3.8.9-4.9,4.6-5.4,102-23,40.2-121.5-36.2-62.9-18,14.1-20.6,34.8-10.6,54.2-14.6-5.1-14.6-27.6-8.6-39.6,16.5-33,63-48,95.5-30,38.4,22.4,8.7,71.5-24.9,80.9-13.9,3.4-26.8,7.5-37.6,17.5,11.8-2.8,40.6,2.8,46.3-5.1,1-4-2.5-14.1,2.8-14.8,40.1-2.6,81.6-1.3,122.2-2.3,19.3-1.8,42.2,3.6,58.8-3,2.8.4,2.9,4,2.9,6.4.9,19.9,1.1,39.6,2.3,59.4,46.2-42.1,92-84.5,138.2-126.4,1.5-1.9,8.8-7.3,6.2-1.4-46.3,47.6-101.1,90.3-144.1,139.4,2.1,45.2,3.5,90.5,4.8,135.7-1.3,5.1,4.4,37.5-5.1,28.4-35.2-40-80.2-77.6-110.2-119.4,40,31,73.8,78.1,111.7,114.7-3.9-52.1-5.2-103.9-7.5-156.2-8.5,4.4-39.9,45.1-45.7,35.1-17.7,1.9-35.7,3.1-53.5,4.6-1.6.4-4.2.2-4.1-1.7.4-3.2,5.9-1.9,8.2-2.5,16.8-2.5,35.5.5,51.3-4.5,42.8-43.3,46.3-23.1,41.7-87.5-.3-6.2-.4-12.5-1.1-18.6-58.4,1.9-116.6,2.8-175.2,3.7.3,4.6,4.6,23.1-5,16-18.8,2.8-39.2.1-56.9,6.3-105.3,63.9-212.8,141.8-317.1,199,65.8-103.9,138.4-206.6,206.1-310.5h0Z" fill="#f15a29" stroke-width="0"/>
  </g>
  <g id="Player2">
    <ellipse cx="13" cy="318.26" rx="13" ry="13.7" fill="#262262" stroke-width="0"/>
    <path d="m389.1,238.46c11.2,1.4,47.3-6.5,52.8.3-7.9,7.8-19.6,16-28.1,24.7-4.1,2.4-7.4,10.3-12.8,7.7,8.4,51.4-46.1,115.4-94.4,71-29.2-21-17.3-89.6,25.5-72.3,19.6-16.4,57.6-28.4,6.7-23.7-.9,5.6.5,17.3-7.1,17.9-56.5-3.9-113.1-5.5-169.6-8.6-2.4.3-7.3-1.3-4.3-4.1,2.6-18.6-2-39.8-2.4-59.1-47.2,40.5-91.8,87.2-141.6,123.1,42.6-48,99.8-86.9,141.2-134.5-2.1-56.1-9.6-113.2-7-169.1.3-1.7,3-1.8,4.2-.2,25.9,33.6,52.3,66.7,78.3,100.2,8.2,7.7,17,27.6,27,29.7,5.5,1.2,0,5,1,7.9-16.6-5.8-36.8-.8-54.6-2.4-12.8,15.6-33.1,26.5-43.7,42.9,1.3,20.1,1.7,40.3,3.6,60.3,55.8,2.6,111.3,5.1,166.9,7.6.7-29.6-4.2-12.9,36.8-18.6,12.4,1.4,20.9-8.5,30.8-14.4,23.4-15.5,46.8-31.1,70.2-46.6,44.1-29.3,88.7-57.8,133.1-86.5,19.8-12.7,39.2-26.1,59.2-38.4,3.4-1.7,7.3-7.1,11.1-4.2-67.5,105.7-134.9,217.3-201.7,325,11.3-2.6,19.3-3.3,15.9-16.6-.3-2.9.1-7.3,3.9-7.2,4.9,1.6.2,13.9,1.1,18.6-.3,4.6-.3,4.7-4.9,6-7.2,3.1-17.1,2.2-22.2,8.7-9.2,12.2-15.3,28-26.2,38-1.4.7-3-.9-2.8-2.5.5-9-16.9-13-19.7-22.4-1-4.1,3.5-6.8,6.9-8,12.4-5.1,28-6.1,38.7-13.7,9.9-16.1,19.8-32.2,29.9-48.1,57.2-87.6,111.9-177.1,167.7-265.5-89.5,59-180.3,118.7-269.4,177.1h0Zm-53.8,33.6c2,3.9-2,8.9-4.6,4-4-4-13.5-6.3-18.5-2.6-43.8,32.8,18.9,103.3,57.6,65.6,20.3-15.9,29.8-41.9,28.3-67.3-.3-1.8,0-3.7,2.2-2.7,8.8-9.9,21.6-17,31.2-26.5-54.1.8-51.3-.6-96.2,29.5h0Zm-85.1-130.2c-33.8-41.3-66.6-83.6-100.1-125,3.2,54.2,6.4,108.4,9.6,162.9,42.5-36.8,31.9-38.3,90.5-37.9h0Zm204.9,242.6c-9.6.6-21.3,5.1-31.6,7.5,5.5,6.1,10.8,11.9,16.3,18,5.1-8.6,10.2-17,15.3-25.5Z" fill="#2e3192" stroke-width="0"/>
  </g>
</svg>