<?xml version="1.0" encoding="utf-8"?>
<!-- Generator: Adobe Illustrator 28.0.0, SVG Export Plug-In . SVG Version: 6.00 Build 0)  -->
<svg version="1.1" xmlns="http://www.w3.org/2000/svg" xmlns:xlink="http://www.w3.org/1999/xlink" x="0px" y="0px"
	 viewBox="0 0 495.4 565.8" style="enable-background:new 0 0 495.4 565.8;" xml:space="preserve">
<style type="text/css">
	.st0{fill:#39B54A;}
	.st1{fill:#7F3F98;}
</style>
<g id="Player1_00000162338701452409246910000013795245459797709224_">
	<g>
		<g id="Player2">
			<path class="st0" d="M233.5,236.5c22.2-19,49.8-35.2,69-56c12.1,7.4,18.8,26.1,28.4,37.7c60.9-82.1,173.1-60.7,119,52.2
				c-27.9,62.4-117.9,134-165.8,60.8c-18.2-29-36.6-57.9-55-86.9c-32.6,25.9-65,51.6-97.6,77.5c9.5,13.7,18.7,27.5,28.5,40.9
				c-34.2,37.7-92.6,63.4-134.2,97.1c42-8.4,114.9-16.8,138.1,26c-42.4-29-110.3-36.1-159.6-12.3c-3.4,0.9-3.9-3.6-0.9-4.8
				c49.4-33,98.4-66.7,148.5-98.7c17.4-4-27.7-43.6-24.6-50.9c109.5-97.8,124.4-39.8,43.3-168.5c-24.6-36.9-45.4-78-71.4-113.1
				c-8.8-15.5,4.7-45.7,24-33.6c-50.5,2.8,0,60,12.4,80.8C168.6,135.5,200.9,186.1,233.5,236.5L233.5,236.5z M302.5,186
				c-63.2,58.5-86.1,30.6-30.5,111.3c41.2,80,78.7,77.6,141,17.4c26.3-30,50.1-70.7,41.3-111.9c-20.9-57.6-91.6-10.7-117.5,19.5
				C322.4,225.9,313,195,302.5,186L302.5,186z"/>
		</g>
		<ellipse class="st0" cx="129.8" cy="13.6" rx="9.8" ry="9.5"/>
	</g>
</g>
<g id="Player2_00000099644971938009798420000002302253066617302411_">
	<g>
		<g id="Player1">
			<path class="st1" d="M412.1,219.8c24-3.1,100.2,1.4,71.3-40.1c21.5,7.7,6,37-11.6,39.6c-43.6,1.2-88.8,10.1-133,13.5
				c-151.3,15.5-96.4-8.5-105.9,138c-3.9,6.9-62.8-4.2-55.2,12c5.7,59.2,9.4,118.5,13.8,177.8c1,3.1-2.9,5.5-4.3,2.2
				c-11.7-53.5-59.1-102.6-108.1-118.1c48.1-8.2,86.4,54.4,105.7,92.7c0.9-53.7-14.9-115.4-6.3-165.6c16.6-0.5,33.2-1.8,49.8-2.8
				c0.3-41.6,0.6-83.1,0.9-124.6c-34.1,3.4-68.2,6.6-102.3,10.2c-87.1,7.5-86.3-107.6-54.3-168c55.5-112.2,141.6-37,114.4,61.5
				c15.1,0.4,33.9-5.9,47.2-0.9c-4.6,27.9-0.2,59.6-1.5,88.9C292.5,230.7,352.2,224.9,412.1,219.8L412.1,219.8z M180.2,146
				c7.8-39,1.1-123.7-57.1-104.6C85.3,59.9,67.9,103.9,60.5,143c-9,86.2,12.2,117.1,100.6,100.3c97.8-6,61.7-6.8,68.8-92.6
				C216.4,147.9,186.2,159.5,180.2,146L180.2,146z"/>
		</g>
		<ellipse class="st1" cx="481.5" cy="178.3" rx="9.5" ry="10"/>
	</g>
</g>
</svg>
