<?xml version="1.0" encoding="UTF-8"?><svg xmlns="http://www.w3.org/2000/svg" viewBox="0 0 706.06 648.56"><g id="Player1"><path d="m705.94,141.39c-41.12,101.54-87.66,200.08-132.53,300.72-22.22,32.12-77.86,214.43-107.84,202.25-41.8-3.19-89.12,8.65-128.82,2.31,8.91-22.82-21.67-65.66-17-95.24,68.35-40.93,62.01-85.46-20.68-79.37,14.2-10.86,43.56-6.17,59.99,2.11,19.02,9.99,16.63,33.58,4.06,47.94-8.94,16.2-32.99,20.69-40.4,34.34,12.78,20.12,12.82,50.11,20.94,73.52-2.11,26.85,56.07,6.24,75.89,10.66,86.54,1.75,52.94-4.9,94.75-81.5,60.15-144.06,142.83-284.04,186.41-431.73-5.29-120.33-229.07,56.62-270.59,88.05-53.95,42.71-105.17,88.87-153.63,137.68,2.3,5.44-4.22,1.81-4.51-1.56-3.16-.24-3.07-.27-4.04-3.3-4.97-7.57-7.37-33.79-14.1-30.8-28.97,37.66-58.08,75.2-87.33,112.64-38.66,52.44-254.23,323.3-109.5,132.64,66.88-83.71,131.46-172.95,199.9-253.67,5.83,13.06,9.17,28.83,18.07,41.21,39.23-39.89,79.69-77.93,122.4-113.97,50.72-42.34,315.1-257.54,308.55-94.92Z" fill="#009444" stroke-width="0"/><path d="m26.03,632.97c.25,15.99-26.28,15.99-26.03,0-.25-15.99,26.28-15.99,26.03,0Z" fill="#009444" stroke-width="0"/></g><g id="Player2"><path d="m152.79,0c35.88,102.72,69.81,206.18,104.04,309.47,86.21,8.69,155.08,67.4,21.55,78.05-25.96-3.69,41.61-5.46,46.28-10.28,72.31-26.71-37.29-65.6-66.31-59.91C218.38,221.51,184.38,102.23,152.79,0Z" fill="#f15a29" stroke-width="0"/><path d="m304.9,495.85c-9.5-35.65-27.44-70.44-29.83-105.95,6.89,28.48,16.58,57.47,26.37,85.62.05,5.31,11.07,21.84,4.33,22.71-25.88,10.31-80.96,47.96-46.62,77.13,59.31,31.53,131.11,15.26,196,19.91,5.12-2.51,10.82,4.68,3.4,5.79-60.16-4.96-122.66,4.66-181.25-11.87-67.5-22.09-13.86-77.89,27.61-93.34Z" fill="#f15a29" stroke-width="0"/><path d="m621.13,233.14c-38.58,112.69-112.08,239.98-163.43,356.81,37.76-97.92,112.46-243.51,163.53-356.91l-.09.09Z" fill="#f15a29" stroke-width="0"/><path d="m621.22,233.05c-60.94,20.87-59.63-23.66-81.88-24.11-33.47.79-62.79,23.67-84.8,43.33,9.43-27.8,66.59-53.7,96.36-44.48,10.81,5.32,15.28,20.24,29.69,22.51,12,7.79,33.42-1.91,40.63,2.74Z" fill="#f15a29" stroke-width="0"/><path d="m462.95,253.93c.25,15.99-26.28,15.99-26.03,0-.25-15.99,26.28-15.99,26.03,0Z" fill="#f15a29" stroke-width="0"/></g></svg>