<?xml version="1.0" encoding="UTF-8"?>
<svg id="Layer_1" data-name="Layer 1" xmlns="http://www.w3.org/2000/svg" viewBox="0 0 792.35 947.75">
  <defs>
    <style>
      .cls-1 {
        stroke: #006838;
        stroke-miterlimit: 10;
      }

      .cls-1, .cls-2 {
        fill: #006838;
      }

      .cls-3 {
        fill: #f15a29;
      }

      .cls-3, .cls-2 {
        stroke-width: 0px;
      }
    </style>
  </defs>
  <g id="Player2">
    <path class="cls-1" d="m790.56,943.93c-31.95-51.4-52.48-117.52-78.16-174.82-2.35-9.92,3.79-27.6,9.52-35.73-4.73-9.36-6.15-19.9-18.94-17.51-29.21-3.6-52.19-27.5-69.01-49.96-4.96-17.98-66.79,28.23-83.69,32-51.08,25.15-102.37,49.86-153.11,75.68-2.56,1.09-6.01,2.84-6.59-1.39-18.31-36.66-36-73.66-53.44-110.76-33.31-70.33-66.59-140.68-99.53-211.19-1.46-5.19-12.92-18.55-3.29-18.89,44.79-19.58,89.22-43,133.96-63.7.9-7.76-15.5-20.1-16.95-31.5-16.51-46.71-22.53-99.71-21.44-147.89-9.98-7.74-71.46-27.45-66.98-35.52,3.48-21.77,15.6-44.7,36.43-54.54-53.18-1.47-100.11,55.42-80.28,106.91,13.46,27.54,30.27,53.6,43.35,81.3-22.41,12.4-53.97,29.13-79.4,44.03-7.37,1.93-66.88,42.58-57.33,24.73,38.87-26.27,96.75-45.27,127.4-73.36-13.31-22.69-23.42-49.16-37.77-70.23-18.62-24.8-6.31-64.3,13.05-86.38,19.45-24.03,49.51-33.04,79.37-31.13,3.84-1.69,13.48-3.33,13.72,2.62-.22,1.98-2.43,3.41-4.72,3.14-8.01-2.4-14.19,4.7-21.04,7.56-16.75,9.41-26.43,27.97-28.46,46.68,21.87,13.92,53.06,19.66,69.96,38.71,8.55,56.48,2.22,122.51,39.94,169.65,2.85,1.2,17.44-9.36,13.72.07-1.95.94-1.93,2.57-2.08,4.29-10.24,40.63,97.51,92.1,48.7,124.12-14.51,6.78-34.15,2.53-46.82-6.56-5.46-2.93-9.51-10.37-15.76-10.71-6.7-1.07-.32-14.11-1.12-19.21,2.05-23.52,7.51-47.46,8.01-70.76-10.3-30.33-114.68,44.24-145.22,50.25,52.48,111.74,104.96,223.52,155.9,336.48,78.37-38.22,156.72-76.42,235.26-114.72-1.97-4.86-14.48-32.85-1.14-28.02,14.65,4.17,67.31-15.79,76.08-7.39-5.21,8.68-23.09,4.97-32.62,8.37-14.02,1.77-27.46,3.12-41.68,3.77.82,5.61,1.89,21.43,8.76,18.68,19.47-9.14,40.21-18.64,58.13-29.76.27,1.42.8,2.52,0,2.94-18.29,11.01-38.4,20.75-57.44,30.23,10.47,27.18,47.02,58.2,80.66,59.8.46,8.97,9.38,16.83,6.93,25.71-2.12,9.82-13.67,20.15-7.26,29.21,25.18,57.67,52.72,115.03,72.41,174.68ZM386.29,391.88c-3.21,25.08-5.55,50.22-8.77,75.31,7,12.93,25.62,21.78,41.01,21.08,66.94-7.55-23.07-69.97-32.24-96.39Zm-5.1-24.32c2.9,5.74,3.41,3.95,3.75-1.57-1.47.61-2.48,1.03-3.75,1.57Z"/>
    <ellipse class="cls-2" cx="115.47" cy="367.79" rx="18.21" ry="17.3"/>
  </g>
  <g id="Player1">
    <path class="cls-3" d="m396.81,163.68c56.16,108.41,111.9,216.93,167.25,325.73-47.07,25.22-102.45,47.76-152.6,71.42,35.07,46.57,48.99,102.61,51.74,160.21.05,35.49,11.97,32.39,40.05,44.95,5.43,3.87,17.7,2.71,13.2,11.74,2.7,25.87-23.28,46.23-46.31,51.95,54.69,16.96,113.78-47.61,95.79-101.02-6.98-28.89-30.7-56.36-42.35-85.42,40.36-20.46,90.53-48.63,134.13-72.5,15.37-11.77,22.74-2.23,2.92,5.08-40.78,24.25-93,44.76-128.3,70.68,14.2,36.34,50.36,75.56,43.07,114.79-7.42,34.91-35.14,64.15-69.51,73.43-15.89,4.36-35.83,1.17-49.01-5.95,19.94-11.01,37.61-6.9,52.65-34.42,3.32-5.28,6.3-15.34,1.85-20.29-15.78-8.1-35.39-14.33-49.51-22.39-19.06-102.15-3.15-126.14-74.96-214.89-15.66-23.49-42.98-39.55-53.25-66.24-8.42-43.81,54.55-45.64,72.47-15.26,11.54,11.56-1.54,69.7-.07,90.54-5.08,24.11,30.72-6.21,41.63-7.69,37.23-16.6,74.29-33.54,111.68-49.78-38.26-44.74-147.75-362.2-191.08-311.5-71.16,34.29-142.33,68.52-213.47,102.81-6.72,3.27,2.71,14.16.64,20.54-5.2,9.29-21.99,4.96-31.46,7.56-9.42-1.32-33.43,9.02-37.16-.17.81-5.15,7.56-2.24,10.88-4.39,11.02-9.35,53.31-16.44,43-33.24-12.67-24.7-37.79-46.79-64.95-53.73-4.5-.86-9.92-.9-9.26-6.76-9.61-14.19-1.8-29.41,1.05-44.64C55.73,110.7,18,58.62.76,3.88.52,2.61-.9.87.88.12c1.46-.57,2,1.06,2.56,2.09,25.55,48.05,45.69,98.76,68.84,147.98,1.12,3.67,7.34,11.43-.25,11.84-3.07,8.72-3.13,20.15-5.15,29.86-2.8,26.58,18.45,16.83,33.86,26.98,21.56,12.04,44.18,30.76,50.22,55.66,70.68-29.51,146.2-71.52,218.5-105.1,5.32-3.19,41.03-22.34,27.35-5.76Zm4.89,385.56c2.87-25.84,1.7-54.38,4.35-81.06,2.17-17.02-23.73-25.15-37.21-26.91-27.54-5.2-40.62,28.53-20.64,46.26,19.67,18.89,37.66,39.49,53.5,61.72ZM144.1,284.87c-12.49,6.48-27.51,11.51-38.21,18.46,15.49-4.19,50.83,6.89,38.21-18.46Z"/>
    <ellipse class="cls-3" cx="674.9" cy="562.25" rx="18.21" ry="17.3"/>
  </g>
</svg>