<?xml version="1.0" encoding="UTF-8"?><svg xmlns="http://www.w3.org/2000/svg" viewBox="0 0 399.5 633.89"><g id="Layer_1"><g id="Layer_1-2"><path d="m100.7,17.5c-.84-.28-1.69-.49-2.47-.85-1.61-.74-2.4-2.2-2.11-3.67.3-1.49,1.57-2.76,3.27-2.68,2.45.13,4.99.25,7.28,1.01,16.83,5.57,27.48,17.08,31.29,34.33,2.84,12.79.54,25.13-5.57,36.72-1.01,1.92-2.17,3.78-3.34,5.62-.5.78-.75,1.46-.4,2.42,1.5,4.09,2.92,8.2,4.37,12.31.31.89.59,1.79.89,2.68.39,1.16.12,2.17-.76,2.98-.96.88-2.23,1.09-3.22.4-1.15-.8-2.11-.56-3.26-.25-5.9,1.62-11.91,1.61-17.94.97-.85-.09-1.7-.2-2.78-.32.12.74.15,1.29.31,1.8,1.59,5.35,3.02,10.77,4.87,16.03,1.06,3.01,2.29,5.94,2.97,9.06.32,1.48.79,2.94-.11,4.43-.22.36-.02.97,0,1.47.05,2.02-1.04,3.24-3.03,3.57-1.06.17-2.12.42-3.12.81-4.67,1.8-9.32,3.66-13.97,5.5-.52.21-1.03.47-1.6.74,1.35,2.99,2.68,5.87,3.95,8.79,3.73,8.59,7.51,17.16,11.13,25.79,3.18,7.56,6.18,15.2,9.29,22.78.23.57.64,1.12,1.11,1.51,2.37,1.99,2.7,4.09.82,6.41-6.1,7.52-11.44,15.56-16.32,23.91-4.19,7.17-7.48,14.76-10.31,22.55-.31.85-.44,1.86-.35,2.75,1.83,16.93,5.9,33.3,12.78,48.91,8.47,19.26,20.5,35.91,36.87,49.24,12.3,10.01,26.32,16.69,41.64,20.6,5.19,1.33,10.51,2.17,15.78,3.18,2.24.43,4,1.32,4.45,3.8.05.27.2.54.38.75,7.15,8.33,13.44,17.32,19.93,26.16,5.2,7.09,10.14,14.37,15.48,21.34,10.74,14.01,20.41,28.77,30.84,43,10.39,14.18,20.57,28.51,30.86,42.76,5.1,7.06,10.23,14.11,15.37,21.15.85,1.17,1.83,2.25,2.79,3.44,2.75.02,5.58.05,8.4.08,9.22.07,18.45.15,27.67.19,1.22,0,2.45-.16,3.65-.37,2.05-.35,3.29.62,3.16,2.68-.32,5.15-1.9,9.97-3.91,14.65-8.12,18.87-27.85,32.94-45.14,36.52-5.97,1.23-11.96,1.33-17.94.06-.85-.18-1.7-.41-2.5-.74-1.96-.81-2.84-2.42-2.34-4.11.46-1.53,2.12-2.53,4-2.29,1.3.16,2.57.48,3.86.7,5.86.96,11.58.08,17.23-1.4,11-2.89,20.15-8.88,27.87-17.07,6.23-6.61,11.33-13.99,14.18-22.74.15-.48.32-.97.45-1.46.05-.2.02-.42.02-.79-.62-.04-1.25-.12-1.88-.12-4.21-.06-8.43-.07-12.64-.16-7.7-.17-15.4-.41-23.09-.58-1.07-.02-2.15.15-3.21.32-1.54.26-2.65-.18-3.57-1.49-15.49-21.86-30.93-43.76-46.51-65.56-9.25-12.94-18.79-25.67-28.06-38.59-6.73-9.38-13.24-18.9-19.81-28.39-5.33-7.71-10.58-15.46-15.87-23.19-.32-.47-.67-.92-1.06-1.43-3.31,1.46-6.63.71-9.9.18-15.08-2.45-29.2-7.58-42.21-15.6-19.56-12.06-35.09-28.04-46.26-48.18-7.34-13.23-12.93-27.12-16.11-41.93-.15-.69-.38-1.36-.9-2.04-.12.61-.29,1.23-.35,1.85-2.71,27.61,5.44,51.78,23.33,72.76,9.16,10.74,19.85,19.8,31.9,27.15,5.7,3.47,11.63,6.57,17.48,9.78,2.25,1.23,2.51,1.59,2.31,4.25-.02.35.07.71.11,1.06.19,1.79-.21,2.6-1.83,3.26-5.11,2.1-9.47,5.35-13.54,8.99-9.74,8.69-16.2,19.49-20.08,31.86-5.18,16.48-5.61,32.98.22,49.41,1.17,3.27,2.65,6.44,4.11,9.6.4.87,1.15,1.63,1.89,2.28,1.5,1.3,1.72,2.9.31,4.3-.61.6-1.39,1.04-2.15,1.46-1.83,1.02-3.69,1.98-5.7,3.05.96,1.3,1.76,2.48,2.66,3.58,2.02,2.48,4.01,4.98,6.14,7.36,13.93,15.52,27.03,31.74,40.32,47.8,10.28,12.42,20.53,24.87,30.79,37.31.78.95,1.59,1.9,2.25,2.94.39.6.52,1.36.77,2.05-.14.14-.28.28-.41.41-.54-.2-1.19-.28-1.6-.63-.83-.7-1.56-1.52-2.27-2.35-18.76-21.71-37.54-43.4-56.25-65.17-5.54-6.44-10.81-13.11-16.3-19.61-3.32-3.94-6.81-7.74-10.22-11.6-.15-.16-.31-.31-.46-.47-1.45-1.65-1.36-2.93.41-4.19,1.95-1.4,3.96-2.71,5.93-4.06.77-.53,1.5-1.1,2.33-1.69-.27-.51-.43-.9-.67-1.23-5.25-7.38-8.14-15.73-9.49-24.57-3.77-24.68,2.45-46.64,18.55-65.74,4.72-5.61,10.36-10.15,16.76-13.75.56-.31,1.09-.67,1.87-1.14-.74-.4-1.27-.73-1.83-.99-14.67-6.65-27.97-15.42-39.88-26.23-16.06-14.59-27.58-32.12-33.08-53.29-3.57-13.74-4.23-27.69-1.79-41.7.95-5.49,2.48-10.89,3.7-16.34.28-1.26.5-2.58.41-3.86-.72-10.24-.54-20.47.43-30.69.76-7.95,1.94-15.86,3.82-23.63.58-2.38,1.53-4.65,2.31-6.98-1.83-.41-4.68.28-5.89,1.56-1.19,1.27-2.57,1.63-4.15,1.1-1.53-.52-2.06-1.73-2.38-3.31-.51-2.47-1.36-4.88-2.18-7.27-.16-.46-.76-.81-1.22-1.13-2.52-1.72-2.98-4.36-1.12-6.76.53-.68,1.17-1.28,1.8-1.89,2.89-2.84,3.95-6.33,3.8-10.29-.21-5.63-2.2-10.67-5.34-15.21-4.52-6.53-10.15-11.87-17.15-15.81-3.9-2.19-8-3.74-12.17-5.21-.54-.19-1.2-.5-1.67-.34-2.55.84-5.05.14-7.54-.18-8.71-1.1-16.53-4.34-23.27-10.01C1.28,118.15-1.49,107.48.71,95.2c1.21-6.79,4.34-12.74,8.24-18.33.25-.35.51-.69.5-.68-.5-1.6-.89-2.87-1.3-4.14-.6-1.86-1.22-3.73-1.82-5.59C3.33,57.1,1.41,47.51.36,37.74c-.3-2.81-.11-5.66-.25-8.49-.14-2.75,1.5-4.28,3.6-5.47,1.97-1.13,4.69-.25,5.46,1.96,1.77,5.08,4.75,9.48,7.8,13.8,20.05,28.46,46.65,48.46,79.18,60.63,2.64.99,5.41,1.62,8.13,2.42,1.12.33,2.07.15,3.05-.58,5.32-3.9,9.92-8.49,13.72-13.89.71-1.01.74-1.88.37-3.02-5.18-15.79-10.35-31.59-15.44-47.41-1.57-4.9-2.92-9.88-4.28-14.85-.48-1.73-.67-3.54-.99-5.34h-.02ZM4.2,33.26c0,1.03-.09,1.65,0,2.25,1.45,10.37,3.63,20.58,6.69,30.6.57,1.86,1.17,3.71,2.49,5.28.5.58.81,1.67.65,2.4-.58,2.66-1.3,5.26-2.48,7.78-3.08,6.56-5.21,13.45-5.05,20.77.24,11.07,4.93,19.55,15.11,24.54,5.41,2.65,11.23,3.86,17.2,4.37.85.08,1.7.28,2.53.49,1.1.29,2.18.71,3.29.97,1.34.31,2.74.39,4.06.74,4.78,1.27,9.48,2.79,13.76,5.31,2.88,1.69,5.74,3.44,8.4,5.44,7.79,5.83,13.33,13.28,15.85,22.81,1.25,4.71.95,9.36-.5,13.95-1.31,4.15-3.5,7.78-6.73,10.72,1.08,2.07,2.12,4.04,3.09,5.91,1.5.18,1.86-.78,2.07-1.41,1.62-.45,3.01-.77,4.35-1.25,1.38-.49,2.6-.31,3.64.64,1,.92,1.27,2.06.78,3.37-.17.44-.3,1.01-.17,1.44.7,2.3.43,4.62.15,6.92-.61,5.11-1.46,10.21-1.88,15.34-.58,7.09-.84,14.19-1.21,21.3-.03.51.12,1.03.18,1.53,6.12-11.99,13.47-23.01,21.81-33.37-1.08-2.03-2.12-3.86-3.05-5.74-6.33-12.83-12.65-25.66-18.92-38.5-1.6-3.26-3.07-6.58-4.48-9.92-.49-1.17-.76-2.5-.86-3.77-.12-1.42.66-2.49,1.95-3.14,3.83-1.9,7.71-3.73,11.51-5.69,3.96-2.05,8.21-3.59,11.56-6.5-1.24-4.55-2.48-9.07-3.73-13.59-.27-.98-.62-1.93-.93-2.9-1.11-3.53-2.15-7.09-3.36-10.57-.81-2.32-2.27-3.97-4.87-4.6-5.51-1.33-10.87-3.14-16.06-5.44-21.2-9.42-39.43-22.98-55.57-39.54-8.17-8.38-15.28-17.49-20.57-27.97-.12-.23-.31-.43-.7-.98h0Zm99.59-14.58c8.4,20.35,14.26,41.15,21.75,61.63.34-.49.54-.71.65-.96,5.28-11.4,6.98-23.1,3.11-35.34-3.79-11.95-11.63-20.02-23.18-24.63-.65-.26-1.34-.41-2.32-.71v.02Zm9.64,85.39c4.79.25,9.19.47,13.58-1-.44-3.1-1.6-5.87-2.61-8.72-3.67,3.24-7.17,6.34-10.97,9.71h0Z" fill="#1c75bc" stroke-width="0"/><circle cx="207.72" cy="625.74" r="8.15" fill="#1c75bc" stroke-width="0"/></g></g><g id="Player2"><g id="Player2-2"><path d="m321.24,501.92c1.51.85,3,1.65,4.8,1.92,2.15.32,3.18,2.46,2.38,4.52-.31.8-.84,1.52-1.32,2.25-2.97,4.49-6,8.93-8.92,13.44-5.18,7.99-10.18,16.1-15.49,24.02-9.55,14.26-19.22,28.43-28.95,42.57-4.03,5.87-8.3,11.57-12.56,17.28-2.12,2.85-4.44,5.57-6.69,8.33-.36.44-.79.88-1.28,1.15-.31.16-.86.12-1.17-.06-.21-.12-.37-.65-.3-.94.15-.63.4-1.25.71-1.82,4.86-8.52,9.53-17.15,14.68-25.5,6.45-10.45,13.44-20.58,19.95-31,9.51-15.24,19.76-29.99,29.87-44.84,1.3-1.9,2.51-3.86,3.88-5.98-2.97-1.36-5.65-2.65-8.38-3.81-1.48-.63-2.65-1.46-3.22-3.37.56-.7,1.2-1.54,1.89-2.36.64-.78,1.42-1.48,1.96-2.32,1.9-2.94,3.61-6.01,4.23-9.5.64-3.64,1.19-7.3,1.56-10.98.83-8.07-1-15.91-2.38-23.78-.85-4.83-2.8-9.31-4.54-13.86-3.92-10.21-9.19-19.62-16.57-27.73-5.05-5.55-10.94-10.01-18.23-12.28-2.05-.64-3.5-1.75-3.73-4.03-.71-.15-1.36-.23-1.96-.45-.64-.24-.73-1.01-.15-1.36.42-.25.94-.34,1.43-.44,2.19-.47,4.41-.79,6.56-1.39,6.9-1.92,13.4-4.76,19.31-8.86,15.56-10.81,26.05-25.61,33.05-42.94,5.9-14.61,9.06-29.88,9.4-45.67.35-16.36-1.76-32.35-7.27-47.82-3.54-9.95-8.74-18.99-15.27-27.27-.46-.59-1.02-1.1-1.86-2.01-.71,4.32-1.36,8.09-1.89,11.89-.08.61.35,1.36.68,1.96,1.46,2.59,3.04,5.12,4.48,7.73,7.25,13.24,11.23,27.41,11.59,42.51.38,16.36-3.87,31.69-11.33,46.11-4.82,9.33-10.94,17.88-17.99,25.67-10.98,12.14-23.4,22.64-37.35,31.23-4.82,2.97-9.85,5.59-14.87,8.23-8.49,4.46-17.32,8.21-26.16,11.92-2.56,1.07-4.84,1.39-6.97-.83-.22.38-.38.62-.51.88-5.7,11.94-11.26,23.95-17.12,35.81-8.01,16.23-16.22,32.37-24.38,48.53-7.01,13.89-14.06,27.77-21.11,41.63-6.66,13.09-13.4,26.13-19.99,39.26-1.23,2.44-2.39,4.16-5.51,4.33-4.41.25-8.76,1.23-13.17,1.64-5.71.54-11.46.81-17.18,1.22-.67.05-1.33.17-2.27.28.62.94.98,1.56,1.42,2.12,10.9,14.07,24.88,23.66,41.97,28.65,5.41,1.58,10.99,2.31,16.59,1.14,3.88-.81,7.57-2.05,9.18-6.37.61-1.61,2.19-2.32,3.94-2.18,1.64.14,2.91.95,3.46,2.58.58,1.7.08,3.14-1.26,4.32-.98.86-1.96,1.73-2.95,2.58-1.96,1.66-4.15,2.92-6.62,3.68-5.98,1.85-12.02,1.84-18.11.68-11.38-2.15-21.45-7.19-30.65-14.06-7.69-5.74-14.51-12.34-19.49-20.64-.84-1.41-1.64-2.5-3.54-2.71-1.81-.2-2.93-1.89-2.94-3.57-.02-1.73,1.23-3.32,3.04-3.79.7-.18,1.43-.26,2.15-.28,3.63-.13,7.26-.33,10.9-.32,7.84.02,15.68.15,23.53.25.74,0,1.26-.18,1.58-.87.21-.46.49-.89.72-1.34,9.15-17.86,18.23-35.76,27.44-53.58,15.37-29.7,30.8-59.37,46.28-89.02,3.57-6.83,7.36-13.54,11.1-20.28.58-1.04,1.13-2,2.47-2.57.99-.42,1.43-1.99,2.28-2.91.46-.5,1.23-.74,1.9-1,1.23-.45,2.49-.79,3.72-1.23,21.22-7.52,40.63-18.39,58.23-32.33,14.41-11.4,26.29-24.99,34.22-41.83,4.39-9.31,7.34-18.94,8.48-29.15,1.31-11.77.42-23.33-2.78-34.77-2.67-9.52-6.54-18.48-11.64-26.92-.81-1.34-1.33-2.55-.22-4,.33-.43.39-1.08.51-1.65.77-3.55,1.45-7.12,2.32-10.64.37-1.49-.04-2.42-1.12-3.4-4.42-4.04-9.08-7.78-14.43-10.47-3.11-1.56-3.82-4.13-3.77-7.18.02-1.3.25-2.6.42-3.9,2.77-19.86,6.24-39.61,9.99-59.31.24-1.27.44-2.53.66-3.85-3.27-.7-6.4-1.31-9.5-2.04-5.15-1.22-10.3-2.5-15.43-3.81-.83-.21-1.66-.58-2.35-1.09-1.89-1.4-1.76-3.83.22-5.08.48-.3,1.01-.52,1.36-.7.77-4.86,1.5-9.55,2.25-14.34-.54.03-.89.05-1.25.07-3.34.17-6.67.37-10.01.48-1.87.06-3.76-.14-5.62,0-1.93.14-2.71-.59-2.25-2.54,1.31-5.58,2.58-11.18,4.03-16.72.47-1.79.23-3.01-.98-4.49-10.06-12.35-13.77-26.46-10.55-42.07,3.15-15.28,12.41-25.62,26.9-31.29,1.48-.58,3.04-1,4.61-1.26,1.4-.24,2.66.66,3.12,1.87.44,1.17.18,2.58-1,3.27-1.27.74-1.5,1.82-1.77,3.03-2.59,11.48-5.16,22.97-7.82,34.43-2.04,8.77-4.16,17.53-6.33,26.28-.38,1.54-.13,2.65,1.06,3.65,1.83,1.55,3.6,3.17,5.44,4.71,1.78,1.5,3.64,2.9,5.41,4.4.77.65,1.35,1.4,2.5,1.57,1.17.18,1.62,1.13,1.44,2.31-.06.43-.27.83-.36,1.25-.48,2.07-.93,4.15-1.45,6.46,1-.19,1.66-.24,2.25-.44,3.42-1.2,6.89-2.3,10.23-3.71,11.16-4.72,21.56-10.74,30.96-18.43,10.73-8.79,20.6-18.33,28.72-29.68,7.51-10.48,13.72-21.57,18.04-33.72.29-.82.64-1.63,1.09-2.38,1.81-3.01,5.95-2.94,7.62.12.44.83.87,1.69,1.1,2.6.67,2.82,1.43,5.65,1.83,8.52,1.3,9.41,1.24,18.85,0,28.26-.59,4.47-1.57,8.86-4.4,12.55.03.09.03.18.08.22.51.4,1.03.81,1.56,1.18,3.39,2.36,6.19,5.3,8.35,8.8,5.31,8.6,7.42,17.76,4.56,27.72-1.3,4.55-3.46,8.73-6.73,12.09-2.52,2.58-5.49,4.76-8.49,6.78-2.15,1.44-4.69,2.12-7.38,2.42-4.11.45-8.24,1.07-12.24,2.09-8.81,2.24-16.91,6.07-24.23,11.55-6.1,4.56-10.67,10.26-13.5,17.32-1.55,3.87-2.26,7.81-.31,11.82.48.99.24,2.01-.38,2.9-.31.46-.73.85-1.22,1.42,2.06,1.42,3.96,2.87,5.98,4.1,2.32,1.41,3.27,3.62,3.17,6.05-.1,2.58-.71,5.17-1.34,7.69-.41,1.62-1.34,1.95-3.15,1.96-.93,0-1.9.12-2.77.42-1.42.51-2.76,1.22-4.05,1.8-.96,6.11-1.84,12.07-2.87,18.01-.25,1.46.08,2.45,1.07,3.49,5.18,5.46,9.71,11.44,13.25,18.07,10.61,19.85,15.73,41.04,15.02,63.56-.59,18.89-4.55,37-12.88,54.09-5.87,12.03-13.34,22.83-23.22,31.9-6.81,6.26-14.52,11.11-23.1,14.57-1.86.74-3.74,1.4-5.91,2.2.83.44,1.36.78,1.94,1.03,3.45,1.48,6.49,3.6,9.27,6.07,4.03,3.58,7.77,7.45,11,11.78,9.26,12.41,14.88,26.36,17.73,41.54,1.11,5.91,1.23,11.82,1.13,17.8-.12,7.32-1.57,14.29-4.94,20.8-1.36,2.62-3.02,5.08-4.65,7.8,2.17,1.27,4.47,2.63,6.8,3.95v-.02Zm-19.27-309.16c3.69,2.45,7.34,4.95,10.98,7.48.64.44,1.18,1.07,1.93,1.76.3-.7.51-1.06.6-1.44,1.17-4.88,2.32-9.75,3.43-14.64.12-.51-.02-1.11-.18-1.63-.52-1.62-.35-2.2,1-3.12.88-.61,1.74-1.25,2.71-1.95.24.38.45.71.55.87,1.45-.18,2.8-.43,4.16-.51,1.02-.06,1.57-.51,1.93-1.43.64-1.63,1.3-3.23,1.04-5.18-1.97-.19-3.14-1.63-4.43-2.85-1.59-1.5-3.13-3.04-4.66-4.59-.35-.35-.74-.76-.89-1.21-.56-1.78-1.17-3.56-1.51-5.38-1.59-8.6.71-16.33,5.85-23.2,7.95-10.62,18.35-17.92,31.09-21.69,5.38-1.59,10.9-2.51,16.48-1.99.74-.94,1.31-1.99,2.18-2.67.83-.64,1.94-.96,2.97-1.3,9.14-2.96,14.12-9.42,15.9-18.67,1.53-7.94-.27-15.18-4.59-21.82-1.69-2.6-3.88-4.88-5.9-7.26-.75-.88-1.79-1.57-1.3-2.98.02-.07.06-.18.03-.21-1.76-1.63-.4-3.18.1-4.77.24-.76.41-1.55.52-2.33,1.08-7.64,1.79-15.3,1.56-23.02-.13-4.21-.24-8.43-.4-12.64-.04-1-.24-1.99-.42-3.42-.44.73-.74,1.08-.9,1.5-4.17,11.05-10.12,21.14-17.3,30.42-10.77,13.93-23,26.4-37.89,36.07-6.53,4.24-13.14,8.3-20.26,11.46-5.92,2.62-12.02,4.74-18.36,6.13-.84.18-1.67.45-2.44.66-1.34,5.11-2.65,10.08-4,15.21.13.06.36.21.61.28,7.04,2.04,14.09,4.07,21.13,6.12.7.2,1.37.48,2.04.77,2,.87,2.32,1.37,2.46,3.79,2.12,1,2.14,2.7,1.67,4.86-1.01,4.69-1.64,9.45-2.62,14.14-3.26,15.57-6.6,31.13-9.92,46.68-.15.69-.29,1.37-.48,2.31,2.21-.44,3.93.33,5.51,1.38h.02Zm-35.93-172.74c-6.01,9.72-7.35,20.2-4.63,31.24,1.21,4.91,3.2,9.49,5.89,13.77.38.61.81,1.18,1.52,2.19,2.72-10.37,4.98-20.44,7.54-30.43,2.56-9.98,5.11-19.96,7.76-30.31-8.04,2.38-13.94,6.85-18.07,13.54h0Zm-.2,75.66c5.44.67,10.67-.25,16.2-1.06.52-2.54,1.04-5.05,1.6-7.76-5.45-.76-9.76-3.44-13.91-7.23-1.35,5.56-2.59,10.67-3.9,16.04h0Z" fill="#215118" stroke-width="0"/><circle cx="250.52" cy="623.32" r="8.15" fill="#006838" stroke-width="0"/></g></g></svg>