<?xml version="1.0" encoding="utf-8"?>
<!-- Generator: Adobe Illustrator 28.0.0, SVG Export Plug-In . SVG Version: 6.00 Build 0)  -->
<svg version="1.1" id="Layer_1" xmlns="http://www.w3.org/2000/svg" xmlns:xlink="http://www.w3.org/1999/xlink" x="0px" y="0px"
	 viewBox="0 0 795 413.5" style="enable-background:new 0 0 795 413.5;" xml:space="preserve">
<style type="text/css">
	.st0{fill:#F15A29;}
	.st1{fill:#006838;}
</style>
<g id="Player2">
	<path class="st0" d="M570.3,92.7c22.8-44.4,24.9-29,40.1,7.9c9-0.1,17.9,1,26.9,1.6c51,3.5,89.4,23.6,99.3,65.6
		c4.8,20.5,35.2,26.1,52.2,39.2c3.9,2.2,24.5,17.5,12.8,16.2c-13.8-13.3-31.4-21.7-46.4-33.5c-6.5-4.2-12.4-10.6-19.1-14.1
		c-6.8,2.8-7.4-19.8-15.3-24.6c-26.5-29.8-72.9-44.6-109.3-45.1c-9.8,6.4-13.8-26.4-19.2-32.7c-5.2,7.1-13.1,13.6-16.7,20.9
		c1.8,2.7,0.3,6.3-3.3,6.8C535,106.9,494,98.2,464.2,73c-25.9-23.4,21-32.1-20.3-21.4c-3.1,0.1,59.4,248.7,53.4,244.2
		c-1-6.6-44.4-267-48.3-254.9C464.7,87.3,527.5,100.4,570.3,92.7L570.3,92.7z"/>
	<g>
		<path class="st0" d="M53.3,54.1C45.8,49.8,37,38,28.8,38C30.3,48.8,91,87,53.3,54.1z"/>
		<path class="st0" d="M292.5,256.9c-31.2,52.7-116,35.1-153.1-3.2c-17.8-22.2,16.3-42.9,35.7-46.5c17.5-5.5,37.4-4.6,51.9-16.8
			c15.4-23.7,27.4-53.8,20.7-82.8c-27.8-90.3-140.9-83.2-214-69.9c29-13.8,61.8-11.6,94.8-11.3c91.6,0.5,166.7,78.6,104.4,162.9
			c-19,19.6-48.1,15.6-71.3,27.1c-55,26.5,7.3,55.8,37.1,65.5c30.2,6.1,67.5,2.7,86.6-24.3c2-3.2,1.9-3.3,5.8-2.9
			c69.4,9,139.7,25.3,208.6,39.9"/>
		<path class="st0" d="M53.3,54.1C99.6,93.2,34.4,51.7,28.8,38C25.6,30.4,45.8,49.8,53.3,54.1z"/>
	</g>
	<ellipse transform="matrix(0.657 -0.7539 0.7539 0.657 -29.7768 81.4627)" class="st0" cx="74.6" cy="73.5" rx="17.7" ry="17"/>
</g>
<g id="Player1">
	<path class="st1" d="M227.9,322.3c-25.1,43.2-26.4,27.6-39.6-10c-9-0.4-17.8-1.9-26.8-3c-50.8-6.1-88.1-28.2-95.8-70.6
		C62,218,31.9,210.8,15.6,196.9c-3.8-2.4-23.6-18.7-12-16.9c13.1,14,30.2,23.3,44.6,35.8c6.3,4.5,11.8,11.2,18.3,15
		c6.9-2.5,6.4,20.2,14,25.4c24.9,31.1,70.5,48.3,106.9,50.7c10.1-5.9,12.4,27.1,17.5,33.7c5.5-6.9,13.7-12.9,17.8-20
		c-1.7-2.8,0-6.3,3.7-6.6c37.4-4.2,77.9,6.6,106.3,33.4c24.7,24.7-22.6,31,19.2,22.4c3.1,0-46.5-251.4-40.7-246.6
		c0.6,6.6,30.6,268.9,35.1,257.1C333.1,333.1,271,316.8,227.9,322.3L227.9,322.3z"/>
	<g>
		<path class="st1" d="M742.2,387.5c7.2,4.7,15.4,16.9,23.7,17.3C764.9,394,706.2,352.6,742.2,387.5z"/>
		<path class="st1" d="M513.8,172.6c33.9-51,117.7-29.1,152.8,11.1c16.6,23.1-18.5,42-38,44.6c-17.7,4.6-37.5,2.7-52.7,14.1
			c-16.6,22.9-30.2,52.3-24.9,81.7c23.1,91.6,136.4,90.3,210.1,80.8c-29.7,12.3-62.4,8.4-95.2,6.4c-91.4-5.3-162.5-87.1-95.8-168.1
			c20-18.6,48.8-13.1,72.6-23.4c56.3-23.6-4.5-56.1-33.6-67.3c-29.8-7.6-67.3-6.2-87.8,19.8c-2.2,3.1-2,3.2-5.9,2.6
			c-68.9-12.5-138.2-32.5-206.3-50.6"/>
		<path class="st1" d="M742.2,387.5c-44.3-41.5,18.7,3.3,23.7,17.3C768.6,412.6,749.4,392.1,742.2,387.5z"/>
	</g>
	<ellipse transform="matrix(0.6949 -0.7191 0.7191 0.6949 -43.6816 631.0775)" class="st1" cx="721.9" cy="367" rx="17.7" ry="17"/>
</g>
</svg>
