<?xml version="1.0" encoding="UTF-8"?>
<svg id="Layer_1" data-name="Layer 1" xmlns="http://www.w3.org/2000/svg" viewBox="0 0 914.39 883.6">
  <defs>
    <style>
      .cls-1 {
        fill: #f7941d;
      }

      .cls-1, .cls-2 {
        stroke-width: 0px;
      }

      .cls-2 {
        fill: #009444;
      }
    </style>
  </defs>
  <g id="Player2">
    <path class="cls-2" d="m647.41,535.33c12.2-3.67,24.85-10.58,38.21-10.87,46.72,73.75,103.26,153.78,152.64,229.99,25.18,39.89,54.05,77.93,76.14,119.42-17.9,5.12-40.21,2.8-56.32,9.72-49.04-62.31-84.32-140.83-128.42-208.67-25.57-43.49-52.23-86.57-76.71-130.61-5.26-8.49-13.73.37-20.79,1.87-11.87.46-8.85-19.44-16.9-25.8-40.86-28.24-39.72-25.58-61.8,15.71-51.33-10.26-78.09-57.89-120.52-84.41-66.52-9.88-13.07,10.56-63.71,23.22-33.43,9.13-121.23,1.35-119.95-33.81-10.9-3.58-28.49-1.59-36.27-8.05,14.62-2.91,31.65,5.15,46.79,6.39,17.58-.06,35.08-3.12,52.6-4.98-19.8-1.08-25.83-15.54-45.52-17.51,27.31-3.04,43.34,18.86,70.21,13.95,15.64-4.92,33.29-23.36,49.94-15.65,7.8,6.49,18.43,10.01,26.7,11.32-11.09,6.53-32.57,2.66-46.37,6.29,33.23-.39,62.47,15.95,96.05,11.9,9.43-1.16,7.19,5.08,10.8,10.37,7.74,13.59,20.67,26.21,41.62,37.31,13.33,5.89,44.71,21.19,53.26,2.36.75-2.6,9.09-1.01,8.11-7.4,1.96-18.03-16.47-31.24-26.27-43.4,12.84-.71,25.7,6.17,38.38,8.44,16.04,1.39,14.91,20.14,20.98,31.5,7.04,22.36,12.84,43.09,37.14,51.38Zm261.53,335.67c-65.56-90.76-125.08-185.3-188.18-277.65-14.12-21.24-28.05-42.5-42.07-63.75-8.56-1.43-18.31,5.93-26.82,8.61,40.57,57.45,77.34,126.66,116.55,188.26,29.87,49.49,59.58,99,89.41,148.49,12.7,7.37,34.31-5.21,51.1-3.97ZM258.5,442.51c6.92,31.84,93.83,41.07,121.31,19.7,4.05-3.73,6.67-8.25,5.99-12.26.09-7.82,24.95-1.96,32.5-4.6-31.7-15.47-71.15-14.58-100.88,6.12-19.63.54-38.92-7.38-58.91-8.96Zm180.88,6.36c37.32,25.59,61.72,62.32,105.23,80.24,10.42,6.28,12.08-15.1,17.5-21.22-19.91,1.38-41.48-4.47-57.59-13.48-49.97-23.81-28.52-52.99-65.13-45.55Zm120.99-.64c49.19,42.1-4.24,40.76,53.42,66.55-6.85-19.27-14.54-38.37-21.44-57.64-9.31-4.95-21.51-5.71-31.98-8.91Zm-235.9-11.09c-16.94.69-36.01,2.4-52.56,4.62,18.99,4.57,36.29,8.27,52.56-4.62Zm73.83-11.19c-14.09-13.36-24.34-5.01-38.4,3.95,13.36-.97,25.41-2.66,38.4-3.95Zm231.8,115.97c21.42-4.48,5.86-9.19-4.78-14.92,1.62,5.06,3.2,9.99,4.78,14.92Z"/>
    <ellipse class="cls-2" cx="207.67" cy="434.83" rx="13.03" ry="11.67"/>
  </g>
  <g id="Player1">
    <path class="cls-1" d="m610.85,418.71c12.64,4.74,30.71,3.95,41.28,10.28-25.85,2.93-49.95-15.44-76.81-3.19,14.9.28,19.43,11.85,33.5,12.13-17.35,3.75-29.74-12.34-48.49-9.9-40.44.05-44.44,22.11-61.39,20.01-6.89-8.48-15.07-13.05-25.55-13.1,12.7-5.49,31.62-3.06,46.71-6.08,8.15-1.48-18.39-.77-23.01-.67-14.6-3.53-30.88-6.87-43.92-15.07-4.59-2.92-15.58.64-19.25-3.51-24.53-29.56-62.17-49.48-101.88-52.91-6.38,5.2-7.54,41.19-7.44,52.07,2.94,3.08-1.78,5.03-4.31,6.04-4.7.76-8.06-.4-6.63-4.52-8.26-34.12-40.38-63.43-57.11-95.43-11.5-3.99-31.99,31.08-45.42,23.32C141.14,229.26,70,120.78,1.99,10.5-11.45-4.65,47.27,5.66,55.52,3.52c-2.65-3.63,4.12-4.47,5.75-2.43,27.8,39.49,57.9,89.78,86.94,133.45,33.74,52.03,67.79,104.01,101.41,156.13,12,25.12,10.44,1.8,22.28,12.07,16.05,16.13,24.49,59.37,49.54,49.72.48-9.9,6.67-22.44,3.72-31.06-3.11-2.87,5.6-3.4,7.29-2.19,36.78,20.99,70.3,54.57,103.15,79.42,9.52,12.67,31.21,10.87,46.09,9.7,1.4-14.98,20.07-23.42,47.34-27.1,29.87-3.91,81.87,3.14,93.21,27.96,3.95,8.76-4.23,8.37-11.39,9.52Zm-391.11-84.45c10-8.74,25.15-16.61,32.04-26.73-18.85-28.9-37.58-57.93-56.22-86.9C154.7,155.19,111.21,91.18,69.92,26.01,60.08-1.09,37.78,12.55,14.89,9.91c-13.03-1.02,8.82,18.6,11.03,25.53,66.33,98.72,128.29,199.57,193.83,298.81Zm277.17,91.96c23.01,4.38,41.13-5.3,60.24-17.31,12.46-2.51,52.04,17.93,56.08,3.31-16.88-37.16-104.07-36.58-125.21-5.33-.48.89-1.17,1.69.51,2.62-3.04,5.89-20.78.63-28.32,2.73,11.21,7.09,21.92,10.68,36.69,13.98Zm-188.62-67.71c-11.2,18.04-36.54-69.3-45.93-51.5,11.36,28.13,36.1,56.51,51.88,84.68,5.86-1.45,3.51-25.79,6.51-34.96-4.88.28-8.85.76-12.47,1.78Zm21.62-5.89c18.46.72,32.41,5.42,49.34,10.27-13.62-13.39-30.5-24.72-44.97-36.75-5.92.53-2.16,19.56-4.37,26.48Zm214.7,73.45c17.32-.55,33.82-3.67,50.12-7.09-17.61-5.66-37.47-9.57-50.12,7.09Zm-31.11,7.14c-7.98.74-15.54,1.43-23.51,2.17,8.04,11.92,14.77,6.13,23.51-2.17Zm-71.48-24.65c-1.94.95.53,1.3,1.87.86-.64-.3-1.17-.54-1.87-.86Z"/>
    <ellipse class="cls-1" cx="660.28" cy="428.11" rx="12.69" ry="10.88"/>
  </g>
</svg>