<?xml version="1.0" encoding="UTF-8"?>
<svg id="Layer_1" data-name="Layer 1" xmlns="http://www.w3.org/2000/svg" viewBox="0 0 1042.06 522.4">
  <defs>
    <style>
      .cls-1 {
        fill: none;
      }

      .cls-1, .cls-2, .cls-3, .cls-4, .cls-5, .cls-6 {
        stroke-width: 0px;
      }

      .cls-7 {
        opacity: .7;
      }

      .cls-2 {
        fill: #2bb673;
      }

      .cls-3 {
        fill: #fff;
      }

      .cls-4 {
        fill: #f15a29;
      }

      .cls-5 {
        fill: #f7941d;
      }

      .cls-6 {
        fill: #006838;
      }
    </style>
  </defs>
  <g id="Player2" class="cls-7">
    <path class="cls-3" d="m8.15,207.22c37.88,66.79,373.49,46.78,454.52,44.38,77.64,359.74,87.22,362.54,8.09-.48,89.19-5.19,178.04-14.18,266.49-26.53,5.54-.61,2.62-8.15-2.17-6.11-87.97,13.13-176.66,22.6-265.49,27.75-4.94-22.17-9.84-44.18-14.76-66.25,54.81.97,121.19-27.19,137.4-83.74,9.45-37.09-23.85-67.18-57.13-75.38-46.82-13.05-99.26-3.84-139.27,23.57-9.51,4.31-20.53-5.09-30.45-6.42-6.59-4.58-8.35-14.32-12.68-21.09,1.22-.39,2.26-.72,3.57-1.14-20.06-1.7-39.63,7.8-58.96,12.53-75.58,23.76-147.58,58.64-215.48,99.28-12.92,5.98-110,72.21-73.68,79.62Z"/>
    <path class="cls-4" d="m8.15,207.22c-36.66-7.07,61.46-74.16,73.68-79.61,67.89-40.64,139.9-75.53,215.48-99.29,19.35-4.73,38.89-14.22,58.96-12.53-1.31.42-2.35.75-3.57,1.14,4.3,6.75,6.12,16.51,12.68,21.09,9.88,1.32,20.98,10.75,30.45,6.43,40.01-27.42,92.46-36.63,139.27-23.58,33.26,8.2,66.6,38.29,57.13,75.38-16.22,56.57-82.59,84.69-137.4,83.74,4.92,22.06,9.82,44.07,14.76,66.25,88.83-5.15,177.52-14.62,265.5-27.75,4.66-2.03,7.83,5.49,2.17,6.11-88.44,12.35-177.3,21.34-266.49,26.53,79.58,365.2,69.05,358.04-8.09.48-80.48,2.33-416.34,22.53-454.52-44.38ZM348.95,18.78C282.18,30.08,20.71,139.19,8.37,203.7c.72-.4,1.33-.74,2.26-1.25,28.25,68.66,375.1,47.02,451.04,44.27.7-5.83-24.82-89.23-7.24-68.89,38.8-3.91,78.51-14.6,107.94-41.62,37.66-31.3,34.04-85.97-13.37-104.88-48.67-20.56-107.35-9.62-150.91,18.38-6.19,3.25-26.28-6.62-35.03-7.61-1.73-.47-2.98-1.13-3.19-3.07-3.21-6.86-7.26-13.3-10.92-20.27Z"/>
    <path class="cls-3" d="m348.95,18.78c3.65,6.97,7.7,13.41,10.92,20.27.21,1.94,1.46,2.61,3.19,3.07,8.57.95,28.96,10.89,35.03,7.62,43.56-28.01,102.24-38.95,150.91-18.39,47.33,18.88,51.09,73.59,13.36,104.88-29.44,27.01-69.13,37.71-107.94,41.62-17.56-20.25,7.88,62.75,7.24,68.89-75.34,2.67-422.47,24.52-451.04-44.27-.93.51-1.54.86-2.26,1.25C20.4,139.49,281.77,30.16,348.95,18.78Z"/>
  </g>
  <g id="Player1" class="cls-7">
    <path class="cls-1" d="m953.52,85.49c-71.53-33.83-146.59-61.52-224.13-77.8-19.7-2.82-40.11-10.37-59.9-6.72,1.34.29,2.41.51,3.67.78-3.66,7.16-4.45,17.02-10.57,22.22-9.74,2.29-19.79,12.72-29.68,9.36-42.5-23.38-95.59-27.44-140.91-9.88-32.32,11.41-62.52,44.6-49.51,80.59,21.66,54.7,90.46,76.26,144.92,69.94-2.74,22.44-5.48,44.82-8.23,67.37-88.91,3.54-178.1,2.76-266.94-1.73-4.97-1.57-7.14,6.23-1.56,6.29,89.23,3.67,178.54,3.96,267.8.42-43.35,369.01-34.09,365.28,8.1-.31,80.88-5.51,416.84-18.32,448.03-88.49,35.42-10.92-67.65-67.36-81.1-72.05Z"/>
    <path class="cls-6" d="m586.59,246.04c-41.91,363.37-51.69,371.53-8.1.31-89.27,3.53-178.58,3.24-267.8-.42-5.7-.07-3.27-7.86,1.56-6.3,88.84,4.49,178.03,5.27,266.94,1.73,2.75-22.55,5.49-44.93,8.23-67.37-54.46,6.29-123.25-15.23-144.91-69.95-13.04-35.98,17.2-69.19,49.5-80.59,45.32-17.55,98.41-13.5,140.91,9.89,9.85,3.38,19.98-7.09,29.68-9.36,6.09-5.19,6.94-15.08,10.56-22.22-1.25-.27-2.32-.5-3.67-.78,19.81-3.64,40.19,3.9,59.9,6.72,77.54,16.27,152.6,43.97,224.13,77.8,12.7,4.24,116.89,61.44,81.1,72.05-31.47,70.32-367.71,82.96-448.03,88.49Zm81.6-221.57c-.02,1.95-1.2,2.74-2.88,3.37-8.61,1.84-27.65,13.62-34.13,10.99-46.09-23.63-105.54-28.79-151.98-3.58-45.34,23.44-43.61,78.2-3.08,105.68,31.93,24.01,72.49,30.79,111.48,30.89,15.51-21.96-1.76,63.53-.49,69.26,75.84-4.67,423.15-16.95,444.57-88.04.97.42,1.62.7,2.37,1.03C1015.49,91.06,744.62,7.97,677.07,3.23c-2.95,7.29-6.36,14.1-8.89,21.24Z"/>
    <path class="cls-1" d="m677.07,3.23c-2.95,7.29-6.36,14.1-8.89,21.24-.02,1.95-1.2,2.74-2.88,3.37-8.44,1.78-27.76,13.66-34.12,11-46.08-23.63-105.55-28.79-151.98-3.59-45.26,23.41-43.68,78.22-3.07,105.68,31.93,24.01,72.48,30.79,111.48,30.89,15.5-21.86-1.72,63.21-.49,69.26,75.24-4.69,422.84-16.79,444.57-88.04.97.42,1.62.7,2.37,1.03C1015.82,91.33,745.04,8.01,677.07,3.23Z"/>
  </g>
  <circle class="cls-1" cx="526.64" cy="516.65" r="5.66"/>
  <circle class="cls-2" cx="551.19" cy="516.17" r="5.66"/>
  <circle class="cls-5" cx="523.95" cy="515.53" r="5.66"/>
</svg>