<?xml version="1.0" encoding="UTF-8"?>
<svg id="Layer_1" data-name="Layer 1" xmlns="http://www.w3.org/2000/svg" viewBox="0 0 876.8 868.72">
  <defs>
    <style>
      .cls-1 {
        fill: none;
      }

      .cls-1, .cls-2, .cls-3, .cls-4, .cls-5 {
        stroke-width: 0px;
      }

      .cls-2 {
        fill: #f1f2f2;
      }

      .cls-3 {
        fill: #fff;
      }

      .cls-4 {
        fill: #f15a29;
      }

      .cls-5 {
        fill: #006838;
      }
    </style>
  </defs>
  <g>
    <path class="cls-3" d="m85.93,424.71C236.08,283.95,414.16,143.2,548.77,0,388.7,134.62,236.38,292.17,76.99,422.9c15.29,22.03,44.42,40.47,64.37,61.28,7.33,4.18,21.44,24.17,28.79,20.8,6.43,8.19,12.52-5.99,18.33-8.6,59.16-48.57,118.2-97.29,177.12-146.17,100.13-86.65,50.81-60.15,163.84,38.8-69.24,65.43-140.06,129.26-208.29,195.77-13.33,3.37-2.42,9.74,3.1,15.58,110.2,108.64,58.88,83.34,174.84-10.68,43.14,40.71,86.56,89.75,131,131.84-5.24,13.52-11.66,26.48-18.69,39.17-29.32,36.87-72.99,61.35-112.09,87.12-4.09,1.65-11.04,8.73-4.3,11.36,50.52,7.32,84.62-44.17,112.26-78.71,14.92-14.25,32.32-27.47,41.35-46.49,6.77-12.53-12.78-9.16-11.03-20.01,3.25-9.69,5.12-19.69,6.99-29.69,75.44,60.94,150.52,122.73,228.72,180.19,5.62,3.16,3.43-3.03.03-4.81-46.09-40.6-94.5-78.44-142.08-117.27-27.94-19.23-54.95-50.88-84.59-63.49-9.79,5.99-7.65,23.15-13.32,33.55-40.68-42.87-81.47-85.6-123.54-127.12-3.3-3.24-5.21-3.24-9.15-.48-16.45,5.08-29.66,24.91-44.62,35.23-17.53,17.03-38.79,31.09-54.14,49.84-25.34-27.76-52.85-53.49-78.62-80.72,59.91-53.77,118.88-108.55,177.54-163.67,11.88-11.3,24.74-21.61,35.99-33.55,3.27-6.11-5.66-4.27-6.86-8.67-28.16-29-56.37-57.96-84.46-87.02-3.27-2.54-6.63-10.8-11.34-7.29-88.38,70.77-177.96,142.17-264.39,214.29-26.93-27.08-57.75-51.23-83.82-78.57Z"/>
    <path class="cls-5" d="m85.93,424.71c26.07,27.34,56.89,51.48,83.82,78.57,86.44-72.12,176.01-143.52,264.39-214.29,4.73-3.64,8.03,4.9,11.34,7.29,28.1,29.06,56.31,58.02,84.46,87.02,1.24,4.38,10.12,2.57,6.86,8.67-11.25,11.94-24.11,22.25-35.99,33.55-58.66,55.12-117.63,109.9-177.54,163.67,25.77,27.23,53.28,52.96,78.62,80.72,15.35-18.75,36.61-32.81,54.15-49.84,14.95-10.31,28.18-30.15,44.62-35.23,3.94-2.76,5.85-2.76,9.15.48,42.06,41.52,82.86,84.25,123.54,127.12,5.64-10.41,3.57-27.54,13.32-33.54,29.64,12.59,56.66,44.26,84.6,63.48,47.58,38.83,95.99,76.67,142.08,117.28,2.82,1.35,6.1,8.26-.03,4.81-78.2-57.46-153.28-119.25-228.72-180.19-1.86,9.99-3.74,20.01-6.99,29.69-1.74,10.95,17.8,7.36,11.03,20.01-9.02,19.03-26.44,32.23-41.35,46.49-27.57,34.6-61.78,86-112.26,78.71-6.76-2.67.19-9.74,4.29-11.36,39.11-25.74,82.77-50.27,112.09-87.11,7.03-12.68,13.44-25.65,18.68-39.17-44.42-42.07-87.87-91.14-131-131.85-115.96,93.98-64.6,119.37-174.84,10.69-5.39-5.93-16.6-12.08-3.1-15.58,68.23-66.51,139.04-130.34,208.28-195.77-113.01-98.9-63.69-125.48-163.83-38.8-60.55,50.16-121.12,100.34-182,150.09-3.59,3.42-8.96,11.42-13.46,4.67-8.01,3.15-20.82-16.31-28.79-20.79-19.97-20.8-49.11-39.27-64.38-61.28C236.41,292.16,388.67,134.64,548.76,0,414.09,143.3,236.16,283.88,85.93,424.71Zm499.38,374.68c-25.92,18.25-53.8,39.78-83.42,54.27,35.26,2.52,62.65-29.64,83.42-54.27Zm48.84-73.9c-4.26,9.71-8.47,19.31-12.68,28.9,6.11-8.56,28.18-20.83,12.68-28.9Z"/>
    <path class="cls-3" d="m585.31,799.39c-20.76,24.62-48.17,56.8-83.42,54.27,29.62-14.48,57.52-36.03,83.42-54.27Z"/>
    <path class="cls-3" d="m634.15,725.49c15.5,8.08-6.55,20.32-12.68,28.9,4.21-9.59,8.42-19.18,12.68-28.9Z"/>
  </g>
  <g>
    <path class="cls-1" d="m705.31,503.22c-86.77-71.71-176.7-142.68-265.42-213.02-4.72-3.49-8.04,4.79-11.3,7.35-27.96,29.2-56.03,58.28-84.05,87.42-1.18,4.41-10.12,2.61-6.82,8.7,11.31,11.88,24.22,22.13,36.15,33.38,58.93,54.84,118.16,109.34,178.33,162.82-25.63,27.35-53.03,53.21-78.23,81.09-15.44-18.68-36.77-32.64-54.38-49.58-15.01-10.24-28.32-30.01-44.79-35.01-3.96-2.75-5.86-2.74-9.15.52-41.87,41.72-82.46,84.64-122.93,127.71-5.72-10.37-3.67-27.54-13.48-33.48-29.58,12.75-56.44,44.53-84.29,63.89-47.39,39.06-95.62,77.13-141.52,117.95-3.39,1.8-5.55,8,.05,4.81,77.93-57.83,152.71-119.98,227.86-181.28,1.91,9.99,3.84,19.99,7.13,29.66,1.8,10.85-17.76,7.57-10.94,20.07,9.12,18.98,26.58,32.11,41.57,46.29,27.81,34.4,62.15,85.73,112.63,78.17,6.73-2.66-.25-9.71-4.35-11.34-39.22-25.59-83.01-49.85-112.5-86.58-7.09-12.65-13.57-25.58-18.87-39.08,44.24-42.3,87.42-91.55,130.37-132.47,116.41,93.46,65.22,119.01,174.89,9.85,5.49-5.86,16.37-12.29,3.03-15.6-68.55-66.18-139.67-129.68-209.22-194.77,112.56-99.49,63.11-125.76,163.65-39.58,59.15,48.59,118.42,97.03,177.81,145.32,5.83,2.58,11.98,16.74,18.38,8.51,7.37,3.33,21.38-16.72,28.69-20.93,19.86-20.9,48.89-39.49,64.08-61.59C637.67,292.43,484.61,135.62,323.89,1.77c135.29,142.54,314.04,282.44,464.87,422.48-25.94,27.46-56.64,51.76-83.45,78.97Z"/>
    <path class="cls-4" d="m323.9,1.76c160.73,133.88,313.74,290.66,473.79,420.64-15.17,22.08-44.21,40.69-64.09,61.59-7.95,4.52-20.67,24.05-28.69,20.93-4.47,6.77-9.87-1.21-13.48-4.61-61.12-49.46-121.92-99.34-182.71-149.21-100.56-86.2-51.11-59.86-163.64,39.58,69.55,65.09,140.67,128.59,209.22,194.77,13.52,3.44,2.33,9.64-3.03,15.6-109.72,109.21-58.48,83.58-174.89-9.85-42.94,40.91-86.15,90.19-130.37,132.47,5.31,13.49,11.78,26.43,18.87,39.08,29.5,36.7,73.28,61.02,112.51,86.58,4.11,1.6,11.09,8.64,4.35,11.34-50.44,7.53-84.9-43.71-112.63-78.17-14.98-14.19-32.45-27.3-41.57-46.29-6.83-12.62,12.72-9.12,10.94-20.06-3.29-9.66-5.22-19.68-7.13-29.66-75.15,61.3-149.93,123.45-227.86,181.28-6.12,3.48-2.87-3.45-.05-4.81,45.9-40.82,94.13-78.9,141.52-117.95,27.85-19.35,54.72-51.15,84.3-63.88,9.78,5.96,7.79,23.09,13.48,33.48,40.47-43.06,81.06-85.99,122.93-127.71,3.29-3.26,5.19-3.27,9.15-.52,16.46,5.01,29.79,24.78,44.79,35.02,17.61,16.94,38.94,30.9,54.38,49.58,25.2-27.88,52.6-53.74,78.23-81.09-60.17-53.48-119.4-107.97-178.33-162.82-11.93-11.25-24.84-21.5-36.15-33.38-3.29-6.08,5.61-4.31,6.82-8.7,28.02-29.14,56.09-58.23,84.05-87.42,3.3-2.41,6.55-10.96,11.3-7.34,88.73,70.35,178.63,141.31,265.42,213.02,26.81-27.21,57.5-51.5,83.45-78.97C637.86,284.14,459.26,144.41,323.9,1.76Zm50.96,853.43c-29.7-14.35-57.68-35.74-83.68-53.87,20.89,24.53,48.44,56.56,83.68,53.87Zm-120.06-98.7c-4.25-9.57-8.51-19.14-12.82-28.84-15.47,8.14,6.66,20.3,12.82,28.84Z"/>
    <path class="cls-1" d="m291.18,801.31c20.88,24.52,48.45,56.57,83.68,53.87"/>
    <path class="cls-2" d="m241.98,727.65c-15.46,8.15,6.65,20.29,12.82,28.84-4.25-9.57-8.51-19.14-12.82-28.84Z"/>
  </g>
</svg>